<svg xmlns="http://www.w3.org/2000/svg" viewBox="0 0 500 500"><g id="freepik--Character--inject-16"><path d="M269.35,67.52c7.49,7.65,7.09,42.25,7.09,42.25s7.24,12.68,5.32,19.52a12.07,12.07,0,0,1-7.61,8.45l.67-3.8s-2.34,4.87-10.28,6.82-18.5-.64-24-3.52a21.81,21.81,0,0,1-8.13-7.36l2.11,5.53s-7.73-.31-12.4-8.83,8.38-20.7,9.47-23.33,3.58-42.19,23.12-38.81C254.71,64.44,264.19,62.25,269.35,67.52Z" style="fill:#455a64"></path><path d="M277,137.23a17.87,17.87,0,0,0,5-6,14.12,14.12,0,0,0,1-8.3c-.63-3.44-2.3-6.49-3.93-9.48s-3.55-6-5.18-9.14a.15.15,0,0,1,.24-.17,85.19,85.19,0,0,1,5.06,7.39,41.5,41.5,0,0,1,4,7.56,15.85,15.85,0,0,1,1.11,7.81,13.52,13.52,0,0,1-2.29,5.79,24.87,24.87,0,0,1-5,4.77C277,137.51,276.85,137.32,277,137.23Z" style="fill:#455a64"></path><path d="M220,116.72c1.93-7.5,7.5-12.11,10.77-18.59,1.76-3.51,3.09-7.41,5.44-10.43.07-.09.19,0,.13.14-1.92,2.72-3,6-4.32,9.19a51.36,51.36,0,0,1-5.12,8.74c-3.44,5-7.56,11-6.48,18.17.5,3.33,2.27,7.06,5.18,8.19.11.05.05.26-.06.2a11,11,0,0,1-5.21-6.12A16,16,0,0,1,220,116.72Z" style="fill:#455a64"></path><path d="M219.7,116a13.19,13.19,0,0,1,1.63-7.66,17.65,17.65,0,0,1,5.52-5.36c2.43-1.68,5-3.26,6.5-5.92.07-.11.22,0,.16.12-2.41,4.38-7.07,6.41-10.19,10.1-3.58,4.21-3.52,10.36-1,15.2a21.49,21.49,0,0,0,6.59,7.36s0,.11-.05.07C224.24,126.75,220.13,121.93,219.7,116Z" style="fill:#455a64"></path><path d="M257.25,117.45C266.38,130,299,164,308.78,164.35c10.15.33,28.61-13.32,35.6-17.63,4.36-2.68-17.25-28.36-22.15-25.94s-15.9,10.53-18.19,10.36c-1.79-.13-25.22-17.19-37.85-23C251.49,101.3,252.34,110.7,257.25,117.45Z" style="fill:#eb9481"></path><path d="M339.39,148.54c3.48-1.41,22.42-8.82,26.22-12s14.08-13,12-16.14-5.35-.51-5.35-.51,3.68-4.85,1.27-7.83-7.32,1.29-7.32,1.29,3.41-5.25.79-8-6.83,2.33-6.83,2.33,3.35-4.66.21-6.06c-3.77-1.68-9,7.6-13.43,10.76-1,.71-21.54,13.07-21.54,13.07Z" style="fill:#eb9481"></path><path d="M360.5,107.22C356.65,114,353.79,116.35,347,120c-.13.07-.06.28.09.22,7-3,11-5.36,13.74-12.84C361,107,360.68,106.9,360.5,107.22Z" style="fill:#263238"></path><path d="M366.46,112.84c-4.61,6.73-7.69,9.27-14.51,13.62-.1.06,0,.23.1.17,7.05-3.7,11-6.18,14.71-13.51C366.93,112.79,366.67,112.53,366.46,112.84Z" style="fill:#263238"></path><path d="M371.87,120.13c-4.94,6.19-8.19,9.12-15.36,12.49a.15.15,0,0,0,.11.27c7.64-2.72,11.73-6.35,15.42-12.59C372.29,119.87,372.18,119.74,371.87,120.13Z" style="fill:#263238"></path><path d="M355.9,116.82c.52.22,7.3-12.61,5.49-15.73s-9.41-1.65-11.05,2.17C348.9,106.6,354.42,116.17,355.9,116.82Z" style="fill:#FFC727"></path><path d="M355.45,116.09c.23.36.4-13.4-3.34-14.07C350.87,101.8,347.91,104.55,355.45,116.09Z" style="opacity:0.1"></path><path d="M355.64,115.9c.2-.53,14.19,3.43,15.2,6.88s-5.29,7.94-9.19,6.49C358.23,128,355.09,117.43,355.64,115.9Z" style="fill:#FFC727"></path><path d="M355.85,116.73c-.1-.41,10,9,7.92,12.12C363.08,129.9,359,130.14,355.85,116.73Z" style="opacity:0.1"></path><path d="M371.47,150.05s-2.23,10.06-11.76,5.42l-34.1-69.8s3-7.17,13-4.78Z" style="fill:#ebebeb"></path><rect x="342.11" y="115.92" width="14.42" height="5.91" transform="translate(-17.44 159.4) rotate(-25.1)" style="fill:#FFC727"></rect><path d="M325.61,85.67s10.19,4.51,13-4.78C338.58,80.89,330.52,77.17,325.61,85.67Z" style="fill:#dbdbdb"></path><path d="M319.21,124.59s4.33-8.79,7.08-12.24S344,99.85,346.18,103c2.76,4-4.86,11-9,13.88,0,0,6.4,9.33,2,15.49S319.21,124.59,319.21,124.59Z" style="fill:#eb9481"></path><path d="M346.57,104.34c-.13,5.49-5.86,9-9.7,12.08a.45.45,0,0,0,0,.75c2.42,4.09,4.64,10.56,2.56,15.13a.11.11,0,0,0,.2.11c2.9-4.59,1.23-11.13-1.71-15.44,4-3.15,9.59-6.87,8.69-12.64A0,0,0,0,0,346.57,104.34Z" style="fill:#263238"></path><path d="M316.65,122.26l19.56,51.44s-29.15-3.27-34.36-6.32-33.07-31.36-44-48.18c-7.17-11-5.81-18.47,10.54-10.4s34.21,20.73,35.82,20.55S316.65,122.26,316.65,122.26Z" style="fill:#263238"></path><path d="M328.75,172.77c-1.51-.19-3.18-.42-4.92-.67l-16.58-44.17c1.18-.65,2.52-1.44,3.83-2.23Z" style="fill:#455a64"></path><path d="M296.9,163.34c-9.95-9.06-30.14-30.42-39.08-44.14-7.16-11-5.82-18.47,10.54-10.4,4,2,8,4.19,11.91,6.44Z" style="opacity:0.2"></path><path d="M297.31,416l-47.51-5.83s4.67-100.1,4.27-102.33C253.56,305,242.21,170,242.21,170H287c10.16,25.19,15.32,129.28,16.24,137.87C305.37,327.47,297.31,416,297.31,416Z" style="fill:#eb9481"></path><path d="M324.27,462.16c-.93.66-12.42.61-24.83.43-5.34-.08-55.42-35.11-57.36-37.8s6.84-13.85,7.4-14.88l3-42.74L300.91,370l-4,47.82s7.13,18.71,10.5,22.34,10.31,8.15,13.45,9.3S327,460.24,324.27,462.16Z" style="fill:#eb9481"></path><path d="M242.08,424.8c1.94,2.68,52,37.71,57.36,37.79,12.41.18,23.9.24,24.83-.43,2.69-1.92-.16-11.54-3.4-12.72-2.4-.87-7.05-3.77-10.59-6.67h0c4.32,5.26,7.06,16.73-26.23-5C261.45,423,252.73,414.13,249.46,410,248.71,411.21,240.18,422.16,242.08,424.8Z" style="fill:#263238"></path><path d="M241.81,423.79a56.67,56.67,0,0,0,.56,12.12c.56,2.18,2.85,7.09,2.85,10.06v16.74h5.55V446.34c0-3.81.79-12.83,9.08-8.31Z" style="fill:#263238"></path><path d="M287,169.54s-2.61,32.73-8,41c0,0-1-.59-9.14,4.25L233.68,403.36l-41.62-2s0-56.31,15.11-92c2.72-6.41,9.83-50.92,12.78-89,0,0-1.2-12.17-.72-18.32,1.16-14.91,9.21-32.53,9.21-32.53Z" style="fill:#eb9481"></path><path d="M186.27,465.55c2.29.57,27.15-3.64,36.51-14,4.13-4.57,19.43-92.68,19.43-92.68l-43.84-1.76s-7.16,38.62-8,44.28-16,36.84-16.63,43.07C173,452,182.57,464.63,186.27,465.55Z" style="fill:#eb9481"></path><path d="M186.27,465.55c2.3.57,28-4.12,36.51-14,2.31-2.69,6.79-25.35,10.9-48.2-.27-.49-12.81,32-14.52,34.51s-22.7,11.16-25.65,10.32-12.57-7.06-13.44-8.34,8.27-31.87,8.84-33.78c-4,10.59-14.65,33.2-15.16,38.4C173,452,182.56,464.64,186.27,465.55Z" style="fill:#263238"></path><path d="M216.88,352.31V298l-15,54.35H187.45L204.68,282,220,220.41s-8.89-18.54,8.48-50.84H287s8.29,18.72,13,70.74,8.28,112,8.28,112Z" style="fill:#FFC727"></path><g style="opacity:0.2"><path d="M265.6,236.31a123.76,123.76,0,0,1,8.08-18.07c3.81-5.46,8.63-10,13.32-14.7l-3.16,3.8c-1.6,1.87-4.8,5.64-6.37,7.53-3.35,3.7-5.23,8.2-7.49,12.59l-4.38,8.85Z"></path><path d="M283.94,213.52c-3,4.07-6.59,7.44-10.11,11,2.42-4.39,6.2-7.9,10.11-11Z"></path></g><path d="M228.64,169.54l56.15-.66-3.16-19.75s4-10.66,1.57-15.52c-2.79-5.62-10.51-17.47-15.8-22.77-12.91-12.92-19.13-4.39-22-.5-6.39,8.59-11.74,46.48-11.74,46.48Z" style="fill:#eb9481"></path><path d="M251.09,104.74s3.77,14.21,9.17,22.68l14.59-.14c-.76-5-9.83-19.08-9.83-19.08s16.86,18.2,19.49,26.5c1.36,4.3-2.88,14.43-2.88,14.43L287,170l-19.31,4.85-39.05-5.35a119.56,119.56,0,0,1,5-12.72s9.84-10.45,13.56-23.74c2.22-7.92,2-23.08,1.93-27.2C249.12,105.88,250.15,104.74,251.09,104.74Z" style="fill:#FFC727"></path><path d="M263.15,148.68a50.57,50.57,0,0,1,8.07,0c1.34.13,2.66.33,4,.56.66.12,1.32.21,2,.3a7.65,7.65,0,0,0,2.08.06c.07,0,.08.09,0,.11a14.12,14.12,0,0,1-1.95.3,13.55,13.55,0,0,1-1.91-.06c-1.36-.12-2.71-.31-4.07-.45-2.73-.28-5.47-.55-8.21-.61C263,148.92,263,148.69,263.15,148.68Z" style="fill:#263238"></path><path d="M257.1,152.39a54.69,54.69,0,0,1,6.47-1.5c1.09-.17,2.19-.28,3.3-.36l1.58-.08c.59,0,1.18.05,1.76,0,.06,0,.08.1,0,.1-.55.05-1.09.19-1.64.28l-1.63.23c-1.1.17-2.19.34-3.28.49-2.19.31-4.37.63-6.55,1C257,152.61,257,152.42,257.1,152.39Z" style="fill:#263238"></path><path d="M249.79,105.29s9.94,33.36,10.51,37.54-38.19,241.95-38.19,241.95-39.37-21.25-43.24-30.48c-5.68-13.54,37.84-156.39,37.84-156.39l15.86-46.07S234.77,113,249.79,105.29Z" style="fill:#263238"></path><path d="M265,108.2s13.77,22.68,13.86,29.67,18.46,246.91,18.46,246.91,18.05-20,18.47-26.95S303,209.45,283.19,149.3c0,0,2.43-7.84,2-13.05S274.75,117.54,265,108.2Z" style="fill:#263238"></path><path d="M248,118.22c-5.49,22.41-35.17,76.11-42.73,82.62s-22.67-17.91-20.46-21c6.55-9.2,41.58-54.82,58.25-70.66,1.2-1.14,4.14-2.58,5.41-2.49C249.06,106.71,248,118.22,248,118.22Z" style="fill:#eb9481"></path><path d="M189.25,173.7c-9.44,7.3-19.9,16.09-24,28.16a6.26,6.26,0,0,0-.08,4.13c-1.93,5.38,0,7.9,0,7.9-.26,5.56,2.1,7.87,2.1,7.87s-2.2,6.34,1.41,8.3c4.05,2.21,6.34-7.12,10.74-11.48,10.08-10,28.7-22.85,31.89-25.44Z" style="fill:#eb9481"></path><path d="M182.67,200.71a91.3,91.3,0,0,0-8.33,9.25,91.16,91.16,0,0,0-6.87,11.78.11.11,0,0,1-.2-.09,48.27,48.27,0,0,1,15.27-21.08C182.7,200.45,182.82,200.56,182.67,200.71Z" style="fill:#263238"></path><path d="M177.52,193.75c-2.66,3.07-7.32,8.51-12.17,20.23,0,0-.09,0-.08,0a43.32,43.32,0,0,1,12.11-20.33C177.56,193.44,177.7,193.54,177.52,193.75Z" style="fill:#263238"></path><path d="M174.69,190.06c-4.34,5.4-6.39,9.36-9.46,15.95,0,0-.09,0-.07,0,2.7-7.85,4.57-10.4,9.36-16.1C174.69,189.69,174.86,189.85,174.69,190.06Z" style="fill:#263238"></path><path d="M162.93,186.87c1.51.34,3.17,2.41,6.83-.68s4.63-6.34,3.08-8.84c-1.06-1.71,3.21-5.37-3.82-10.63-3-2.26-5.52.33-8,.28-2-.05-5.24-1.73-8.25,3.94-2.59,4.89.23,5.33.32,7.63s-.55,3.92,1.56,6.31C158.85,189.61,160.94,186.42,162.93,186.87Z" style="fill:#FFC727"></path><path d="M162.93,186.87c1.51.34,3.17,2.41,6.83-.68s4.63-6.34,3.08-8.84c-1.06-1.71,3.21-5.37-3.82-10.63-3-2.26-5.52.33-8,.28-2-.05-5.24-1.73-8.25,3.94-2.59,4.89.23,5.33.32,7.63s-.55,3.92,1.56,6.31C158.85,189.61,160.94,186.42,162.93,186.87Z" style="opacity:0.1"></path><path d="M154.11,171.45c-1.08,1.11-3.72,1.44-3,6.18s3,7.27,5.91,7.25c2,0,2.9,5.55,11.06,2.31,3.51-1.38,2.6-4.87,3.93-6.92,1.1-1.7,4.22-3.56,1-9.09-2.81-4.77-4.65-2.6-6.66-3.72s-3.05-2.53-6.2-2C153.9,166.55,155.53,170,154.11,171.45Z" style="fill:#FFC727"></path><path d="M160.88,183.06s6.78,1.23,9.24-5.21C170.12,177.85,170,187.25,160.88,183.06Z" style="fill:#FFC727"></path><path d="M170.93,176.29s-4.33-8-13-5.27C157.9,171,167.76,163.41,170.93,176.29Z" style="fill:#FFC727"></path><path d="M164.82,172.71s-5.47-.78-7.24,4.46C157.58,177.17,157.41,169.63,164.82,172.71Z" style="fill:#FFC727"></path><path d="M165.72,181.07s3.74-4.07.42-8.5C166.14,172.57,172.45,176.7,165.72,181.07Z" style="fill:#FFC727"></path><path d="M162.3,180.09a4.32,4.32,0,0,0,3.74-4S167.42,180.75,162.3,180.09Z" style="fill:#FFC727"></path><path d="M160.18,177.16a3.26,3.26,0,0,0,4,.87S161.74,180.73,160.18,177.16Z" style="fill:#FFC727"></path><path d="M165,177.58a3.27,3.27,0,0,0-4.05-.82S163.35,174,165,177.58Z" style="fill:#FFC727"></path><path d="M166.5,175.69a4.34,4.34,0,0,0-5.44-.56S163.92,171.22,166.5,175.69Z" style="fill:#FFC727"></path><path d="M159.19,175.25a4.32,4.32,0,0,0,2.64,4.79S157,179.91,159.19,175.25Z" style="fill:#FFC727"></path><path d="M157.39,178.28s3.22,4.5,8.23,2.16C165.62,180.44,160.28,185.77,157.39,178.28Z" style="fill:#FFC727"></path><path d="M157,173.4s-2.9,4.68,1.17,8.39C158.21,181.79,151.27,178.92,157,173.4Z" style="fill:#FFC727"></path><g style="opacity:0.1"><path d="M160.88,183.06s6.78,1.23,9.24-5.21C170.12,177.85,170,187.25,160.88,183.06Z"></path><path d="M170.93,176.29s-4.33-8-13-5.27C157.9,171,167.76,163.41,170.93,176.29Z"></path><path d="M164.82,172.71s-5.47-.78-7.24,4.46C157.58,177.17,157.41,169.63,164.82,172.71Z"></path><path d="M165.72,181.07s3.74-4.07.42-8.5C166.14,172.57,172.45,176.7,165.72,181.07Z"></path><path d="M162.3,180.09a4.32,4.32,0,0,0,3.74-4S167.42,180.75,162.3,180.09Z"></path><path d="M160.18,177.16a3.26,3.26,0,0,0,4,.87S161.74,180.73,160.18,177.16Z"></path><path d="M165,177.58a3.27,3.27,0,0,0-4.05-.82S163.35,174,165,177.58Z"></path><path d="M166.5,175.69a4.34,4.34,0,0,0-5.44-.56S163.92,171.22,166.5,175.69Z"></path><path d="M159.19,175.25a4.32,4.32,0,0,0,2.64,4.79S157,179.91,159.19,175.25Z"></path><path d="M157.39,178.28s3.22,4.5,8.23,2.16C165.62,180.44,160.28,185.77,157.39,178.28Z"></path><path d="M157,173.4s-2.9,4.68,1.17,8.39C158.21,181.79,151.27,178.92,157,173.4Z"></path></g><path d="M144.51,215.35c1.42-.63,4,.05,5.09-4.62s-.06-7.85-2.79-8.93c-1.87-.74-.62-6.23-9.41-6.27-3.76,0-4.22,3.56-6.22,5-1.65,1.17-5.24,1.73-4.27,8.08.83,5.47,3.34,4.14,4.79,5.93s1.89,3.48,5,4.15C142.87,220,142.65,216.18,144.51,215.35Z" style="fill:#FFC727"></path><path d="M144.51,215.35c1.42-.63,4,.05,5.09-4.62s-.06-7.85-2.79-8.93c-1.87-.74-.62-6.23-9.41-6.27-3.76,0-4.22,3.56-6.22,5-1.65,1.17-5.24,1.73-4.27,8.08.83,5.47,3.34,4.14,4.79,5.93s1.89,3.48,5,4.15C142.87,220,142.65,216.18,144.51,215.35Z" style="opacity:0.1"></path><path d="M128.25,208.22c-.21,1.53-2.13,3.36,1.27,6.74s6.71,4.07,9.07,2.31c1.6-1.2,5.63,2.74,10.26-4.73,2-3.2-.81-5.46-1-7.9-.13-2,1.27-5.37-4.64-7.87-5.1-2.16-5.29.68-7.57,1s-3.95-.21-6.16,2.1C125.16,204.4,128.52,206.2,128.25,208.22Z" style="fill:#FFC727"></path><path d="M140.6,213.51s6.18-3,4.32-9.69C144.92,203.82,150.39,211.47,140.6,213.51Z" style="fill:#FFC727"></path><path d="M144.64,202.08s-8.27-3.88-13.6,3.53C131,205.61,134.43,193.62,144.64,202.08Z" style="fill:#FFC727"></path><path d="M137.61,202.85s-4.87,2.63-3.17,7.89C134.44,210.74,129.82,204.78,137.61,202.85Z" style="fill:#FFC727"></path><path d="M143.3,209s.58-5.5-4.72-7.08C138.58,202,146.11,201.51,143.3,209Z" style="fill:#FFC727"></path><path d="M140,210.28a4.33,4.33,0,0,0,.63-5.44S144.48,207.76,140,210.28Z" style="fill:#FFC727"></path><path d="M136.53,209.19a3.26,3.26,0,0,0,3.76-1.71S139.91,211.13,136.53,209.19Z" style="fill:#FFC727"></path><path d="M140.62,206.67a3.27,3.27,0,0,0-3.74,1.76S137.2,204.78,140.62,206.67Z" style="fill:#FFC727"></path><path d="M140.73,204.25A4.33,4.33,0,0,0,136,207S136,202.19,140.73,204.25Z" style="fill:#FFC727"></path><path d="M134.59,208.24a4.33,4.33,0,0,0,5,2.28S135.59,213.3,134.59,208.24Z" style="fill:#FFC727"></path><path d="M135,211.75s5.27,1.7,7.9-3.17C142.85,208.58,141.73,216,135,211.75Z" style="fill:#FFC727"></path><path d="M131.77,208s.45,5.48,5.93,6C137.7,214.08,130.42,215.91,131.77,208Z" style="fill:#FFC727"></path><g style="opacity:0.1"><path d="M140.6,213.51s6.18-3,4.32-9.69C144.92,203.82,150.39,211.47,140.6,213.51Z"></path><path d="M144.64,202.08s-8.27-3.88-13.6,3.53C131,205.61,134.43,193.62,144.64,202.08Z"></path><path d="M137.61,202.85s-4.87,2.63-3.17,7.89C134.44,210.74,129.82,204.78,137.61,202.85Z"></path><path d="M143.3,209s.58-5.5-4.72-7.08C138.58,202,146.11,201.51,143.3,209Z"></path><path d="M140,210.28a4.33,4.33,0,0,0,.63-5.44S144.48,207.76,140,210.28Z"></path><path d="M136.53,209.19a3.26,3.26,0,0,0,3.76-1.71S139.91,211.13,136.53,209.19Z"></path><path d="M140.62,206.67a3.27,3.27,0,0,0-3.74,1.76S137.2,204.78,140.62,206.67Z"></path><path d="M140.73,204.25A4.33,4.33,0,0,0,136,207S136,202.19,140.73,204.25Z"></path><path d="M134.59,208.24a4.33,4.33,0,0,0,5,2.28S135.59,213.3,134.59,208.24Z"></path><path d="M135,211.75s5.27,1.7,7.9-3.17C142.85,208.58,141.73,216,135,211.75Z"></path><path d="M131.77,208s.45,5.48,5.93,6C137.7,214.08,130.42,215.91,131.77,208Z"></path></g><path d="M188,211.1a35.8,35.8,0,0,1-4.38-4.77,34.81,34.81,0,0,1-3.47-5.44,26.31,26.31,0,0,1-2.25-6.06c-.24-1.06-.42-2.09-.64-3.12l-.38-1.54-.44-1.51a26.69,26.69,0,0,0-2.56-5.75,23.08,23.08,0,0,0-1.82-2.58c-.66-.82-1.4-1.6-2-2.47a50.54,50.54,0,0,1-3.47-5.36,26.21,26.21,0,0,1-1.38-2.88,9.47,9.47,0,0,1-.76-3.08,9.28,9.28,0,0,0,.83,3.05,24.26,24.26,0,0,0,1.44,2.83,49.21,49.21,0,0,0,3.58,5.26c.63.84,1.38,1.59,2.07,2.41a22.93,22.93,0,0,1,1.91,2.58,27.75,27.75,0,0,1,2.75,5.8l.49,1.53.41,1.55c.25,1,.46,2.1.71,3.11a26,26,0,0,0,2.32,5.81,34.38,34.38,0,0,0,3.5,5.21,34.83,34.83,0,0,0,4.33,4.5Z" style="fill:#455a64"></path><path d="M182.23,203.5l-1.45-.85-1.44-.86-2.88-1.73c-1-.58-1.93-1.14-2.9-1.69q-.72-.42-1.47-.81l-.74-.38-.77-.35.81.25.79.31c.51.22,1,.46,1.53.71,1,.49,2,1.05,2.95,1.62s1.92,1.17,2.84,1.81S181.35,202.8,182.23,203.5Z" style="fill:#455a64"></path><path d="M177.45,191c-.51-.55-1-1.11-1.53-1.65s-1-1.09-1.54-1.62c-1-1.07-2.08-2.14-3.18-3.14s-2.19-2-3.35-3c-.28-.24-.59-.45-.88-.68l-.44-.35-.46-.31c-.31-.21-.6-.45-.92-.64s-.64-.39-1-.6a22.52,22.52,0,0,1,3.84,2.34,41.2,41.2,0,0,1,3.43,2.91c1.09,1,2.13,2.11,3.13,3.22S176.56,189.76,177.45,191Z" style="fill:#455a64"></path><path d="M175.22,184.81c-.47-1.34-.87-2.71-1.23-4.08s-.67-2.77-.93-4.17a37.8,37.8,0,0,1-.54-4.24,11.48,11.48,0,0,1,.38-4.25l-.09.53a4.34,4.34,0,0,0-.07.52c0,.36,0,.71,0,1.06l0,1.06.09,1c.16,1.41.36,2.81.62,4.2s.54,2.78.84,4.17S174.9,183.43,175.22,184.81Z" style="fill:#455a64"></path><path d="M171,197.06s-7.95-1.16-7.62-3.36S171,197.06,171,197.06Z" style="fill:#455a64"></path><path d="M173.35,197.93s-6.4-4.85-5-6.62S173.35,197.93,173.35,197.93Z" style="fill:#455a64"></path><path d="M174.63,199s-7.91,1.4-8.29-.79S174.63,199,174.63,199Z" style="fill:#455a64"></path><path d="M179.22,201.33s-6-5.29-4.57-7S179.22,201.33,179.22,201.33Z" style="fill:#455a64"></path><path d="M180.21,202.36s-7.57,2.68-8.31.58S180.21,202.36,180.21,202.36Z" style="fill:#455a64"></path><path d="M174.81,188s-8,.36-8.12-1.86S174.81,188,174.81,188Z" style="fill:#455a64"></path><path d="M171.1,184.54s-7.12.33-7.21-1.65S171.1,184.54,171.1,184.54Z" style="fill:#455a64"></path><path d="M168.58,175.69s-6.91-1.71-6.43-3.63S168.58,175.69,168.58,175.69Z" style="fill:#455a64"></path><path d="M171.12,184s-5.27-4.79-3.93-6.25S171.12,184,171.12,184Z" style="fill:#455a64"></path><path d="M164.54,179.18s-6.77-1-6.49-2.86S164.54,179.18,164.54,179.18Z" style="fill:#455a64"></path><path d="M165.81,171s-6-3.2-5.15-4.88S165.81,171,165.81,171Z" style="fill:#455a64"></path><path d="M166.81,172.56s-2.54-6.35-.77-7.05S166.81,172.56,166.81,172.56Z" style="fill:#455a64"></path><path d="M174.24,180.7s-.07-6.84,1.83-6.85S174.24,180.7,174.24,180.7Z" style="fill:#455a64"></path><path d="M173,174.52s-.06-6.84,1.84-6.85S173,174.52,173,174.52Z" style="fill:#455a64"></path><path d="M173.61,179.16s-4.7-5-3.32-6.26S173.61,179.16,173.61,179.16Z" style="fill:#455a64"></path><path d="M172.65,173.77s-4-5.52-2.5-6.64S172.65,173.77,172.65,173.77Z" style="fill:#455a64"></path><path d="M172.75,168.51s.28-6.84,2.18-6.75S172.75,168.51,172.75,168.51Z" style="fill:#455a64"></path><path d="M164.51,166.93s-2.09-6-.43-6.56S164.51,166.93,164.51,166.93Z" style="fill:#455a64"></path><path d="M178.17,219.79a36.79,36.79,0,0,0-6.09-2.23,35.05,35.05,0,0,0-6.35-1.12,26.28,26.28,0,0,0-6.45.23c-1.08.19-2.1.42-3.14.6l-1.56.25-1.57.17a27.58,27.58,0,0,1-6.29-.17,23.25,23.25,0,0,1-3.08-.7c-1-.29-2-.68-3-.92a48.13,48.13,0,0,0-6.28-1.15,24.27,24.27,0,0,0-3.19-.18A9.53,9.53,0,0,0,128,215a9.82,9.82,0,0,1,3.14-.4,25.89,25.89,0,0,1,3.17.26,48.69,48.69,0,0,1,6.22,1.29c1,.26,2,.67,3,1a23.72,23.72,0,0,0,3.12.78,27.51,27.51,0,0,0,6.41.32l1.6-.13,1.59-.21c1.06-.17,2.12-.38,3.14-.53a25.71,25.71,0,0,1,6.26-.08,33.19,33.19,0,0,1,6.15,1.24,34.89,34.89,0,0,1,5.81,2.28Z" style="fill:#455a64"></path><path d="M168.93,217.35l-1.34-1-1.35-1-2.69-2c-.9-.66-1.79-1.34-2.67-2-.45-.34-.88-.7-1.31-1.05l-.64-.55-.62-.57c.18.22.36.44.55.65l.58.61c.41.39.82.77,1.24,1.14.85.75,1.73,1.44,2.63,2.11s1.82,1.32,2.76,1.94S168,216.8,168.93,217.35Z" style="fill:#455a64"></path><path d="M155.53,217.71c-.71-.25-1.41-.5-2.11-.78s-1.4-.52-2.09-.8c-1.38-.56-2.77-1.11-4.12-1.74s-2.7-1.25-4-2c-.33-.17-.65-.37-1-.55l-.49-.28-.46-.31c-.32-.2-.65-.38-.94-.6l-.92-.65a22.5,22.5,0,0,0,3.63,2.65,43.23,43.23,0,0,0,4,2.07c1.37.6,2.76,1.16,4.18,1.66S154.07,217.36,155.53,217.71Z" style="fill:#455a64"></path><path d="M149,218c-1.42.08-2.83.23-4.24.42s-2.81.45-4.21.74a34.89,34.89,0,0,0-4.12,1.13,11.36,11.36,0,0,0-3.78,2l.45-.28a3,3,0,0,1,.46-.26c.32-.15.63-.31,1-.44l1-.38,1-.31c1.36-.39,2.73-.74,4.12-1s2.77-.56,4.17-.82S147.58,218.25,149,218Z" style="fill:#455a64"></path><path d="M158.67,209.38s-4.11-6.9-6-5.76S158.67,209.38,158.67,209.38Z" style="fill:#455a64"></path><path d="M160.39,211.26s-6.93-4.06-8-2.13S160.39,211.26,160.39,211.26Z" style="fill:#455a64"></path><path d="M161.86,212s-1.73-7.84-3.9-7.35S161.86,212,161.86,212Z" style="fill:#455a64"></path><path d="M165.78,215.39s-7.2-3.56-8.18-1.56S165.78,215.39,165.78,215.39Z" style="fill:#455a64"></path><path d="M167.11,215.91s-.42-8-2.64-7.9S167.11,215.91,167.11,215.91Z" style="fill:#455a64"></path><path d="M151.78,216.41s-2.73-7.55-4.82-6.79S151.78,216.41,151.78,216.41Z" style="fill:#455a64"></path><path d="M147.16,214.3s-2.42-6.7-4.28-6S147.16,214.3,147.16,214.3Z" style="fill:#455a64"></path><path d="M138,215.36s-4.23-5.73-5.82-4.55S138,215.36,138,215.36Z" style="fill:#455a64"></path><path d="M146.68,214.53s-6.45-3-7.29-1.24S146.68,214.53,146.68,214.53Z" style="fill:#455a64"></path><path d="M139.7,210.3s-3.49-5.88-5.12-4.91S139.7,210.3,139.7,210.3Z" style="fill:#455a64"></path><path d="M132.61,214.61s-5.27-4.36-6.48-2.9S132.61,214.61,132.61,214.61Z" style="fill:#455a64"></path><path d="M134.44,214.92s-6.83.09-6.81,2S134.44,214.92,134.44,214.92Z" style="fill:#455a64"></path><path d="M144.81,218.67s-6.35,2.56-5.63,4.32S144.81,218.67,144.81,218.67Z" style="fill:#455a64"></path><path d="M138.62,219.88s-6.34,2.56-5.63,4.32S138.62,219.88,138.62,219.88Z" style="fill:#455a64"></path><path d="M143.15,218.68s-6.39-2.45-7.06-.67S143.15,218.68,143.15,218.68Z" style="fill:#455a64"></path><path d="M137.8,219.85s-6.65-1.61-7.09.24S137.8,219.85,137.8,219.85Z" style="fill:#455a64"></path><path d="M133,222s-6.2,2.87-5.4,4.6S133,222,133,222Z" style="fill:#455a64"></path><path d="M128.36,215s-6.32.36-6.22,2.11S128.36,215,128.36,215Z" style="fill:#455a64"></path><path d="M179,208.89c-.49-.42.14-1.19.62-.77l23.9,20.55c.49.41-.14,1.19-.63.77Z" style="fill:#455a64"></path><path d="M186.56,215c-.51-.4.09-1.2.59-.8l24.71,19.56c.5.4-.09,1.2-.59.8Z" style="fill:#455a64"></path><path d="M187.78,212.15c-.51-.4.09-1.2.59-.8l24.71,19.56c.5.4-.09,1.2-.6.8Z" style="fill:#455a64"></path><path d="M184.13,217.36c-.56-.31-.1-1.2.47-.88L212.05,232c.56.31.1,1.2-.47.88Z" style="fill:#455a64"></path><path d="M183.21,218.19c-.54-.34-.05-1.2.5-.87l26.87,16.47c.54.34,0,1.21-.5.87Z" style="fill:#455a64"></path><path d="M184.88,205.47c-.47-.44.18-1.19.66-.75l23.07,21.47c.46.44-.19,1.19-.66.75Z" style="fill:#455a64"></path><path d="M183.67,212c-.52-.37,0-1.2.55-.82l25.59,18.4c.52.37,0,1.2-.56.82Z" style="fill:#455a64"></path><path d="M180.8,222.58c-.61-.18-.36-1.15.26-1l30.21,8.95c.62.19.37,1.15-.25,1Z" style="fill:#455a64"></path><path d="M173.91,187.52s-15.46,10.76-17.72,30.2l36.69,8.48s4.35-2.66,5.7-9.91Z" style="fill:#ebebeb"></path><path d="M196.22,213.54a32.54,32.54,0,0,0-5-.94c-1.69-.2-3.39-.31-5.1-.35s-3.4,0-5.1.08l-1.28.07-1.27.12c-.85.08-1.7.14-2.54.25a80.87,80.87,0,0,0-10,1.86c-1.66.38-3.28.9-4.91,1.37s-3.21,1.11-4.79,1.72c1.68-.29,3.32-.67,5-1l2.48-.48c.83-.15,1.65-.34,2.48-.46s1.66-.28,2.49-.44,1.66-.25,2.49-.39,1.65-.28,2.49-.37l2.5-.32c.83-.12,1.66-.18,2.5-.28l1.25-.13,1.25-.1c1.67-.16,3.35-.23,5-.32.84,0,1.68-.07,2.52-.08s1.68,0,2.52,0C192.85,213.34,194.53,213.4,196.22,213.54Z" style="fill:#dbdbdb"></path><path d="M166.7,194.37a32.79,32.79,0,0,0,.37,5.15,45.54,45.54,0,0,0,1,5,35.66,35.66,0,0,0,1.58,4.92,19.35,19.35,0,0,0,2.47,4.56c-.5-1.66-.92-3.29-1.35-4.93l-1.24-4.92c-.42-1.64-.84-3.28-1.31-4.92S167.28,196,166.7,194.37Z" style="fill:#dbdbdb"></path><path d="M151.08,199.19c1.8-.42,4.66,1,7-4.26s1.73-9.24-1.23-11.14c-2-1.29.7-7.46-9.62-9.5-4.42-.88-5.77,3.2-8.45,4.4-2.2,1-6.54.84-6.86,8.52-.27,6.62,3,5.63,4.28,8.07s1.43,4.52,4.94,6C148.09,204.25,148.7,199.73,151.08,199.19Z" style="fill:#FFC727"></path><path d="M133.6,187.09c-.59,1.75-3.27,3.47,0,8.22s7,6.31,10.12,4.78c2.17-1.05,6,4.5,13.14-3.21,3.07-3.31.3-6.6.67-9.51.31-2.4,2.72-6-3.65-10.3-5.5-3.7-6.37-.41-9.12-.59s-4.6-1.15-7.71,1.06C130.85,181.9,134.38,184.78,133.6,187.09Z" style="fill:#FFC727"></path><path d="M133.6,187.09c-.59,1.75-3.27,3.47,0,8.22s7,6.31,10.12,4.78c2.17-1.05,6,4.5,13.14-3.21,3.07-3.31.3-6.6.67-9.51.31-2.4,2.72-6-3.65-10.3-5.5-3.7-6.37-.41-9.12-.59s-4.6-1.15-7.71,1.06C130.85,181.9,134.38,184.78,133.6,187.09Z" style="opacity:0.1"></path><path d="M146.9,196.13s8-2.17,7.29-10.39C154.19,185.74,158.87,196,146.9,196.13Z" style="fill:#FFC727"></path><path d="M154.26,183.63s-8.83-6.45-16.79,1C137.47,184.67,144.2,171.36,154.26,183.63Z" style="fill:#FFC727"></path><path d="M145.82,182.92s-6.31,2-5.52,8.55C140.3,191.47,136.23,183.42,145.82,182.92Z" style="fill:#FFC727"></path><path d="M151.1,191.48s1.94-6.32-3.93-9.39C147.17,182.09,156.12,183.3,151.1,191.48Z" style="fill:#FFC727"></path><path d="M146.9,192.19s3.58-2.3,2-6.24C148.88,186,152.77,190.26,146.9,192.19Z" style="fill:#FFC727"></path><path d="M143.1,190.12a3.92,3.92,0,0,0,4.82-1.14S146.64,193.17,143.1,190.12Z" style="fill:#FFC727"></path><path d="M148.48,188.1a3.92,3.92,0,0,0-4.8,1.22S144.9,185.1,148.48,188.1Z" style="fill:#FFC727"></path><path d="M149.17,185.28s-4-1.46-6.17,2.2C143,187.48,144.08,181.78,149.17,185.28Z" style="fill:#FFC727"></path><path d="M141,188.56s1.08,4.12,5.32,3.82C146.36,192.38,141.06,194.74,141,188.56Z" style="fill:#FFC727"></path><path d="M140.67,192.77s5.79,3.2,10-1.91C150.67,190.86,147.65,199.37,140.67,192.77Z" style="fill:#FFC727"></path><path d="M137.78,187.68s-.72,6.55,5.58,8.46C143.36,196.14,134.39,196.62,137.78,187.68Z" style="fill:#FFC727"></path><path d="M169.87,197.49c1.25.54,2.34,2.61,6,.55s5.06-4.72,4.13-7.14c-.63-1.66,3.68-4.12-1.54-9.85-2.23-2.45-4.83-.62-6.93-1.08-1.75-.37-4.25-2.37-7.8,2.05-3,3.8-.69,4.64-1,6.65s-1.13,3.31.29,5.73C165.88,199.18,168.22,196.77,169.87,197.49Z" style="fill:#FFC727"></path><path d="M164.8,182.67c-1.12.78-3.46.63-3.63,4.85s1.37,6.79,3.91,7.26c1.75.33,1.59,5.29,9.2,3.85,3.26-.62,3.06-3.79,4.55-5.34,1.24-1.29,4.24-2.38,2.34-7.71-1.64-4.6-3.59-3-5.14-4.34s-2.23-2.69-5-2.74C165.44,178.39,166.27,181.64,164.8,182.67Z" style="fill:#FFC727"></path><path d="M164.8,182.67c-1.12.78-3.46.63-3.63,4.85s1.37,6.79,3.91,7.26c1.75.33,1.59,5.29,9.2,3.85,3.26-.62,3.06-3.79,4.55-5.34,1.24-1.29,4.24-2.38,2.34-7.71-1.64-4.6-3.59-3-5.14-4.34s-2.23-2.69-5-2.74C165.44,178.39,166.27,181.64,164.8,182.67Z" style="opacity:0.1"></path><path d="M168.73,193.85s5.66,2.2,8.86-3C177.59,190.88,175.89,199,168.73,193.85Z" style="fill:#FFC727"></path><path d="M178.56,189.66s-2.41-7.69-10.41-6.73C168.15,182.93,178,178,178.56,189.66Z" style="fill:#FFC727"></path><path d="M173.87,185.55s-4.61-1.59-7,2.65C166.85,188.2,168,181.64,173.87,185.55Z" style="fill:#FFC727"></path><path d="M173.25,192.93s3.92-2.9,1.78-7.29C175,185.64,179.81,190.27,173.25,192.93Z" style="fill:#FFC727"></path><path d="M170.45,191.51a3.81,3.81,0,0,0,3.91-2.83S174.77,192.94,170.45,191.51Z" style="fill:#FFC727"></path><path d="M169.11,188.63a2.87,2.87,0,0,0,3.35,1.42S169.86,192,169.11,188.63Z" style="fill:#FFC727"></path><path d="M173.18,189.78a2.89,2.89,0,0,0-3.38-1.38S172.37,186.44,173.18,189.78Z" style="fill:#FFC727"></path><path d="M174.82,188.41A3.82,3.82,0,0,0,170.2,187S173.33,184.11,174.82,188.41Z" style="fill:#FFC727"></path><path d="M168.57,186.8a3.81,3.81,0,0,0,1.48,4.59S165.88,190.47,168.57,186.8Z" style="fill:#FFC727"></path><path d="M166.5,189.13s2,4.43,6.77,3.24C173.27,192.37,167.76,196.1,166.5,189.13Z" style="fill:#FFC727"></path><path d="M167,184.85s-3.29,3.57-.38,7.45C166.63,192.3,161.1,188.67,167,184.85Z" style="fill:#FFC727"></path><path d="M150.62,224.36c1.25.55,2.34,2.62,6,.55s5.06-4.72,4.13-7.14c-.63-1.65,3.68-4.12-1.54-9.84-2.23-2.46-4.82-.63-6.93-1.08-1.75-.38-4.25-2.37-7.8,2-3,3.81-.69,4.65-1,6.66s-1.13,3.3.29,5.72C146.63,226.06,149,223.65,150.62,224.36Z" style="fill:#FFC727"></path><path d="M145.55,209.55c-1.12.78-3.46.62-3.63,4.85s1.37,6.78,3.91,7.26c1.75.33,1.59,5.29,9.2,3.85,3.26-.62,3.06-3.79,4.55-5.35,1.24-1.29,4.24-2.38,2.34-7.71-1.64-4.59-3.59-3-5.14-4.33s-2.23-2.69-5-2.75C146.19,205.27,147,208.52,145.55,209.55Z" style="fill:#FFC727"></path><path d="M145.55,209.55c-1.12.78-3.46.62-3.63,4.85s1.37,6.78,3.91,7.26c1.75.33,1.59,5.29,9.2,3.85,3.26-.62,3.06-3.79,4.55-5.35,1.24-1.29,4.24-2.38,2.34-7.71-1.64-4.59-3.59-3-5.14-4.33s-2.23-2.69-5-2.75C146.19,205.27,147,208.52,145.55,209.55Z" style="opacity:0.1"></path><path d="M149.48,220.72s5.66,2.2,8.86-3C158.34,217.76,156.64,225.87,149.48,220.72Z" style="fill:#FFC727"></path><path d="M159.31,216.53s-2.41-7.68-10.41-6.72C148.9,209.81,158.71,204.86,159.31,216.53Z" style="fill:#FFC727"></path><path d="M154.62,212.42s-4.61-1.58-7,2.66C147.6,215.08,148.71,208.52,154.62,212.42Z" style="fill:#FFC727"></path><path d="M154,219.81s3.92-2.91,1.78-7.29C155.78,212.52,160.56,217.15,154,219.81Z" style="fill:#FFC727"></path><path d="M151.2,218.39a3.83,3.83,0,0,0,3.91-2.83S155.52,219.81,151.2,218.39Z" style="fill:#FFC727"></path><path d="M149.86,215.5a2.87,2.87,0,0,0,3.35,1.43S150.61,218.86,149.86,215.5Z" style="fill:#FFC727"></path><path d="M153.93,216.66a2.89,2.89,0,0,0-3.38-1.38S153.12,213.32,153.93,216.66Z" style="fill:#FFC727"></path><path d="M155.57,215.28a3.82,3.82,0,0,0-4.62-1.39S154.08,211,155.57,215.28Z" style="fill:#FFC727"></path><path d="M149.32,213.68a3.81,3.81,0,0,0,1.48,4.59S146.63,217.35,149.32,213.68Z" style="fill:#FFC727"></path><path d="M147.25,216s2,4.43,6.77,3.24C154,219.25,148.51,223,147.25,216Z" style="fill:#FFC727"></path><path d="M147.76,211.73s-3.28,3.56-.38,7.45C147.38,219.18,141.85,215.54,147.76,211.73Z" style="fill:#FFC727"></path><path d="M164,210.11c1.92-.44,5,1,7.49-4.54s1.85-9.85-1.31-11.87c-2.16-1.38.74-8-10.25-10.14-4.72-.94-6.17,3.42-9,4.7-2.36,1.06-7,.9-7.32,9.08-.29,7.06,3.18,6,4.56,8.6s1.52,4.83,5.26,6.42C160.85,215.51,161.5,210.69,164,210.11Z" style="fill:#FFC727"></path><path d="M164,210.11c1.92-.44,5,1,7.49-4.54s1.85-9.85-1.31-11.87c-2.16-1.38.74-8-10.25-10.14-4.72-.94-6.17,3.42-9,4.7-2.36,1.06-7,.9-7.32,9.08-.29,7.06,3.18,6,4.56,8.6s1.52,4.83,5.26,6.42C160.85,215.51,161.5,210.69,164,210.11Z" style="opacity:0.1"></path><path d="M145.4,197.22c-.64,1.86-3.49,3.69-.06,8.76s7.42,6.73,10.8,5.09c2.31-1.11,6.39,4.81,14-3.42,3.27-3.52.31-7,.71-10.13.33-2.56,2.9-6.42-3.9-11-5.85-3.95-6.78-.44-9.71-.63s-4.91-1.23-8.23,1.13C142.46,191.68,146.23,194.75,145.4,197.22Z" style="fill:#FFC727"></path><path d="M159.58,206.85s8.48-2.31,7.77-11.07C167.35,195.78,172.34,206.69,159.58,206.85Z" style="fill:#FFC727"></path><path d="M167.42,193.53s-9.41-6.88-17.9,1.1C149.52,194.63,156.7,180.44,167.42,193.53Z" style="fill:#FFC727"></path><path d="M158.43,192.77s-6.74,2.11-5.89,9.12C152.54,201.89,148.2,193.3,158.43,192.77Z" style="fill:#FFC727"></path><path d="M164.06,201.9s2.06-6.75-4.19-10C159.87,191.88,169.41,193.17,164.06,201.9Z" style="fill:#FFC727"></path><path d="M159.58,202.65s3.82-2.45,2.11-6.65C161.69,196,165.83,200.6,159.58,202.65Z" style="fill:#FFC727"></path><path d="M155.53,200.45a4.17,4.17,0,0,0,5.13-1.22S159.3,203.7,155.53,200.45Z" style="fill:#FFC727"></path><path d="M161.26,198.3a4.16,4.16,0,0,0-5.11,1.29S157.45,195.1,161.26,198.3Z" style="fill:#FFC727"></path><path d="M162,195.28s-4.27-1.55-6.58,2.35C155.42,197.63,156.57,191.55,162,195.28Z" style="fill:#FFC727"></path><path d="M153.33,198.79s1.15,4.38,5.68,4.06C159,202.85,153.36,205.37,153.33,198.79Z" style="fill:#FFC727"></path><path d="M152.93,203.27s6.18,3.41,10.67-2C163.6,201.23,160.38,210.3,152.93,203.27Z" style="fill:#FFC727"></path><path d="M149.85,197.85s-.77,7,6,9C155.8,206.86,146.24,207.38,149.85,197.85Z" style="fill:#FFC727"></path><g style="opacity:0.1"><path d="M159.58,206.85s8.48-2.31,7.77-11.07C167.35,195.78,172.34,206.69,159.58,206.85Z"></path><path d="M167.42,193.53s-9.41-6.88-17.9,1.1C149.52,194.63,156.7,180.44,167.42,193.53Z"></path><path d="M158.43,192.77s-6.74,2.11-5.89,9.12C152.54,201.89,148.2,193.3,158.43,192.77Z"></path><path d="M164.06,201.9s2.06-6.75-4.19-10C159.87,191.88,169.41,193.17,164.06,201.9Z"></path><path d="M159.58,202.65s3.82-2.45,2.11-6.65C161.69,196,165.83,200.6,159.58,202.65Z"></path><path d="M155.53,200.45a4.17,4.17,0,0,0,5.13-1.22S159.3,203.7,155.53,200.45Z"></path><path d="M161.26,198.3a4.16,4.16,0,0,0-5.11,1.29S157.45,195.1,161.26,198.3Z"></path><path d="M162,195.28s-4.27-1.55-6.58,2.35C155.42,197.63,156.57,191.55,162,195.28Z"></path><path d="M153.33,198.79s1.15,4.38,5.68,4.06C159,202.85,153.36,205.37,153.33,198.79Z"></path><path d="M152.93,203.27s6.18,3.41,10.67-2C163.6,201.23,160.38,210.3,152.93,203.27Z"></path><path d="M149.85,197.85s-.77,7,6,9C155.8,206.86,146.24,207.38,149.85,197.85Z"></path></g><path d="M192.38,207.3c1.82-.78,2.25.18.55,3.28s-11,13.93-7,16.87,16.18-13,19.45-17.91a40.21,40.21,0,0,0,6.18-17.31C208.44,194.74,198.57,202.46,192.38,207.3Z" style="fill:#eb9481"></path><path d="M190.17,170l29.14,31.14s25.52-70.6,28-78,1.84-17.27,1.84-17.27-4.59.05-11.68,7.68S190.17,170,190.17,170Z" style="fill:#263238"></path><path d="M223.39,189.9c-.62,1.68-1.17,3.21-1.67,4.58L194,165.38c.83-1,1.76-2.15,2.79-3.4Z" style="fill:#455a64"></path><path d="M244.71,130.49C239,147.05,232,167.19,226,183.63c-2.18,5.87-4.33,11.75-6.58,17.59l-.07.2-.12-.16-2.51-3.35,2.69,3.2-.2,0c3.34-10.34,8.56-25.13,12.23-35.52,4.28-11.77,8.49-23.57,13.28-35.14Z" style="fill:#455a64"></path><path d="M245,132.4a12.76,12.76,0,0,1-3.71,6,23,23,0,0,1,3.71-6Z" style="fill:#455a64"></path><path d="M261,101c-7.54-1.65-20.65,3.81-21.61,9.5-.82,4.86-.94,41.42-2,51S226.18,226,226.18,226l13.57-.89,9.3,6.28s6.64-47,6.8-62.79c.18-17.31-6.3-60.91-4.91-63.29s7.1-2,9.69-1.57,6.71,5.52,8.8,10.59,10.24,37.54,10.31,49.53,4.12,67.93,4.12,67.93l10.69-13.09,11.67,8.76s-6.19-44.74-9.54-63.93c-1.58-9-8.83-34.69-19-49.57C271.93,105.4,265.48,102,261,101Z" style="fill:#455a64"></path><path d="M261,101c-7.54-1.65-20.65,3.81-21.61,9.5-.82,4.86-.94,41.42-2,51S226.18,226,226.18,226l13.57-.89,9.3,6.28s6.64-47,6.8-62.79c.18-17.31-6.3-60.91-4.91-63.29s7.1-2,9.69-1.57,6.71,5.52,8.8,10.59,10.24,37.54,10.31,49.53,4.12,67.93,4.12,67.93l10.69-13.09,11.67,8.76s-6.19-44.74-9.54-63.93c-1.58-9-8.83-34.69-19-49.57C271.93,105.4,265.48,102,261,101Z" style="fill:#fff;opacity:0.30000000000000004"></path><path d="M251.71,105.75c.29,1.22,6.54,9.4,12.14,9.11,1.82-.1,1.41-7.68,1.41-7.68l2.43-11.07-13.92-8.76S251.6,105.23,251.71,105.75Z" style="fill:#eb9481"></path><path d="M267.68,96.11l-2.31,10.55a21.94,21.94,0,0,1-12.46-12.14c.45-3.83.86-7.17.86-7.17Z" style="fill:#263238"></path><path d="M280.11,76.91c5.89,17.61-4,23.13-7.79,24.39-3.45,1.15-15.34,4.62-23-12.29S248,63.8,255.71,60.76,274.22,59.3,280.11,76.91Z" style="fill:#eb9481"></path><path d="M276,76.77a11,11,0,0,1-1.28,0,2,2,0,0,1-1.3-.29.65.65,0,0,1-.14-.79,1.63,1.63,0,0,1,1.52-.66,2.4,2.4,0,0,1,1.64.57A.7.7,0,0,1,276,76.77Z" style="fill:#455a64"></path><path d="M263.36,78.94a12.32,12.32,0,0,0,1.19-.48,2.12,2.12,0,0,0,1.12-.73.66.66,0,0,0-.15-.79,1.62,1.62,0,0,0-1.65-.09A2.38,2.38,0,0,0,262.53,78,.7.7,0,0,0,263.36,78.94Z" style="fill:#455a64"></path><path d="M266.69,82s-.09.08-.08.13c.3,1.23.42,2.69-.61,3.33,0,0,0,.08,0,.07C267.35,85,267.16,83.09,266.69,82Z" style="fill:#263238"></path><path d="M265.32,80.9c-2,.26-1.37,4.29.51,4S267,80.69,265.32,80.9Z" style="fill:#263238"></path><path d="M264.56,81.25c-.31.28-.59.74-1,.85s-.92-.23-1.31-.58c0,0-.07,0-.06.06.12.77.54,1.51,1.39,1.49s1.2-.79,1.26-1.6C264.85,81.32,264.69,81.13,264.56,81.25Z" style="fill:#263238"></path><path d="M273.84,79.82s.11.05.11.1c.16,1.25.55,2.67,1.74,2.9,0,0,.05.07,0,.07C274.28,82.92,273.79,81,273.84,79.82Z" style="fill:#263238"></path><path d="M274.75,78.34c2-.46,2.77,3.54.93,4S273.09,78.74,274.75,78.34Z" style="fill:#263238"></path><path d="M275.64,78.44c.36.15.75.48,1.13.43s.68-.56.88-1c0,0,.06,0,.07,0,.17.76.07,1.6-.63,1.9s-1.27-.3-1.6-1C275.43,78.62,275.49,78.38,275.64,78.44Z" style="fill:#263238"></path><path d="M269.32,92.11c.34.26.69.63,1.15.61a3.28,3.28,0,0,0,1.31-.47,0,0,0,0,1,.06.06,1.71,1.71,0,0,1-1.51.87,1.36,1.36,0,0,1-1.12-1C269.18,92.11,269.28,92.07,269.32,92.11Z" style="fill:#263238"></path><path d="M273.74,86.69s.58,1.82.74,2.69c0,.09-.19.16-.49.23,0,0,0,0,0,0a4.27,4.27,0,0,1-4.33-.84.1.1,0,0,1,.11-.15,6.34,6.34,0,0,0,4,.42c0-.25-1.1-3.07-1-3.11a8.22,8.22,0,0,1,2.07.1c-1.1-3.81-2.81-7.42-3.86-11.23,0-.14.16-.22.22-.1a64.54,64.54,0,0,1,4.68,11.92C276,87.12,274.11,86.78,273.74,86.69Z" style="fill:#263238"></path><path d="M273.84,89.3a5.17,5.17,0,0,1-1.62,2,2.36,2.36,0,0,1-1.34.41c-1.05,0-1.29-.92-1.3-1.74a5.85,5.85,0,0,1,.16-1.29A6.64,6.64,0,0,0,273.84,89.3Z" style="fill:#263238"></path><path d="M272.22,91.33a2.36,2.36,0,0,1-1.34.41c-1.05,0-1.29-.92-1.3-1.74A2.38,2.38,0,0,1,272.22,91.33Z" style="fill:#ff9abb"></path><path d="M247.83,88.59c2.12-.26,7.07-.9,9.64-4,1.42-1.73,2.44-4.41,2.49-8.86.1-7.78,4.61-13.74,13.44-10.94a10.31,10.31,0,0,0-6.46-6.57c-5.22-1.81-7.9,1.3-7.9,1.3s-10.55,1-14.54,9.91S247.83,88.59,247.83,88.59Z" style="fill:#455a64"></path><path d="M252.56,87.76s-5.29-4.69-7.51-2.67,2.7,9.48,6,9.87a3.13,3.13,0,0,0,3.69-2.62Z" style="fill:#eb9481"></path><path d="M246.51,87.2s0,.07,0,.08c2.31.35,3.88,2,5.15,3.87a1.74,1.74,0,0,0-2.64.14.07.07,0,0,0,.09.1,1.93,1.93,0,0,1,2.22.16A9.4,9.4,0,0,1,252.73,93c.15.17.46,0,.34-.21l0,0C252.45,90,249.46,86.77,246.51,87.2Z" style="fill:#263238"></path><path d="M252.34,93.94a.76.76,0,1,1-.76-.76A.76.76,0,0,1,252.34,93.94Z" style="fill:#dbdbdb"></path><rect x="251.39" y="94.14" width="0.37" height="1.72" style="fill:#dbdbdb"></rect><rect x="250.26" y="96.55" width="0.37" height="8.32" style="fill:#dbdbdb"></rect><rect x="251.01" y="96.55" width="0.37" height="7.24" style="fill:#dbdbdb"></rect><rect x="251.77" y="96.55" width="0.37" height="6.16" style="fill:#dbdbdb"></rect><rect x="252.53" y="96.55" width="0.37" height="5.08" style="fill:#dbdbdb"></rect><rect x="250.26" y="95.86" width="2.65" height="0.69" style="fill:#dbdbdb"></rect><path d="M278.77,73.37s.34-6.15-5.37-8.63A20.79,20.79,0,0,0,278.77,73.37Z" style="fill:#455a64"></path><path d="M287.79,71.53c-.19-.07-4.66-1.77-5.28-5.84-.31-2-.45-4.26-.58-6.42-.26-4.26-.53-8.66-2.15-9.41s-5.45-1.19-15.88.36c-6.31.93-12,2.18-12.08,2.2l-.26-1.2c.94-.21,23.12-5.07,28.74-2.48,2.28,1.06,2.55,5.41,2.86,10.45.13,2.14.26,4.34.57,6.31.5,3.35,4.44,4.86,4.48,4.87Z" style="fill:#FFC727"></path><path d="M298.32,73c-.05,0-4.64-2.36-6.84-2.64a8.32,8.32,0,0,0-3.91.51l-.49-1.13a9.47,9.47,0,0,1,4.56-.6c2.4.3,7,2.67,7.24,2.77Z" style="fill:#FFC727"></path><path d="M294.43,80.25c-.55-.32-5.43-3.13-6.33-4.79a22.26,22.26,0,0,1-1.53-4.31l1.2-.28a20,20,0,0,0,1.41,4c.55,1,3.89,3.18,5.86,4.31Z" style="fill:#FFC727"></path><path d="M299.09,75.66s-4.83-2.47-6.15-3.13a33.44,33.44,0,0,0-5.8-1.34l.19-1.21a33.37,33.37,0,0,1,6.16,1.45c1.33.66,6.11,3.11,6.16,3.13Z" style="fill:#FFC727"></path><path d="M296.66,78.85s-3.35-2.27-4.55-2.85-5-4.34-5.39-4.76l.87-.87a38.21,38.21,0,0,0,5.06,4.52c1.28.63,4.56,2.85,4.7,3Z" style="fill:#FFC727"></path><polygon points="254.95 67.67 217.36 68.09 247.07 44.86 283.95 43.98 254.95 67.67" style="fill:#263238"></polygon><g style="opacity:0.1"><polygon points="254.95 67.67 217.36 68.09 247.07 44.86 283.95 43.98 254.95 67.67"></polygon></g><path d="M238,77,233.18,66.9s9-8.62,17.31-11.49,19.85-2.26,19.85-2.26l3.24,11.59s-11.93,1.51-18.58,4S238,77,238,77Z" style="fill:#FFC727"></path><path d="M238,77l0,0c.63-.35,10.48-5.92,16.93-8.29s18.21-3.92,18.57-4h0l-3.24-11.59s-11.55-.61-19.86,2.26-17.3,11.49-17.3,11.49Z" style="fill:#263238"></path><path d="M247.92,57H248S247.94,57,247.92,57Z" style="fill:#263238"></path><path d="M266.16,65.73a15.38,15.38,0,0,1,2.19-.23v0h0c-2,.33-4.32.77-6.64,1.29-1.75.4-3.5.84-5.07,1.34-.56.17-1.1.35-1.6.54-.75.27-1.54.59-2.36.94l0,0-.38-.94c1.93-.88,3.88-1.7,5.86-2.44l-.61.15q-1.32.45-2.64.93c-1.21.44-2.42.89-3.61,1.36h0l-.61-1.37h.05c.53-.24,1-.49,1.59-.7l-.54-.85c.54-.38,1.05-.7,1.59-1l.05,0-.73-1.36.74-.41c-1,.36-2,.77-3,1.21l-.75-1.6h0l.14-.07c.8-.37,1.6-.72,2.4-1.06l-.42-1-.77.35-.66-1.31,0,0,.09,0a44.08,44.08,0,0,1,5.78-2.41,22.73,22.73,0,0,0-6.76,1.86h0l0-.1v0l0-.08,0,0a.36.36,0,0,0,0-.09l0-.05h0l-.07-.15L249,58l0-.06a.28.28,0,0,1,0-.07h0c.53-.25,1.07-.48,1.62-.68,1.67-.69,3.36-1.33,5.08-1.88A57.53,57.53,0,0,0,248,57h-.05l-.06,0h-.05c-.21.24-.28-.1-.28-.38l.46-.21c.36-.18.73-.34,1.09-.49l.14,0c.76-.22,1.54-.43,2.31-.62,1.86-.49,3.73-1,5.61-1.43,1.22-.19,2.43-.33,3.6-.44-1,.24-2,.5-3,.77a37.1,37.1,0,0,1,3.81-.22.22.22,0,0,1,.08,0l0,.95a32.42,32.42,0,0,0-3.49.76c.47,0,.94,0,1.41,0a47.76,47.76,0,0,1,5.06.86l-1.57.29V58.1h0l.18,1.48-.39.09,0,.52c.86-.13,1.72-.23,2.59-.29l.23,1.74a41,41,0,0,0-5.43,1.67c1.84-.31,3.68-.53,5.56-.69h0l.15,1.62h0a7,7,0,0,0-.8.11c2.14.17,4.68.55,6,.69l-5.92.62a19.25,19.25,0,0,0-2.93.59c1.26-.21,2.54-.39,3.82-.53Z" style="fill:#37474f"></path></g><g id="freepik--Stars--inject-16"><polygon points="143.37 119.77 148.11 118.9 149.17 113.9 150.23 118.9 154.97 119.78 150.25 120.93 149.17 125.65 148.09 120.93 143.37 119.77" style="fill:#FFC727"></polygon><polygon points="116.74 252.15 121.48 251.27 122.54 246.28 123.59 251.27 128.33 252.15 123.61 253.3 122.54 258.02 121.46 253.3 116.74 252.15" style="fill:#FFC727"></polygon><polygon points="332.17 64.2 336.91 63.33 337.97 58.33 339.02 63.33 343.76 64.21 339.05 65.36 337.97 70.08 336.89 65.36 332.17 64.2" style="fill:#FFC727"></polygon><polygon points="373.35 240.6 378.09 239.72 379.15 234.72 380.21 239.72 384.95 240.6 380.23 241.75 379.15 246.47 378.07 241.75 373.35 240.6" style="fill:#FFC727"></polygon><polygon points="227.65 259.26 232.39 258.38 233.44 253.39 234.5 258.38 239.24 259.26 234.52 260.42 233.44 265.13 232.37 260.42 227.65 259.26" style="fill:#FFC727"></polygon><polygon points="97.86 233.97 100.5 233.48 101.1 230.68 101.69 233.48 104.34 233.97 101.7 234.61 101.1 237.25 100.49 234.61 97.86 233.97" style="fill:#FFC727"></polygon><polygon points="191.72 233.97 194.37 233.48 194.96 230.68 195.55 233.48 198.2 233.97 195.56 234.61 194.96 237.25 194.35 234.61 191.72 233.97" style="fill:#FFC727"></polygon><polygon points="132.06 207.25 134.71 206.76 135.3 203.97 135.89 206.76 138.54 207.25 135.9 207.9 135.3 210.54 134.69 207.9 132.06 207.25" style="fill:#FFC727"></polygon><polygon points="205.34 90.77 207.99 90.28 208.58 87.49 209.17 90.28 211.82 90.77 209.18 91.42 208.58 94.06 207.98 91.42 205.34 90.77" style="fill:#FFC727"></polygon><polygon points="334.62 317.3 337.26 316.81 337.86 314.02 338.45 316.81 341.1 317.31 338.46 317.95 337.86 320.59 337.25 317.95 334.62 317.3" style="fill:#FFC727"></polygon><polygon points="317.1 169.14 319.75 168.65 320.34 165.86 320.93 168.65 323.58 169.14 320.94 169.79 320.34 172.43 319.74 169.79 317.1 169.14" style="fill:#FFC727"></polygon><polygon points="183.47 154.42 186.12 153.93 186.71 151.14 187.3 153.93 189.95 154.42 187.31 155.07 186.71 157.7 186.1 155.07 183.47 154.42" style="fill:#FFC727"></polygon><polygon points="395.66 210.54 398.31 210.05 398.9 207.25 399.5 210.05 402.14 210.54 399.51 211.18 398.9 213.82 398.3 211.18 395.66 210.54" style="fill:#FFC727"></polygon><polygon points="183.09 317.3 185.74 316.81 186.33 314.02 186.92 316.81 189.57 317.31 186.93 317.95 186.33 320.59 185.73 317.95 183.09 317.3" style="fill:#FFC727"></polygon><path d="M235.09,125a.77.77,0,0,0,0-1.54A.77.77,0,0,0,235.09,125Z" style="fill:#FFC727"></path><path d="M393.13,265.13a.77.77,0,0,0,0-1.53A.77.77,0,0,0,393.13,265.13Z" style="fill:#FFC727"></path><path d="M244.77,178.07a.77.77,0,0,0,0-1.53A.77.77,0,0,0,244.77,178.07Z" style="fill:#FFC727"></path><path d="M101.84,179.79a.77.77,0,0,0,0-1.53A.77.77,0,0,0,101.84,179.79Z" style="fill:#FFC727"></path><path d="M362.34,183a.77.77,0,0,0,0-1.54A.77.77,0,0,0,362.34,183Z" style="fill:#FFC727"></path><path d="M173.6,211.3a.77.77,0,0,0,0-1.53A.77.77,0,0,0,173.6,211.3Z" style="fill:#FFC727"></path><path d="M330.14,225.86a.55.55,0,0,0,0-1.09A.55.55,0,0,0,330.14,225.86Z" style="fill:#FFC727"></path><path d="M239.24,74.71a.55.55,0,0,0,0-1.09A.55.55,0,0,0,239.24,74.71Z" style="fill:#FFC727"></path><path d="M158,143a.54.54,0,0,0,0-1.08A.54.54,0,0,0,158,143Z" style="fill:#FFC727"></path><path d="M158.51,188.21a.55.55,0,0,0,0-1.09A.55.55,0,0,0,158.51,188.21Z" style="fill:#FFC727"></path><path d="M307.63,243.54a1.47,1.47,0,0,0,0-2.94A1.47,1.47,0,0,0,307.63,243.54Z" style="fill:#FFC727"></path><path d="M309.05,85.86a1.47,1.47,0,0,0,0-2.94A1.47,1.47,0,0,0,309.05,85.86Z" style="fill:#FFC727"></path></g></svg>
