<?xml version="1.0" encoding="utf-8"?>
<!-- Generator: Adobe Illustrator 28.1.0, SVG Export Plug-In . SVG Version: 6.00 Build 0)  -->
<svg version="1.1" id="Layer_1" xmlns="http://www.w3.org/2000/svg" xmlns:xlink="http://www.w3.org/1999/xlink" x="0px" y="0px"
	 viewBox="0 0 800 600" style="enable-background:new 0 0 800 600;" xml:space="preserve">
<style type="text/css">
	.st0{display:none;fill:#411D4F;}
	.st1{fill:#FFFFFF;}
</style>
<path class="st0" d="M820.8,564.4H-25.3c-6.6,0-12-5.4-12-12V81.6c0-6.6,5.4-12,12-12h846.1c6.6,0,12,5.4,12,12v470.9
	C832.8,559,827.4,564.4,820.8,564.4z"/>
<path class="st1" d="M708.6,457.5c62.3-74.2,74.1-182.5,21.3-270.3C682.8,108.7,596.9,68,511.6,74.7c96-11.3,194.2,33,247.2,121.3
	c58.5,97.4,44,218.4-27.7,299.1L708.6,457.5z"/>
<path class="st1" d="M677,476.5c-7.9,6.2-14.8,9.8-19.9,11.9c-5.7,2.4-16.6,8.4-29.9,10.3c-8.5,1.3-10.8,3.6-12.9,6.5
	c-3.6,4.8-1.8,9.5-5.5,17c-2,4.1-4.7,7-6.5,8.6c1.4,3.2,3.3,4.2,4.1,4.6c4.4,2,11.5-1.3,16.4-8.9c1.4-1.6,3.6-4.1,6.7-5.6
	c4.8-2.4,9.4-1.8,19.8,0.4l0,0c7,1.4,11.2,1.5,15.1,1.9c8.5,0.9,11,2.7,19.7,2.8c2.3,0,3.2,0,4.3-0.5c4.4-1.9,4.1-7.5,8.6-9.6
	c0.6-0.3,2-0.9,3.8-2c1.3-0.8,2.2-1.3,2.4-1.6c1.5-2.3-0.8-6.1-5.2-13.4c0,0-5.1-8.4-14.7-19.8c-1-1.1-2.9-3.4-4.9-3
	C677.7,476,677.2,476.4,677,476.5z"/>
<path class="st1" d="M586,570.4c0.8,8.9,5.6,15,10.4,15.2c0.9,0,2.9,0,5.6-2c1.3-1.3,2.7-2.8,4.1-4.6c2.5-3.2,4.2-6.2,5.3-8.8
	c0.9-2,0.3-3.2-0.1-3.8c-0.9-1.5-2.7-1.9-3.4-2c-2.9-0.8-5.6,0.9-6.3,1.3c-2.9,1.5-4.4,3-5.3,4.2c-0.4,0.6-1.6,2.4-3.4,2.5h-0.1
	c-0.4,0-1.1-0.1-3.7-1C587.8,571.1,586.8,570.6,586,570.4z"/>
<path class="st1" d="M602.9,584.6c2-2,4.3-4.7,6.6-8c1.5-2.3,2.8-4.4,3.8-6.5c4.1-2.9,8.8-2.4,10.5,0.1c1.5,2,0.6,4.9,0.4,5.5
	c-0.9,1.9-2.3,4.2-4.2,6.6c-2,2.5-4.1,4.3-5.7,5.6c-0.8,0.5-2.2,1-3.9,1C605.8,588.9,603.1,585,602.9,584.6z"/>
<path class="st1" d="M617.6,587.6c2.8-4.1,5.6-8.2,8.4-12.3c3.9-3.8,8.6-4.7,11.2-2.8c0.5,0.4,1.4,1.3,1.9,3c-0.3,1-0.5,2.2-0.9,3.4
	c-1.8,4.9-4.9,8.2-7.2,10c-0.3,0.3-4.3,3.4-8.9,1.9C619.6,590,618.1,588.4,617.6,587.6z"/>
<path class="st1" d="M634.4,583.2c0.4-0.5,0.6-1,1-1.5c2.2-3.3,3.8-6.6,5.2-9.8c2.2-2.7,5.8-3.2,8.1-1.5c1.6,1.1,2.4,3.3,2.2,5.5
	c-0.6,1.6-1.8,4.3-4.3,6.7c-1.3,1.3-2.5,2.2-3.6,2.8c-2.3,1.4-4.9,1.4-6.7,0.1C635.2,584.8,634.6,583.8,634.4,583.2z"/>
<path class="st1" d="M565.6,529.5c-0.1-1-0.1-2.3,0.8-3.2c1.4-1.4,3.8-0.3,7.2-0.6c1.6-0.1,3.9-0.6,6.6-2.4c1.1-0.6,2.8-1.5,4.7-2.9
	c4.7-3.3,7-6.1,12.4-11.7c1.8-1.8,4.3-4.4,7.7-7.6c4.1-3.8,7.9-4.6,9.5-4.7c2.5-0.4,5.2,0,7.5,0.3c2,0.3,3.7,0.6,4.8,0.9
	c-7.6,0.4-11.3,2.9-13.2,5.2c-4.2,4.9-2,11.4-7.6,20.2c-1.4,2.3-2.8,3.9-3.8,4.9c-0.4,0.5-1.1,1.5-1.3,3c-0.1,2.5,1.8,4.4,2.2,4.7
	c3.6,3.2,10,0.6,11.3,0.1c4.4-1.8,7-4.9,8.2-6.7c0.6-1.3,3-5.1,7.9-7.1c3.9-1.6,7.6-1.3,9-1c9.9,1.5,17.8,2.8,23.5,3.7
	c1.5,0.3,2.9,0.5,4.4,0.8c14.1,2.3,18.3,3.3,22.2,0.8c0.6-0.4,1.6-1.1,2.8-2.5c0.8,0.8,2.3,2.7,2.7,5.5c0.4,3.7-1.5,7.4-4.9,9.5
	c-2.9,1.4-7.9,3.3-14.1,3.8c-8.4,0.6-14.8-1.6-18.1-3c0.1,0.1,0.4,0.9,0.1,1.8c-0.3,0.8-0.9,1.3-1,1.3c4.8,0.4,8.9,0.5,11.8,0.6
	c1.6,0,3.3,0.1,5.3,0.1c4.6,0,8.2-0.3,10.9-0.5c0.4,1.1,1.1,3.9-0.1,7c-1.4,3.4-4.9,4.7-7.2,5.6c-2.9,1.1-5.3,1.1-8.9,1.3
	c-3.6,0.1-6.2-0.3-7-0.4c-2.7-0.4-6.3-1.1-10.7-2.9c0.1,0.1,0.5,1,0.1,2.2c-0.4,1-1.1,1.4-1.4,1.5c4.8,0.1,8.4,0.4,11.4,0.5
	c3.9,0.1,6.5,0.3,10-0.1c1.9-0.1,3.6-0.4,4.6-0.6c0.1,0.9,0.3,3.4-1.3,6.1c-0.4,0.6-1.4,2.4-4.4,4.2c-7.7,4.6-17.1,1.9-19.9,1
	c-2.3-0.8-4.1-1.6-5.2-2.3c0,0.1,0.3,0.6,0,1.3c-0.3,0.5-0.6,0.6-0.8,0.8c2.3,0.8,5.2,1.5,8.5,2c4.2,0.6,7.9,0.5,10.7,0.1
	c-0.3,1.3-0.8,3.2-2.3,5.2c-3,3.9-7.7,4.6-8.8,4.7c0-0.5-0.4-3.8-3.2-5.7c-2.5-1.8-6.1-1.6-9,0.3c-0.5-0.6-2.2-2.9-5.2-3.8
	c-4.6-1.3-8.1,1.8-8.5,2c-0.3-0.8-1.4-3.3-4.2-4.9c-4.1-2.2-8.1-0.4-8.6-0.1c-0.9-2.2-2-3.2-2.9-3.7c-4.2-2.5-11.7,0-18.1,6.9
	c-4.1-3-7.2-3.6-9.6-3.4c-3.4,0.3-6,1.8-8.4,0.5c-1.3-0.8-2-2-2.4-2.9c-0.3-0.5-0.8-1.4-1.1-2.5c-0.5-1.4-1-2.7-1.4-3.9
	c-1.6-5.8-2.9-13.3-2.9-13.3C566.2,541.2,565.6,535.9,565.6,529.5z"/>
<path class="st1" d="M623.8,513.8c0,0.5,0.1,1.1,0.5,1.6c0.6,0.9,1.4,0.9,1.6,1.6c0.1,0.4,0.1,0.9,0,1.5c0.8-0.6,1.8-1.3,2.9-1.9
	c1-0.5,1.9-0.9,2.7-1.1c-0.1-0.1-0.4-0.3-0.5-0.4c-0.5-0.6-0.1-1.5-0.1-2.3s-0.3-1.8-1.6-3.2c0.9,2.2,0,4.4-1.6,5.1
	C626.5,515.2,625,514.8,623.8,513.8z"/>
<path class="st1" d="M653.9,517.5c0-0.1,2,0.3,4.7-0.6c3.9-1.3,7-4.6,8.6-6.5c0.4-0.4,0.6-0.8,1-1.1c1.9-2,2.3-2.5,3.2-3.2
	c0.6-0.4,1.1-0.8,1.5-0.9c-1.1,1.9-1,2.9-0.6,3.3c0.5,0.8,1.5,0.5,2.7,1.6c0.5,0.5,0.9,1,1,1.4c-0.9-0.3-2.2-0.6-3.9-0.5
	c-1.9,0.1-3.2,0.9-4.7,1.8c-1.3,0.6-2,1.4-3.8,3c-0.9,0.8-1.5,1.4-1.4,1.9c0.1,0.5,0.9,0.8,1.3,0.8
	C655.7,517.9,653.9,517.6,653.9,517.5z"/>
<path class="st1" d="M529.3,526.5c-91.7-6.3-173.4-69.8-198.5-163.6c-22.5-83.9,6.3-169.2,67.1-223.1
	c-71,58.1-105.5,154.3-80.2,248.6c27.9,104.1,120,173.9,222.4,178.2L529.3,526.5z"/>
<path class="st1" d="M396.9,142.5c11.7-11.9,29.6-27.5,54.2-41.1c24.4-13.4,46.9-20,63.2-23.5c-3.4-6.2-6.9-12.4-10.3-18.6l37-53.7
	l-140,7l-79.8,113.8c18.3-0.6,36.5-1.3,54.8-1.9c-1.4-7.1-2.5-18,1.8-29.4c17.8-46.6,109.1-53.5,108.8-54.5
	c-0.1-0.4-14.2,2-32.2,8.5c-8.8,3.2-16.5,5.8-25.4,10.9c-11.8,6.6-35.3,19.8-42.9,45c-2.5,8.5-2.7,16.2-2.3,21.6
	C388.4,131.8,392.6,137.2,396.9,142.5z"/>
<path class="st1" d="M374.4,157.2c4.3-4.4,8.6-8.9,12.8-13.3c-8.1-3.6-16.2-7.1-24.4-10.7C366.7,141.1,370.5,149.1,374.4,157.2z"/>
<circle class="st1" cx="367.3" cy="135.9" r="7.7"/>
<g>
	<path class="st1" d="M559.4,193.7c0.9,2.2,2.3,3.9,5.1,3.9c1.5,0,2.8-0.6,4.2-1.6c2.2,2.9,4.7,5.3,7.2,7.6c1.6,1.5,3.2,2.9,4.4,4.3
		c1.3,1.4,2.3,2.9,3.4,4.6c2,2.9,4.2,6.1,7.5,8.6l0.1,0.1c-0.5,0.9-0.8,1.9-0.8,2.9c0.1,1,0.4,1.8,0.9,2.4c-0.4,0.5-0.6,1-0.9,1.5
		c-1.4,0-3.4,0.5-5.3,2.4c-2.8,2.9-2.4,5.5-1.6,7.1c1,2,2.9,3.3,5.2,3.3c0.8,0,1.5-0.1,2.3-0.4c2.3,2.3,4.9,3.4,8.2,3.4
		c0.5,0,1.1,0,1.8-0.1h0.1c1.4-0.1,4.8-0.5,6.7-3c0.1,0.4,0.3,0.6,0.4,1c-0.1,0.1-0.4,0.3-0.5,0.4l-4.1,2.9l3.3,3.8
		c3.2,3.6,5.6,7.7,7.4,12.4l-1.1,4.1c-0.4,1.6-1.8,6.9,1,10.5c1.6,2.2,4.2,3.3,7.7,3.6c1.8,3.9,4.3,8.6,10,11
		c0.5,0.8,1.3,2.4,1.3,3.4c-0.1,4.4,0.6,8.8,6.3,11.8c-0.6,0.4-1.3,1-1.8,1.6c-2,2.5-2.2,5.7-0.4,8.1c1.3,1.6,2.9,2.5,4.9,2.5
		c1,0,1.8-0.3,2.3-0.4c0.1,0,0.3-0.1,0.4-0.1h0.1c0.3,0.3,0.8,1.1,1.1,1.6c0.6,0.9,1.3,2,2.2,2.9c0.4,1.1,1.6,3.9,5.8,4.4
		c0.3,0.5,0.5,1.5,0.5,2.9c0,0.6,0,1.4-0.1,2.2c-0.3,2.9-0.8,7.4,2.9,10.1c0.9,0.6,1.1,1.4,2,3.6l0.3,0.8l3.8,9.8l2.9-6.3
		c1.5,5.2,1.8,10.8,1.9,16.7c0.1,1.9,0.1,3.9,0.3,6c0,0.1,0,0.5,0,0.8c-0.1,1.1-0.3,2.9,0.6,4.6c2.5,5.6,1.1,11.2-0.5,17.6l-0.3,0.9
		c-0.8,3-1.4,6.2-2,9.3c-1,4.6-1.9,9.1-3.3,13.7c-1.1,4.1-2.8,8.1-5.1,12.7c-0.3-0.1-0.5-0.3-0.8-0.4c-0.9-0.5-2-1-3.3-1.4
		c0-0.1-0.1-0.1-0.1-0.1c0-0.1-0.1-0.3-0.1-0.4c-0.1-0.9-0.1-1.8-0.3-2.7c-0.1-2-0.3-4.2-1-6.6V420l0.4-0.3l0.4-1.3
		c1.3-4.4,0.3-8.6-0.6-11.9c0-0.1,0-0.1,0-0.3l0.4-0.4l0.4-1.1c0.9-3.3,0.5-6.2,0.1-8.9c-0.1-1.1-0.3-2.3-0.4-3.3v-0.9l-0.4-0.9
		c-0.4-0.9-0.6-2-1-3.3c-0.9-3.4-2-8-6.7-10.8c-1.5-1-3.2-1.9-4.8-2.7c-1.9-1.6-1.4-2.5-0.8-3.6c2.8-4.4,1.3-8.6,0.3-11.3l-0.3-0.6
		c-0.5-1.9-1.6-3.2-2.4-4.2c-0.3-0.4-0.6-0.8-0.8-1c-0.1-0.4-0.1-0.8-0.3-1c-0.1-0.8-0.4-1.8-0.9-2.7c-0.3-0.9-0.8-1.6-1-2.4
		c-0.3-0.5-0.6-1.1-0.6-1.4l0.1-0.5v-0.3c0.4-4.2-2.5-5.7-3.6-6.1l-0.6-0.3H629c-0.4,0-0.8,0-1.1,0c-1.1,0-2.3,0.1-3.3,0.6
		c-2,0.8-3.6,2-4.7,3.7l-0.1,0.1l-0.5,0.4c-1.6,1.1-2.5,2.5-2.5,4.3c0,0.8,0.1,1.6,0.8,2.7c0,0-0.1,0-0.1,0.1
		c-0.4,0.1-0.8,0.4-1,0.6c-1.6,0.5-3.8,1.9-4.4,5.2c-0.4-0.9-1-1.9-1.9-2.9c-0.9-0.9-1.8-1.5-2.5-2.2c-0.4-0.3-0.8-0.5-1-0.8
		c-0.1-0.3-0.1-0.5-0.3-0.9c-0.3-1-0.5-2.3-1-3.4c-0.1-0.6-0.1-1.1-0.1-1.8c0.3-1,0.4-1.9,0.5-2.8c0-0.4,0.1-0.8,0.1-1
		c0.5-2,0.9-5.1-0.6-8.4c-1-1.9-2.7-3.3-5.1-3.9c-0.8-0.3-1.5-0.4-2.3-0.4c-1.8,0-3.3,0.6-4.7,1.9c-0.8,0.6-1.4,1.3-2,1.9
		c-1.6,1.5-2.5,2.4-3.6,2.7c-0.3-0.3-0.6-0.5-1-0.8c-0.1-0.1-0.3-0.3-0.4-0.3c-0.1-0.3-0.3-0.9-0.3-1.3c-0.1-0.6-0.3-1.3-0.5-1.9
		c-0.4-1.4-1-2.4-1.5-3.3c-0.1-0.3-0.4-0.6-0.4-0.8s-0.1-0.4-0.1-0.5c0.1-1.4,0-2.7-0.1-3.8c0-0.3-0.1-0.6-0.1-0.9
		c0.8-0.4,1.3-1,1.6-1.5c0.1,0,0.1,0,0.3,0c0.8,0,1.8,0.4,2.9,1.3c3,2.3,6.5,3.7,10.7,4.4c0.5,0.1,1.3,0.1,1.9,0.1
		c2.7,0,4.9-1.4,6.1-3.9c1-2.3,0.9-4.4,0.8-5.8c0-0.3,0-0.5-0.1-0.9v-0.1v-0.1l-0.1-0.9c-0.1-1.4-0.3-2.9-0.4-4.4v-0.1V309
		c-0.1-0.6-0.4-1.3-0.5-2c-0.4-1.1-0.6-2.2-0.5-2.9c0.4-1.4,0.4-2.8,0.5-4.1c0.1-1.3,0.1-2.4,0.4-3c0.1-0.1,0.1-0.3,0.3-0.4
		c0.1,0,0.1,0,0.3,0c1.5,0,4.7,0,6.9-3l0.9-1.3v-1.5c0-2.3-0.8-4.2-1.3-5.7c-0.4-1.1-0.8-2-0.8-2.8v-0.1V282c-0.1-1.9-0.4-3.8-0.4-6
		c-0.1-3-0.4-6.3-0.9-9.5v-0.4l-0.1-0.4c0-0.1,0-0.3-0.1-0.4V265c0.3-1.1,0.9-3.6-0.8-5.7c-0.8-1-2.4-2.3-5.2-2.3
		c-0.1,0-0.4,0-0.6,0l-1.6,0.1l-1.3,1.1c-1.3,1.1-2,2.5-2.5,3.8c-1-1.1-2.5-2.2-4.8-2.3c-0.4-0.1-1-0.6-1.5-1
		c-2-1.4-4.1-1.4-5.5-1.5c-0.3,0-0.8,0-0.9-0.1c-0.6-0.1-1.3-0.3-2-0.3c-0.4,0-0.8,0-1.1,0c-0.1,0-0.1,0-0.3,0
		c-1.9-0.9-3.8-0.9-4.7-0.9h-0.5h-0.4c-0.4,0-0.6,0-0.8,0c0,0,0,0-0.1-0.1c-0.3-0.3-0.6-0.8-1-1.1c-4.7-4.2-4.9-5.1-1.9-10.7
		c0.9-0.9,2.3-2.4,2.3-4.8c0-1.1-0.4-2.7-1.8-4.2l-0.6-0.9c-1.9-2.7-3.7-5.2-4.9-8c-0.4-1.1-0.9-2-1.3-2.8c-0.3-0.4-0.5-1-0.6-1.1
		c0.3-2.9-0.5-5.5-1-7.6c-0.3-1-0.6-1.9-0.8-2.8c-0.1-1-0.4-2-0.6-2.8c0.9-8.6-0.4-11.4-7.9-15.3c0.4-0.1,0.8-0.3,1.1-0.4
		C558.5,194.2,559,194,559.4,193.7 M571.3,193.9L571.3,193.9L571.3,193.9 M592.6,220L592.6,220 M592.6,239.7L592.6,239.7
		L592.6,239.7 M607.8,296.7L607.8,296.7L607.8,296.7 M669.7,341.8L669.7,341.8L669.7,341.8 M560.9,188.3c-1.5,0-2.8,1.4-4.2,1.8
		c-2.4,0.8-4.9,1.4-7.4,2c-1.8,0.8-3,1.8-2.3,4.1c1.5,1.5,3.7,0.6,5.3,1.4c0.1,0.1,0.3,0.1,0.3,0.1l0,0c0,0,0.1,0,0.3,0.1
		c7.9,3.8,8.2,4.6,7.4,12.7c0.3,1,0.5,2.2,0.8,3.2c0.5,3.2,2.2,6.2,1.8,9.6c0,2.2,1.6,3.7,2.2,5.7c1.5,3.7,4.1,7,6.3,10.3
		c1.5,1.4,0.4,2.3-0.6,3.3c-4.3,7.9-3.8,10.9,2.5,16.7c0.6,0.5,1,1.1,1.6,1.6c1,0.6,2.2,0.6,3.3,0.6c0.3,0,0.6,0,0.9,0
		c1.1,0,2.3,0.1,3.3,0.6c0.4,0.1,0.8,0.3,1.3,0.3c0.5,0,1-0.1,1.6-0.1c0.4,0,0.6,0,1,0.1c1.6,0.4,3.4-0.1,4.9,0.9
		c1.1,0.8,2.2,1.5,3.6,1.8c2.5,0.1,2.7,2,3.2,3.8c0.3,1.4,0.8,2.5,1.9,2.5c0.4,0,0.9-0.1,1.5-0.5c2.5-2.3,1.9-6.2,4.4-8.5
		c0.1,0,0.3,0,0.4,0c3.4,0,0.9,2.8,1.5,4.1c0,0.5,0.1,0.9,0.3,1.4c0.8,5.1,0.8,10.1,1.3,15.2c0.1,2.9,2,5.5,2.2,8.4
		c-1.5,2.2-4.4,0.3-6.1,2c-0.8,0.6-1.3,1.4-1.6,2.3c-1,2.7-0.5,5.5-1.3,8.1c-0.3,2.3,0.6,4.4,1.1,6.7c0.3,1.6,0.4,3.3,0.5,5.1
		c0.1,1.5,0.5,3-0.3,4.6c-0.5,1-1.1,1.3-2,1.3c-0.4,0-0.8,0-1.1-0.1c-3.2-0.5-6.1-1.5-8.8-3.6c-1.8-1.3-3.7-2.2-5.7-2.2
		c-1.3,0-2.7,0.4-3.9,1.3c0.4,1.8-1.9,0.9-2.2,2.2c-1,2.4,0.3,4.8,0,7.2c0,0.6,0.1,1.3,0.3,2c0.4,1.4,1.5,2.5,1.9,3.9
		c0.6,1.8,0.5,3.8,1.9,5.2c1.1,0.9,2.3,1.9,3.8,2.4h0.1c4.3,0,6.5-3.4,9.3-5.8c0.5-0.5,1-0.6,1.5-0.6c0.4,0,0.6,0.1,1,0.1
		c0.9,0.3,1.8,0.8,2.3,1.6c0.9,1.8,0.6,3.6,0.3,5.3c-0.3,1.3-0.4,2.7-0.6,3.9c-0.3,1.4-0.1,2.7,0.3,4.1c0.6,1.4,0.9,2.9,1.3,4.4
		c0.1,0.4,0.4,0.8,0.6,1.1c1,1.3,2.7,1.9,3.8,3.2c1.4,1.4,1.4,3.6,2.4,4.9c1,1.5,2,3.3,3.7,3.3c0.8,0,1.5-0.4,2.5-1.1
		c1.3-1.6,1.1-3.4,1-5.3c-0.1-1.5,0.1-2.8,1.9-3.2c2.2-1.6,5.7-2.4,4.1-6.5c-2.4-1.4,0.4-1.6,0.5-2.4c0.3-0.3,0.6-0.5,0.8-0.9
		c0.6-1,1.5-1.6,2.7-2.2c0.5-0.3,1-0.3,1.5-0.3c0.3,0,0.5,0,0.8,0c1,0.4,0.5,1.3,0.6,1.9c-0.4,2.3,1.3,4.1,1.9,6.1
		c0.5,1.1,0.6,2.5,1.1,3.7c0.8,1.9,2.5,3,3.2,5.1c0.9,2.7,2.2,5.2,0.4,8.1c-2.4,3.9-1.3,7.2,2.2,9.9c1.6,0.6,3.3,1.5,4.7,2.5
		c4.7,2.7,4.3,7.9,6.1,12.1c0,3.6,1.4,7.2,0.4,10.8c-1.1,1.1-1,2.5-0.6,3.9c0.8,3.2,1.6,6.3,0.6,9.6c-1.3,1.1-1,2.7-0.6,4.1
		c1,2.8,0.8,5.8,1.3,8.8c0.1,0.5,0.3,1,0.4,1.4c0.5,1.3,1.3,2,2.4,2.7c2.5,0.5,4.6,2.5,7.1,2.5c0.4,0,0.9,0,1.3-0.1
		c2.8-5.2,5.1-10.4,6.9-16.2c2.3-7.6,3.4-15.3,5.3-23.1c1.8-7.1,3.7-14.2,0.4-21.6c-0.5-1-0.1-2.5-0.1-3.8
		c-0.6-11.4,0.5-23.3-7.4-33.2c-1.5,1.3-0.9,3.4-2,5.8c-1.1-2.8-1.6-4.7-3.8-6.2c-2.4-1.8-1-5.8-1.1-8.9c-0.1-3.3-1.3-7.2-4.1-7.2
		c-3,0-2.3-1.8-3.3-2.8c-2.2-2.2-3-6.3-6.7-6.3c-0.3,0-0.5,0-0.9,0.1c-0.8,0.1-1.4,0.4-2,0.4c-0.5,0-0.9-0.1-1.3-0.8
		c-0.6-0.8-0.4-1.9,0.3-2.7c0.6-0.8,1.4-1.1,2.2-1.1c0.6,0,1.1,0.1,1.6,0.5c1.5,1,2.9,2.4,4.3,3.7c0.4,0.4,0.9,0.6,1.3,0.6
		c0.3,0,0.5-0.1,0.9-0.3c0.6-0.4,0.8-1.3,0.4-1.6c-3-3.4-5.6-8.1-9.4-9.6c-4.4-1.9-5.1-4.3-4.9-8.1c0.1-3-2.2-7-3.4-7.5
		c-5.1-1.9-6.9-6-8.8-10.1c-0.3-0.6-0.4-1.4-1.4-1.4h-0.1c-0.4,0-0.6,0-1,0c-5.5,0-7.1-2.5-5.6-8.4c2.3,1.9,2.2,5.1,4.2,7
		c-1.1-10.4-4.7-19.8-11.5-27.7c0.5-0.4,1-0.5,1.3-0.5c0.9,0,1.3,1,2,1c0.3,0,0.4-0.1,0.8-0.3c-0.9-2.5-1.6-5.2-2.5-7.7
		c-0.1-0.5-0.3-0.9-0.4-1.4c-0.6-1.5-1.8-2.7-3.4-3c-0.1,0-0.4,0-0.5,0c-1.3,0-2.8,0.8-2.7,1.4c0.3,3.6-1.8,3.7-4.3,3.9
		c-0.4,0-0.8,0.1-1.3,0.1c-2.3,0-4.1-0.9-5.6-2.7c-0.8-0.9-1.4-1.5-2.3-1.5c-0.5,0-1.1,0.3-1.8,0.8c-0.3,0.3-0.6,0.4-1,0.4
		s-0.9-0.1-1-0.6c-0.4-0.8,0.3-1.5,0.8-2.2c0.8-0.8,1.5-1,2.2-1c1.8,0,3.4,1.5,5.3,1.8c-0.5-2.4-2.9-4.6,0.3-6.2c0.1,0,0.3,0,0.3,0
		c0.9,0,1.3-0.4,0.9-1.4c0.3-1.9-3.3-2.5-2.3-3.4c3.3-3,0.4-4.7-1.3-6c-4.4-3.4-6.6-8.5-10.3-12.6c-4.2-4.7-9.8-8.2-12.8-14
		c-0.3-0.5-0.8-1.1-1.4-1.1c-0.4,0-0.8,0.1-1.3,0.6c-1.9,1.8-3,2.7-3.7,2.7c-0.9,0-1.1-1.3-1.8-4.2c0-0.3-0.5-0.3-0.8-0.5
		C561.7,188.3,561.3,188.3,560.9,188.3L560.9,188.3z"/>
</g>
<g>
	<path class="st1" d="M466.8,241.7L466.8,241.7L466.8,241.7 M465,242.8c1.4,0.4,2.8,0.5,4.1,0.6c0.4,0,0.8,0.1,1.1,0.1l0.4,0.1
		c0.5,0.1,1.3,0.3,1.6,0.4c0.1,0.6,0.3,1.3,0.1,2.2c-0.1,1.1-1,2.3-2.4,3.7c-0.1,0.1-0.4,0.4-0.5,0.5c-1,0.9-2.4,2.2-3.2,4.3
		c-0.8,1.9-0.5,3.7-0.4,4.9c0,0.1,0,0.3,0,0.4c0.1,1.9,0.8,3.4,1.3,4.4c0.1,0.1,0.1,0.4,0.3,0.5v0.1v0.1c0,0.1,0.1,0.3,0.1,0.4
		c0.4,1.9,1,4.1,2.4,6.1c0,0.1,0.1,0.1,0.1,0.3c0.3,0.5,0.6,1.3,1.3,2.2l0.3,0.3l0.3,0.3c1.3,1.1,2.8,1.8,4.4,1.8
		c0.8,0,1.3-0.1,1.8-0.1c1.1,0.6,2.2,1,3,1.3c0.4,0.1,0.6,0.3,1,0.4c6.3,3.4,12.8,5.5,20.2,7.5c2,0.6,3.7,1.3,5.1,2.3l0,0
		c1.3,1.3,3,3.2,5.8,3.8l0.3,0.1h0.3c0.4,0,0.6,0.1,0.8,0.1v0.1l0.1,0.3c0,0.1,0.1,0.6,0.1,1c0.1,1.8,0.3,5.1,3.4,7.4l0.3,0.3
		l0.4,0.1c1.9,1,2.8,2.5,3.3,6.3c-0.4,2.7,0.1,5.1,1.6,7.2c0,0.1,0.1,0.3,0.1,0.4c0.4,1,1,2.5,2.4,3.9l0.1,0.1l0.1,0.1
		c1.9,1.5,2.9,3.3,3.2,5.5c-0.1,2.4,0.5,4.7,2.2,7c0.4,0.6,0.6,1.4,0.9,2.2c0.3,0.6,0.3,1.4,0.3,2.2c-0.5,2.9-0.4,5.8,0.5,8.6
		c0.1,0.6,0.1,1.4-0.1,2.2c-0.4,1-0.5,1.9-0.8,2.7c-0.6,0.3-1.5,0.8-2.3,1.5c-0.1,0.1-0.4,0.3-0.5,0.5l-0.1,0.1
		c-2.5,0.1-4.7,1.5-5.7,3.8c-1.1-0.9-2.7-2-4.8-2l0,0c-1.5,0-3.9,0.6-6,3.6l-0.3,0.4l-0.1,0.5c-0.1,0.4-0.4,0.9-0.5,1.4
		c-0.3,0.6-0.6,1.5-0.8,1.8c-3.2,1.1-5.7,3-7.9,4.7c-0.9,0.8-1.8,1.4-2.7,2l0,0c-0.6-0.5-1.3-1-2-1.5c-0.1-0.1-0.1-0.1-0.1-0.1
		c-0.8-0.9-2.3-2.4-4.7-2.4c-0.6,0-1.3,0.1-1.8,0.4c-1.4,0.5-3.3,0.8-5.2,0.9c-2.8,0.3-6,0.5-8.8,2c-3.3,1.8-6.6,2-10.4,2.2
		c-0.1,0-0.3,0-0.4,0c-2.8-9.3-5.2-18.3-5.3-26.9c-0.1-13.4-4.1-25.5-8.1-37.2c0.3,0,0.4,0,0.6,0c4.4,0,6.6-2.5,7.5-4.1
		c0.8-1.3,2.8-5.8-2.7-10.3l0,0c0-0.1,0.1-0.3,0.1-0.4c2.4-4.1,1.4-8.1,0.8-10.3l-0.1-0.6c-0.8-2.9-1.3-4.8-0.4-6.9
		c1.8-4.2,1.6-8.9,1.6-12.9v-1c0-1.9,0.5-3.8,1-6c0.6-2.4,1.3-5.1,1.3-8.1C464.4,243.2,464.7,243.1,465,242.8 M478.7,276.1
		L478.7,276.1L478.7,276.1 M464.7,238c-0.4,0-0.8,0.1-1.1,0.4c-1.8,1-4.3,2.2-4.2,4.2c0.4,5.2-2.2,9.8-2.2,14.8
		c0,4.1,0.3,8.6-1.3,12.2c-1.6,3.9-0.5,7.2,0.4,10.5c0.6,2.5,1,4.6-0.3,6.7c-1.4,2.4-1.5,4.2,0.9,6.2c1.1,1,2.7,2.5,1.5,4.6
		c-0.9,1.4-2.2,1.9-3.7,1.9c-0.5,0-1,0-1.5-0.1c-1.5-0.3-2.9-1-4.4-1.4c-0.3-0.1-0.4-0.3-0.5-0.3c-0.3,0-0.5,0.1-0.6,0.4
		c0,0.4,0,0.6,0.1,1c4.8,13.7,9.9,27,10,42.2c0.1,10.5,3.3,21.2,6.6,31.6c5.5-0.5,10.9,0.1,16.4-2.9c3.6-2,8.9-0.9,13.3-2.5
		c0.1,0,0.1,0,0.3,0c0.6,0,1.4,1,2,1.6c1.3,0.9,2.4,2,3.7,2.8c0.4,0.1,0.6,0.1,1,0.1c0.4,0,0.6,0,1-0.1c3.9-2.2,7-5.7,11.3-7.2
		c2.5-1,3-3.4,3.9-5.6c0.9-1.1,1.6-1.6,2.3-1.6c1.3,0,2.4,1.5,3.7,2.4c0.5,0.1,1,0.3,1.5,0.3c1.3,0,2.4-0.6,3.2-1.9
		c0.3-0.4,0.4-0.8,0.6-1.1c0.4-1,1.1-1.4,2-1.4c0.1,0,0.1,0,0.3,0c1.4,0,2.2-1,3-1.9c0.9-0.9,2.3-0.9,3.2-1.8c0.5-1.4,0.5-2.9,1-4.3
		c0.4-1.5,0.5-3.2,0.1-4.8c-0.8-2.2-0.9-4.4-0.4-6.7c0.1-1.4,0-2.8-0.4-4.2c-0.4-1-0.8-2-1.3-3c-1-1.4-1.6-2.8-1.4-4.6
		c-0.3-3.8-1.9-6.7-4.8-9c-1-0.9-1.1-2.2-1.8-3.3c-1.1-1.4-1.4-2.9-1-4.7c-0.5-4.3-1.5-8.4-6-10.7c-2.3-1.6-1-4.4-2-6.6
		c-0.8-2.2-2.5-2.8-4.6-2.9c-1.8-0.4-2.8-1.6-3.9-2.8c-2-1.5-4.3-2.5-6.9-3.2c-6.7-1.9-13.3-3.8-19.4-7.2c-1.4-0.5-2.8-0.9-4.1-1.6
		c-0.5-0.3-1-0.5-1.6-0.5h-0.1c-0.6,0-1.3,0.3-1.9,0.3c-0.5,0-0.9-0.1-1.4-0.5c-0.5-0.6-0.8-1.4-1.1-2c-1.1-1.4-1.5-3-1.9-4.8
		c-0.1-0.4-0.3-0.8-0.5-1.3c-0.5-1.1-1.1-2.2-1.1-3.4c-0.1-1.1-0.4-2.3,0-3.4c0.5-1.4,1.6-2.2,2.7-3.2c1.8-1.8,3.4-3.8,3.7-6.5
		c0.1-1.5,0-2.9-0.5-4.4c-1-2.4-3.3-2.7-5.5-3.2C468.8,238.9,466.8,238.9,464.7,238C464.9,238,464.7,238,464.7,238L464.7,238z"/>
</g>
<g>
	<path class="st1" d="M510.9,143.6c1.9,0,4.1,0.5,6.7,1.5c0.4,0.1,0.9,0.4,1.3,0.5c1.6,0.8,3.6,1.6,6.1,1.6c1,0,2-0.1,3-0.5
		c1.3,0.9,2.5,1.8,3.8,2.7c2.2,1.4,4.3,2.8,6.1,4.4c-0.3,0.5-0.4,1-0.5,1.4c-0.3,1.3-0.4,3.8,2.5,6.1c1.4,1.1,2.9,2.3,4.3,3.3
		c0.5,0.4,1.1,0.9,1.6,1.3c0.3,0.1,0.4,0.4,0.6,0.5l-5.8-0.3l7.9,8.1c1.8,1.8,3.6,2.9,5.1,3.9c0.9,0.5,1.5,1,2,1.4l-2.9,1.8l1.1,3.4
		c0.3,0.8,0.6,1.4,1,2c-0.4,0.1-0.9,0.1-1.3,0.3c-1.5,0.3-3.7,0.6-5.6,1.9c-2.8,0.8-4.7,2.9-5.2,5.7c-0.3,0.1-0.6,0.4-1,0.6
		c-0.9,0.4-1.6,0.9-2.4,1.4c-0.8,0.5-1.5,0.9-1.9,1h-0.4c-1.9,0.1-4.8,0.4-7.4,2.7l-3.7,3.4l3.7,3.3c0.4,0.4,0.8,0.6,1.1,1
		c0.4,0.3,0.8,0.6,1.1,1c-1.1,1.1-2.7,2.7-3.3,5.3c-0.4,2-2,3.4-4.7,5.5c-0.4,0.3-0.6,0.5-1,0.8c-0.3,0-0.8-0.1-1-0.1
		c-1.5-0.3-2.8-0.4-3.8-0.4c-6.3,0-8.6,4.9-9.9,7.6c-0.3,0.5-0.4,1-0.6,1.5c-0.8,1.8-1.3,2.8-2,3.3l-0.1,0.1l-0.1,0.1
		c-0.4,0.3-0.6,0.5-0.8,0.5c-1-0.8-1.9-1.8-2.9-3c-0.8-0.9-1.6-1.9-2.8-2.9c-0.5-2.9-2-4.7-4.7-5.3l-1.5-0.4l-1.4,0.6
		c-1.8,0.8-3.7,1.3-6.1,1.8c-1.8,0.3-3.7,0.4-5.5,0.4c-0.3,0-0.6,0-1-0.1l-0.9-0.1l-0.9,0.1c-2.3,0.5-3.6,1.8-4.1,2.7
		c-1.1,1.9-0.8,3.8-0.6,4.8l0,0l0.1,0.8c0.1,0.6,0.1,1.3,0.1,2c0,0.5,0.1,0.9,0.1,1.4c-1.4-0.9-2.9-1-3.9-1.1
		c0.1-0.4,0.1-0.8,0.3-1.1c0.8-2.7,1.5-5.6,1.1-9c-0.4-3.6-1.1-7-1.9-10.1c-1-4.2-1.9-8.1-1.8-12.2c0,0,0,0,0-0.1
		c1.6-1.1,2.9-2.5,4.1-3.7c1.1-1.3,2.2-2.3,3.2-2.8c1.8-0.8,3.8-2.4,4.2-4.8c0.5-2.8,1.4-5.5,2.3-8.4c1.8-5.8,3.7-11.9,3.2-18.9
		c-0.1-2.2-0.5-7.1-6.3-8.6c-0.4-0.1-0.5-0.6-0.6-1.3c0.3-0.1,0.5-0.1,0.8-0.1c4.3-0.5,6.6-3.3,8-5.2c0.6-0.8,1.1-1.5,1.6-1.8
		c0.8-0.4,1.4-0.9,1.8-1.5c0.3,0.5,0.5,0.9,0.9,1.4c1.3,1.4,3,2.2,5.1,2.2c0.9,0,1.8-0.1,2.7-0.4l0.9-0.3c2.2-0.6,4.7-1.4,7-2.9
		C507.1,144.1,508.9,143.6,510.9,143.6 M530,145.8L530,145.8L530,145.8 M476.4,153.1L476.4,153.1L476.4,153.1 M554.1,164.3
		L554.1,164.3L554.1,164.3 M473,131.3c-0.5,0-1.1,0.1-1.8,0.6c1.4,1.8,3.6,2.3,5.3,3.2c2.7,1.4,5.5,2.7,7.4,5.2
		c0.6,0.8,2.2,1.9,0.9,2.7c-3,1.6-3.9,6-8,6.3c-2.2,0.3-4.8,1.3-4.8,3.8c0,2.7,0.8,5.6,3.9,6.5c2.5,0.8,2.8,2.4,3,4.7
		c0.8,9.1-3.7,17.4-5.3,26c-0.1,0.6-1,1.3-1.6,1.6c-3.9,1.8-5.5,6.2-9.5,7.9c-1.6,0.6-0.3,1.8-0.3,2.8c-0.1,7.9,3,15.1,3.8,22.8
		c0.4,4.7-2,8.6-2.2,13.1c0.4,0,0.9,0,1.3,0c1.5,1.8,4.1,0.4,5.7,1.6c1.4,1.1,3.9-0.1,4.8,2.3c0.3,0.3,0.5,0.4,0.8,0.4
		c0.1,0,0.4-0.1,0.6-0.1c0.8-0.8,1.1-1.5,1-2.7c-0.5-2.5-0.5-5.1-0.8-7.5c0.4-1.3-1.5-3,1-3.6c0.6,0.1,1.3,0.1,1.9,0.1l0,0
		c2,0,4.2-0.3,6.2-0.5c2.4-0.5,4.8-1.1,7.2-2.2c1.9,0.5,1,2.5,1.9,3.6c2.9,2.4,4.7,5.8,8.1,7.7c0.5,0.1,0.9,0.3,1.3,0.3
		c1.4,0,2.7-0.8,3.8-1.6c2.4-1.6,3-4.3,4.2-6.7c1.6-3.7,2.9-4.9,5.7-4.9c0.9,0,1.9,0.1,3,0.4c0.6,0.1,1.3,0.1,1.8,0.1
		c1,0,1.9-0.3,2.7-0.9c3-2.4,6.5-4.7,7.4-8.9c0.5-2.2,2.7-3.3,3.7-5.1c0.5-3.4-2.2-4.8-4.2-6.6c1.5-1.4,3.3-1.3,5.2-1.5
		c2.4-0.4,4.1-2.2,6.2-3c1-1,2.8-1.3,3-3c0-1.8,1-2.8,2.7-2.9c2.2-1.8,5.1-1.4,7.5-2.4c1.5-0.8,3-1.4,4.6-2.2c0.1-2.7-3-3-3.7-5.2
		c0.3-0.1,0.5-0.3,0.8-0.3c0.8,0,1.6,0.5,2.3,0.5c0.4,0,0.6-0.1,0.9-0.5c1.1-1.6-1-2.7-1.5-4.1c-1.4-3.7-5.6-4.4-8.9-7.9
		c0.3,0,0.5,0,0.8,0c4.9,0,3-2.3,1.8-4.3c-1-1.8-2-3.6-3-5.3c-0.1-0.1-0.3-0.1-0.4-0.1c-0.6,0-0.9,1.4-1.5,1.4
		c-0.1,0-0.4-0.1-0.6-0.3c-2-1.5-4.1-3-6-4.6c-1.3-1-1.5-2,0.5-2.5c0.1,0,0.3,0,0.4,0c0.8,0,0.9-0.5,0.6-1.3
		c-3.8-5.1-9.6-7.7-14.6-11.5c-0.5-0.4-1.3-0.8-1.8-0.8c-0.1,0-0.3,0-0.4,0.1c-1,0.5-1.9,0.8-2.7,0.8c-2,0-3.9-1.1-5.7-1.9
		c-2.8-1-5.6-1.8-8.4-1.8c-2.7,0-5.3,0.8-8.1,2.4c-1.9,1.3-4.4,1.9-6.6,2.5c-0.5,0.1-1,0.3-1.4,0.3c-1.4,0-2.4-0.8-2.2-2.5
		c0.4-3.8-2.5-4.8-4.8-5.2c-4.2-0.8-7.9-2.4-11.7-4.1C475.2,132,474,131.3,473,131.3L473,131.3z"/>
</g>
<g>
	<path class="st1" d="M649.6,436.8c0.4,0.3,0.8,0.5,1.1,0.8c1.3,1.1,2.8,1.8,3.9,2.2c-1.9,2.8-4.7,5.2-8.9,7.7
		c-5.6,3.3-10,7.7-14.3,11.9c-1.1,1.1-2.3,2.2-3.4,3.3c-4.6,4.3-9.5,7-14.2,7.9c-3.7,0.8-6,2.4-7.9,3.8c-0.5,0.4-0.9,0.8-1.4,1
		c-3.6,2.4-7.7,3.6-12.1,4.8c-2.8,0.8-5.6,1.6-8.5,2.8l-1.5,0.6c-7.2,2.9-14.6,5.8-20.4,12.2c-0.8,0.8-0.9,0.8-1,0.8h-0.1
		c-0.3,0-0.6,0-0.9,0c-1.5,0-2.8,0.4-3.8,1.4c-2,1.8-4.2,2-8,2c-0.4,0-0.9,0-1.4,0c-0.5,0-1,0-1.4,0c-1,0-2.5,0-3.9,0.1
		c-0.4,0-0.6,0.1-1,0.1l0,0c-4.1-1.3-8.2-2.2-12.3-2.9c-5.3-1-10.4-2.2-15.2-4.2c-2.4-1-4.4-3.2-6.5-5.5c-0.5-0.5-1-1-1.4-1.5
		c-6-6.2-9-13.8-11.7-22.2c1.3,0.5,2.5,0.9,4.1,1c0.1,0.1,0.5,0.4,0.8,0.5c0.6,0.4,1.3,0.9,2.2,1.3c1.1,0.5,2.3,0.8,3.6,0.8
		c1,0,1.9-0.1,2.5-0.3c0.4,0.1,0.9,0.1,1.4,0.1c1.3,0,2.5-0.4,3.6-1.1c0.1,0,0.3,0,0.4,0c0.1,0,0.4,0,0.5,0c0.3,0.1,0.6,0.4,1.1,0.9
		c1,1.1,2.5,1.8,3.9,1.8c1.6,0,3.3-0.9,4.1-2.4c0.9-1.6,0.6-3.3,0.4-4.2c0.1-1,0.6-1.4,3.6-2.2c0.3,0.1,0.5,0.3,0.8,0.4
		c0.3,0.1,0.5,0.3,0.8,0.4h0.1h0.1c0.3,0.1,0.5,0.3,0.8,0.4c1.5,0.8,3,1.1,4.8,1.1c0.1,0,0.1,0,0.3,0c1.8,1,3.6,1.5,5.3,1.6
		c0.3,0,0.5,0,0.8,0c2.4,0,4.2-1,5.6-1.8c0.1-0.1,0.3-0.1,0.5-0.3c0.6-0.3,1.3-0.4,2-0.5c0.1,0,0.3,0,0.4-0.1
		c1.3,2.9,4.2,3.6,5.2,3.8h0.1c0.1,0.1,0.4,0.5,0.6,0.8c1.1,1.5,3.3,4.2,7.4,4.2l0,0c1.6,0,3.4,0.1,4.9,0.6c1.8,1,3.8,1.5,6.2,1.5
		c1.4,0,2.7-0.1,3.8-0.4c0,0,0,0,0.1,0.1c0.5,0.4,1,0.9,1.6,1.3c1.8,1.1,3.6,1.3,4.7,1.4c0.3,0,0.5,0,0.8,0.1l2.2,0.4l1.5-1.4
		c1.1-1,3.4-3.8,1-8c0.3-0.1,0.5-0.4,0.8-0.5c1.8-0.4,5.1-1.3,6.6-4.9l0.8-1.6l-0.6-1.6c-0.1-0.3-0.1-0.5-0.3-0.6
		c0.5-0.3,1.3-0.5,1.9-0.8c0.6-0.3,1.1-0.4,1.8-0.6h0.1h0.1c0.1-0.1,0.4-0.1,0.9-0.1c0.5,0,1.1,0.1,1.8,0.1h0.1
		c0.4,0.1,0.8,0.1,1.3,0.1c3.8,0.5,6,1,7.6,3c1.8,2.3,3.9,2.7,5.3,2.7c2.5,0,4.3-1.5,5.5-2.4c0.1-0.1,0.4-0.4,0.6-0.5l0,0l0.4-0.1
		c0.3-0.1,0.8-0.3,1.1-0.4c1-0.3,2.3-0.6,3.6-1.4c1.3-0.4,2.4-0.9,3.3-1.3c0.4-0.3,0.9-0.4,1.1-0.5c0.8-0.1,1.3-0.4,1.9-0.5
		c0.8-0.1,1.4-0.4,2-0.5c4.9,0,6.9-3.3,7-6.2v-0.5l-0.1-0.5c-0.3-1.8-0.1-2.4,0.1-2.8c0.3-0.1,0.5-0.4,0.8-0.5c0.6-0.4,1.4-1,2-1.6
		c0.6-0.6,1-1.1,1.4-1.6c0.3-0.3,0.5-0.6,0.6-0.8c0.9-0.4,1.6-0.8,2.4-1.3C649.2,437,649.5,436.9,649.6,436.8 M621.4,457.7
		L621.4,457.7L621.4,457.7 M650.7,431.7c-2.4,0-4.1,1.8-6.2,2.5c-1.4,0.8-2,2.2-3.2,3.2c-0.9,0.9-2,1.5-2.9,2.4
		c-1.6,2-1.6,4.3-1.1,6.6c-0.1,1.8-1.3,2-2.5,2c-0.1,0-0.1,0-0.3,0c-1.6,0.3-3.3,0.9-4.9,1.1c-1.8,0.6-3.3,1.6-5.1,2
		c-1.4,1.1-3,1.3-4.6,1.9c-1.6,0.4-3,2.7-4.6,2.7c-0.5,0-1.1-0.3-1.8-1c-3.2-3.9-7.5-4.2-11.8-4.8c-0.8-0.1-1.6-0.1-2.4-0.1
		c-1,0-1.9,0.1-2.8,0.5c-3.6,1.4-8.2,2-6.1,7.9c-0.8,1.8-2.4,2-3.9,2.3c-1.5,0.9-3.2,1.6-3.8,3.4c-0.1,0.6-0.1,1.3,0,2
		c-0.1,1.4,2.3,2.4,0.5,4.1c-1.3-0.1-2.5-0.1-3.7-0.8c-1.3-0.8-2-2.2-3.7-2.2h-0.1c-1.4,0.3-2.8,0.5-4.2,0.5c-1.5,0-2.9-0.3-4.3-1.1
		c-2.2-0.8-4.4-1-6.9-1h-0.1c-3,0-3.6-3.3-5.8-4.4c-1.3-0.6-3-0.3-3.4-2.2c-0.5-1.5-1.5-2.4-3.2-2.4c-0.1,0-0.4,0-0.5,0
		c-1.5,0.4-3,0.6-4.6,1.3c-1.4,0.8-2.5,1.6-4.2,1.6c-0.1,0-0.3,0-0.4,0c-1.4-0.1-2.7-0.6-3.9-1.4c-0.4-0.1-0.8-0.3-1.1-0.3
		c-0.3,0-0.5,0-0.8,0c-1,0-1.9-0.3-2.7-0.6c-0.4-0.1-0.8-0.4-1.1-0.5c-1.1-0.5-2.3-1.1-3.6-1.1h-0.1c-6,1.5-7.6,3-7.9,7.2
		c0.1,0.5,0.5,1,0.3,1.5h-0.1c-0.1,0-0.4-0.1-0.6-0.3c-1-1.1-2.2-2-3.8-2.3c-0.4,0-0.8-0.1-1.1-0.1c-0.9,0-1.8,0.1-2.7,0.5
		c-0.3,0.5-0.8,0.6-1.1,0.6c-0.5,0-1-0.3-1.5-0.3l0,0c-0.9,0.1-1.6,0.4-2.5,0.4c-0.5,0-1-0.1-1.6-0.4c-1.4-0.8-2.5-2-4.2-2.3l0,0
		c-1.4,0-2.7-0.4-3.8-1.1c-0.6-0.5-1.4-0.8-2.3-0.9c-1.4-0.1-2.8-0.8-4.2-1l0,0c-0.4,0-0.8,0.1-1,0.5c3.4,11.3,6.6,22.7,15,31.6
		c2.8,2.9,5.5,6.2,9.4,8c9.1,3.9,19,4.3,28.4,7.5c0.1,0.1,0.4,0.1,0.6,0.1c0.5,0,1.1-0.1,1.8-0.3c1.1-0.1,2.3-0.1,3.4-0.1
		c0.9,0,1.8,0,2.8,0c3.8,0,7.7-0.3,11-3.2c0.1-0.1,0.5-0.3,0.8-0.3c0.3,0,0.4,0,0.6,0c0.1,0,0.4,0,0.5,0c1.8,0,3-0.8,4.3-2.3
		c5.6-6,12.9-8.8,20.4-11.7c7.1-2.9,14.8-3.7,21.3-8c2.4-1.5,4.1-3.4,7.6-4.1c6.1-1.1,11.7-4.6,16.5-9c5.5-5.1,10.5-10.8,17-14.6
		c5.2-3,9.6-6.7,12.2-12.3c-0.6-3.9-5.1-2.8-6.9-5.2c-1-0.4-1.8-0.9-2.3-1.9C651,431.8,650.8,431.7,650.7,431.7L650.7,431.7z"/>
</g>
<g>
	<path class="st1" d="M496.7,369.2L496.7,369.2L496.7,369.2 M492.5,371.5l2.3,1.1c0.6,0.4,1.1,0.8,1.6,1.4l0.8,1
		c-0.3,0.4-0.5,0.8-1,1.3c-0.9,0.8-2.7,2.7-2.5,5.5c0.1,1.3,0.6,3,2.7,4.7l0.1,0.1h0.1c0.4,0.3,0.6,0.4,1,0.6
		c-0.4,0.9-0.5,1.9-0.4,3c0,0.4,0,0.6,0,1c0,0.8,0,1.5-0.1,2.3v0.4v0.4c0,0.4,0,0.6,0,1c0,1.8,0,6.2,4.3,8.2
		c-0.1,0.6-0.3,1.3-0.4,1.9c-1.6,4.3-0.9,8.4-0.4,11.5c0.3,1.6,0.6,3.3,0.5,4.7v0.4v0.4c0,0.3,0,0.5,0.1,0.8
		c0.1,1.4,0.3,3.3,1.4,5.2c0.6,1,1,1.8,1.3,2.4c1,2,2.4,3.3,3.7,4.3c0.3,0.1,0.4,0.4,0.6,0.5c1.1,1.6,2.7,2.8,3.8,3.8
		c0.5,0.4,1.1,0.9,1.5,1.3c-0.1,1.3-0.3,3.8,1.9,6.1c0.5,0.5,1,1.1,1.5,1.6c1.5,1.6,2.8,3.2,3.8,4.8c-2,0.8-4.9,2.2-6.5,5.1
		c-1.1-0.4-2.3-0.5-3.3-0.5c-1.4,0-2.8,0.4-4.1,1c-0.1,0-0.4,0-0.5,0c-0.4,0-0.6,0-1,0.1l-0.5,0.1l-0.5,0.3
		c-0.5,0.3-0.8,0.3-0.9,0.3l-1.4-1l-2-1.3l-0.3-0.1l-0.3-0.1c-1.4-0.6-2.7-0.8-3.6-0.8c-0.8-0.6-1.8-1-2.8-1.1l-0.1-0.1
		c-0.9-0.5-2.2-1.4-3.9-1.5c-0.3-0.5-0.3-0.8-0.3-1c0.6-3.6-0.9-6.5-2-8.9c-0.3-0.5-0.4-0.9-0.6-1.4c-1.4-3.2-2.9-6.3-4.4-9.4
		c-2.7-5.5-5.3-10.7-7.1-16.2c-1.6-5.5-2-9.9-1.1-14.1c0.9-3.8-0.6-7-1.6-9.3c-0.4-0.9-0.8-1.6-1-2.4c0-0.1,0-0.1-0.1-0.3
		c1.4-1.3,2.3-3.2,2.3-5.5c0.1-2.3-0.8-5.6-3.4-7.2c-0.5-0.3-0.6-0.4-0.8-1.5c0.5-0.1,1-0.3,1.4-0.3c0.3,0,0.5,0,0.8,0.1
		c0.8,0.1,1.4,0.3,2.2,0.3c3.7,0,6.6-1.9,8.6-3.3c0.8-0.6,2.4-0.6,4.2-0.6C488,372.2,490.2,372.2,492.5,371.5 M494.2,365.6
		c-0.1,0-0.3,0-0.4,0.1c-4.4,3.7-10.5,0.5-14.7,3.6c-2,1.4-3.9,2.4-6,2.4c-0.4,0-0.8,0-1.3-0.1s-1.1-0.1-1.6-0.1
		c-2.2,0-3.9,0.9-6,1.5c0.1,3-0.8,6.3,2.8,8.6c1.5,0.9,1.9,4.7,0.1,5.6c-2.8,1.5-1.5,2.9-1,4.7c0.9,3.2,3.3,6.1,2.5,9.5
		c-1.3,5.7-0.5,11,1.3,16.5c2.9,9.1,7.9,17.4,11.7,26c1.1,2.5,2.8,4.9,2.3,7.6c-0.5,2.8,1,4.4,2.4,6.3c0.4,0,0.6,0,1,0
		c0.1,0,0.3,0,0.4,0c1.5,0,2.5,1.1,3.8,1.6c0.1,0,0.1,0,0.3,0c0.6,0,1.1,0.1,1.5,0.8c1.3,0.8,2.7,0.1,3.9,0.6
		c1.3,0.9,2.7,1.8,3.9,2.7c0.6,0.3,1.3,0.4,1.9,0.4c0.9,0,1.8-0.3,2.7-0.6h0.1c0.4,0,0.9,0.4,1.3,0.4c0.3,0,0.4-0.1,0.6-0.4
		c0.9-0.8,1.8-1,2.7-1c0.8,0,1.5,0.1,2.3,0.4c1.3,0.6,2.3,1.4,2.9,2.7c0.4,0.1,0.8,0.1,1.1,0.1c1.3,0,1.4-0.8,0.6-2.4
		c-0.3-5.1,4.1-5.3,7.2-6.9c0.4-0.5,1-0.8,1.3-1.5c-1.3-4.6-4.7-7.7-7.6-11.2c-1.4-1.3-0.3-3-0.9-4.6c-1.4-2.7-4.7-3.7-6.1-6.2
		c-1.3-1.3-2.9-2.3-3.8-4.1c-0.5-0.9-1-1.8-1.5-2.7c-0.8-1.3-0.8-2.8-0.9-4.2c0.1-5.1-2.5-10.1-0.4-15.2c0.1-1.8,1-3.4,1-5.2
		c-0.4-1-1.1-1.3-2-1.5c-3.2-0.9-2.5-3.6-2.7-5.8c0.1-1.3,0.1-2.5,0.1-3.8c-0.3-2.2,2-3,2.4-4.9c-1-2.2-3.4-1.3-4.9-2.3
		c-1.6-1.3-0.8-2.4,0.3-3.4c2.3-2.3,3.4-4.9,2.4-8.2c-0.6,0-1.3,0.1-1.8,0.1c-0.9-1.1-1.9-2-3.2-2.7
		C496.7,366.9,495.1,365.6,494.2,365.6L494.2,365.6z"/>
</g>
<g>
	<path class="st1" d="M471.7,112.7c1,2.5,3.7,5.3,9.8,5.3h0.5h0.3c1,0,1.4,0.3,2.9,1.5c0.3,0.3,0.6,0.5,0.9,0.8
		c0.4,0.4,0.9,0.8,1.3,1.1c-0.1,0-0.3-0.1-0.4-0.1c-0.1,0-0.1-0.1-0.3-0.1c-0.8-0.4-2-1.1-3.7-1.1c-1.8,0-3.3,0.8-4.4,2.2
		c-0.1,0.3-0.4,0.5-0.6,0.9c-0.3,0-0.5-0.1-0.8-0.1l0,0c-0.9,0-1.9,0.1-2.8,0.9c-1.6-0.8-3.3-1.6-5.1-2.7c-2.5-1.4-5.1-2.9-8-3.9
		c-0.1-0.3-0.4-0.8-0.5-1.1c-0.1-0.3-0.3-0.6-0.4-1c1.1-1.4,1.8-2,2.4-2.2c2.4-0.3,4.8-0.4,7.5-0.5
		C470.7,112.7,471.2,112.7,471.7,112.7 M473.8,108.1c-0.1,0-0.4,0-0.5,0c-3.7,0.1-7.4,0.1-10.9,0.6c-3.7,0.4-5.1,4.1-7.5,6.1
		c2.2,1.8,2,5.8,4.8,6.7c5.6,1.9,10.1,5.8,15.9,7.6c0.1,0.1,0.3,0.1,0.4,0.1c0.8,0,0.8-1.6,1.5-1.6c0.1,0,0.4,0.1,0.8,0.4
		c1.8,0.9,3.3,2.5,5.5,2.5c0.1,0,0.1,0,0.3,0c0.4-0.9,0.3-1.4-0.4-1.9c-1.1-1-2.4-2.2-1.3-3.6c0.3-0.4,0.6-0.5,1-0.5
		c0.8,0,1.6,0.8,2.5,1c5.5,1.5,10.1,4.4,14.6,7.9c1.3,1,2.4,2,4.1,2c0.1,0,0.4,0,0.6,0c1.3-0.1,2.5-0.3,3.7-0.3
		c3.9,0,7.7,0.9,11.4,2.3c0.1,0,0.4,0.1,0.5,0.1c0.6,0,0.8-0.4,0.5-1.1c-4.1-2.5-7.1-6.9-12.4-6.9c-0.1,0-0.4,0-0.5,0
		c-1.1-1-2.7-1.3-4.2-1.3c-6.6-1.6-10-7.5-15-11.4c-2-1.6-3.4-3.3-6.7-3.3c0,0,0,0-0.1,0c-0.3,0-0.4,0-0.6,0c-2.2,0-5.8-0.3-6-4.3
		C475.4,108.2,474.6,108.1,473.8,108.1L473.8,108.1z"/>
</g>
<g>
	<path class="st1" d="M484.7,106.3c-1.4,0-2.9,0.3-4.4,0.6c-1.1,0.3-2.5,0.5-2.7,1.6c-0.1,1.5,1.4,2,2.7,2
		c6.3,0.3,10.5,4.1,14.3,8.5c2.2,2.5,5.1,4.2,8.4,6.2c-0.3-2.8-2-3.7-3.2-4.8c-2.9-3.2-7-5.8-8.6-9.5
		C489.5,107.2,487.3,106.3,484.7,106.3L484.7,106.3z"/>
</g>
<g>
	<path class="st1" d="M451.6,272.8L451.6,272.8L451.6,272.8 M448.1,270.7c-0.3,0-0.5,0.1-0.8,0.6c-0.8,2.2-3.3,3.4-3,5.7
		c0.8,7.1-0.6,14.6,3.4,21.2c0.4-0.1,0.9-0.1,1.3-0.3c-1.4-2.2,1.9-4.6-0.4-6.7c-2-1.9-1.6-4.3-1-6.7c1-3.6,0.3-7.6,2.7-10.8
		c0.8-1,0.3-2.2-1-2.7C448.9,271,448.5,270.7,448.1,270.7L448.1,270.7z"/>
</g>
<g>
	<path class="st1" d="M441.8,184.3c-0.9,0-1.6,0.1-2.3,0.4c-0.5,0.1-1.1,0.6-1.4,1c-0.3,0.6,0.4,1.3,0.9,1.3
		c5.8,0,10.1,3.2,14.6,6.2c0.5,0.4,0.9,0.5,1.1,0.5c0.6,0,0.9-0.5,0.8-1.6c-0.9-1,0.1-1.5,0.8-2.2
		C453.8,187,446.4,184.3,441.8,184.3L441.8,184.3z"/>
</g>
<g>
	<path class="st1" d="M661.8,324.1c-0.3,0-0.5,0.1-0.8,0.4c1.5,2.8,1.1,5.7,1,8.8c-0.1,1.4,0.6,2.9,2,2.9c0.1,0,0.1,0,0.3,0
		c1.5-0.1,1.5-1.9,1-3.2c-1.1-2.9-0.9-6.2-2.9-8.9C662.1,324.1,661.9,324.1,661.8,324.1L661.8,324.1z"/>
</g>
<g>
	<path class="st1" d="M655.3,312.9c-0.5,5.2,2.5,8.5,5.7,11.7c0.4-0.1,0.9-0.1,1.3-0.3C660,320.5,657.6,316.7,655.3,312.9
		L655.3,312.9z"/>
</g>
<g>
	<path class="st1" d="M653.4,433.6c1.1,3.2,5.5,2.2,6.9,5.2c0.3-0.6,0.5-1.3,0.8-2C658.6,435.8,655.9,434.8,653.4,433.6L653.4,433.6
		z"/>
</g>
<g>
	<path class="st1" d="M507,131.6L507,131.6L507,131.6 M506.1,127.3c-0.6,0-1.4,0.4-2.2,1c1,0.9,2.2,1.4,3.4,1.4c0.3,0,0.5,0,0.8-0.1
		C507.6,128,507,127.3,506.1,127.3L506.1,127.3z"/>
</g>
<g>
	<path class="st1" d="M475.7,126.4c-0.3,0-0.4,0-0.6,0.1c-1.5,0.8,1.9,1.6,0.3,2.7c0.4,0.4,0.8,0.6,1,0.6c0.8,0,1-1.5,1.6-1.8
		C477.4,127.3,476.7,126.4,475.7,126.4L475.7,126.4z"/>
</g>
<g>
	<path class="st1" d="M544.4,154c-0.4,0.4-0.8,0.9-1.1,1.3c1.3,0.6,2.4,1.3,4.9,2.7C546.6,155.6,545.7,154.5,544.4,154L544.4,154z"
		/>
</g>
<g>
	<path class="st1" d="M550,159.6c-0.1,0-0.3,0-0.4,0c-1.5,0.4,0.4,2.2-0.9,2.7c0.5,0.5,0.8,0.8,1,0.8c0.8,0,0.9-1.4,1.5-1.6
		C551.1,160.6,550.9,159.6,550,159.6L550,159.6z"/>
</g>
<g>
	<path class="st1" d="M597.6,227c-0.4,0.5-0.8,0.9-1.3,1.4c1,0.5,0.8,2.4,2.3,2.4c0.1,0,0.1,0,0.1,0
		C599.5,229.1,598.7,228,597.6,227L597.6,227z"/>
</g>
<g>
	<path class="st1" d="M454.7,189.8c-0.4,0-0.6,0.1-0.8,0.5c-0.3,0.9,0.9,1.4,1.6,1.8c-0.3-0.9,2.2-1,0.8-2.2c-0.1,0-0.1,0-0.3,0
		C455.6,189.9,455.1,189.8,454.7,189.8L454.7,189.8z"/>
</g>
<g>
	<path class="st1" d="M521.1,136.5c-0.4,0.4-0.6,0.8-1,1.1c0.6,0.5,1.4,1.3,2.2,1.3c0.3,0,0.5-0.1,0.8-0.5
		C523.6,137.5,522,136.9,521.1,136.5L521.1,136.5z"/>
</g>
<g>
	<path class="st1" d="M550.8,200.8L550.8,200.8c0.4,0,0.6,0,0.9,0.1l0.1,0.1c0.3,0.1,0.4,0.1,0.6,0.3c3.6,1.8,4.6,2.7,4.7,3
		c0.1,0.3,0.1,1.3-0.8,4.9l-0.1,0.6v0.8c0,1,0.1,2.8,1.3,4.6c0.3,1.4,0.8,2.7,1.1,3.7c0.4,1.1,0.8,1.9,0.6,2.3
		c-1.5,3.2-0.8,6.2,2.2,9c0.1,0.1,0.3,0.3,0.4,0.4c1.5,3.4,3.6,6.6,5.8,9.5c-2.3,3-2.7,6.3-3,9.1c-0.1,0.8-0.1,1.4-0.3,2.2
		c-0.8,4.1,1.6,7.9,6,9.5l0.1,2.4l2.3,1.3c1.1,0.6,2.4,0.9,3.8,0.9c0.9,0,1.6-0.1,2.4-0.3c0.1,0,0.4,0,0.5-0.1l0.6,0.8l1.5,0.4
		c0.4,0.1,0.9,0.1,1.3,0.1c0.6,0,1.1-0.1,1.6-0.3c0.8,0.3,1.6,0.4,2.5,0.4c0.8,0,1.4-0.1,1.9-0.1c0.1,0,0.3,0,0.3,0
		c0.8,0.8,2.2,1.9,4.3,2c0,0.1,0,0.4,0,0.8c0,2.3,0.5,4.1,1.8,5.3c1,1,2.3,1.5,3.6,1.5c2.9,0,4.7-2.4,5.2-3.2l0.1-0.3v-0.1
		c0.1,0.9,0.1,1.9,0.1,2.9c0.1,2.9,0.3,6,1,9c0.1,1.6,0.8,3,1.3,4.2c-1.3,0.1-2.7,0.4-4.1,1.3l-1.3,0.8l-0.5,1.3l-0.4,1l-0.3,0.5
		c-1.9,2.5-2,5.2-2,7.1c0,0.6,0,1.4-0.1,1.6l-0.3,0.9v0.9c0,2.3,0.3,4.9,1.5,7.7c0.1,0.9,0.1,1.8,0.3,2.7c0,0.6,0.1,1.1,0.1,1.8
		c0,0.5,0,1.1,0.1,1.5c-0.3-0.1-0.5-0.1-0.9-0.3c-2.3-0.6-4.2-1-5.6-2.3c-2.3-2.2-5.2-3.3-8.1-3.3c-2,0-3.9,0.5-5.8,1.6l-0.3,0.1
		l-0.3,0.3c-0.1,0.1-0.8,0.3-1.1,0.4c-0.4,0.1-0.6,0.1-1,0.3c-1,0.1-2,0.4-2.8,0.5c-0.6,0.1-1.3,0.3-1.6,0.4h-0.1
		c-0.4,0-0.8-0.1-1.1-0.1c-2.4,0-4.4,1.3-5.5,3.3c-0.8,0.5-2.2,1-3.8,1c-0.3,0-0.5,0-0.8,0v-0.1c-0.1-0.5-0.4-1-0.5-1.5
		c-0.1-0.1-0.1-0.4-0.1-0.5c-0.1-0.9-0.4-1.5-0.6-2.2c-0.1-0.3-0.1-0.5-0.3-0.8c0.9-0.6,2.2-1.8,2.8-3.6c0.6-1.5,0.8-3,1-4.3
		c0-0.4,0.1-0.8,0.1-1.1c0.3-1.3,0.4-2.5,0.4-3.6c0-0.6,0-1.3,0.1-1.6l0,0v-0.1c0-0.1,0.3-0.5,0.4-0.8c0.4-0.8,1-1.9,1.3-3.3l1-4.6
		l-4.6-0.9c-0.9-0.1-1.8-0.3-2.5-0.3c-1.8-0.1-2-0.3-2.3-0.5c-1.1-1.5-2.9-2.4-4.7-2.4c-2.2,0-3.7,1.1-4.7,1.8
		c-0.1,0.1-0.3,0.1-0.4,0.3c-0.9,0.6-1.6,1.3-2.3,1.8c-0.4,0.4-1,0.9-1.1,1l-0.6,0.1l-0.5,0.3c-2.2,0.9-4.3,3-3.6,6.6v0.1
		c-1,3-1.3,3.6-2,3.6c-0.3,0-0.6,0-0.9,0c-2.9,0-4.7,1.6-5.7,2.8c-0.4-2-1.1-3.7-1.8-5.2c-0.4-0.8-0.6-1.4-0.9-2
		c-0.8-2.3-2.3-3.8-4.4-4.4c0-1.6,0-4.2-1.5-6.6c-0.8-1.5-2.3-3.2-5.5-3.3c-0.6-0.4-1.3-0.8-1.9-1.3s-1.4-0.9-2-1.4
		c-4.2-2.5-8.6-3.8-12.8-4.9c-0.8-0.1-1.4-0.4-2.2-0.6c-2.7-0.8-5.5-2-8.4-3.4c-0.9-0.4-1.9-0.9-2.8-1.3c-1.1-1.3-2.7-2-4.7-2.2
		l-0.4-0.3l-1.6-1.9l-1.6,0.5v-0.6l-1.3-1c0-0.1-0.1-0.4-0.1-0.6c-0.1-1-0.4-2.4-1.3-3.8l0,0c0-0.1,0-0.3,0-0.3
		c-0.1-0.8-0.3-1.9-0.9-3l0.3-0.6l2-1l0.3-2.2c0.1-0.3,0.5-0.5,0.6-0.8c0.9-1,2.2-2.4,2.7-4.6c0.9-1.9,0.6-3.7,0.5-4.6v-0.1l0.6-1.6
		l0.1-0.4l0.5-1.1l-0.1-1.3c-0.1-1-0.1-2.2-0.3-3.3c0-1.1-0.1-2.4-0.3-3.8c0.4,0,0.6,0,1,0c2,0,4.1-0.4,6.1-1.1
		c0.4-0.1,0.8-0.1,1-0.3c0.6-0.1,1.3-0.3,1.9-0.4c0.3,0.5,0.6,1.1,1,1.6l0.8,0.9l1.1,0.4c0.8,0.3,1.4,1,2.4,2.3
		c1.1,1.3,2.4,2.9,4.4,4.2c1.4,1.4,2.9,2,4.6,2c3.2,0,4.8-2.5,5.5-3.7c2.8-2,3.8-4.9,4.6-7.1c0.4-1.1,0.8-2.2,1.3-2.7
		c0.3-0.4,1.3-1.3,1.6-1.4c0,0,0.1,0,0.3,0c0.1,0,0.4,0.1,0.6,0.3c1,0.5,2.4,1.1,4.2,1.1c1.3,0,3.3-0.4,5.1-2.2c0.5-0.5,1.3-1,2-1.6
		c2.2-1.6,5.2-4.1,6.1-8.2c0.5-0.5,0.9-0.9,1.3-1.3c0.5-0.5,1-1,1.4-1.3l2.2-1.4l-0.1-2.7c-0.1-1.8-0.6-3.2-1.4-4.4l0.4-0.3l2.5-1.4
		l2.8-1.5l0.4-0.1C547.8,201.6,549.4,200.8,550.8,200.8 M476.8,254.1L476.8,254.1L476.8,254.1 M474.5,257.4L474.5,257.4L474.5,257.4
		 M475,261.3L475,261.3L475,261.3 M585.8,265.5L585.8,265.5L585.8,265.5 M550.8,196.4c-2.5,0-4.8,1.1-7.2,2c-1.9,1-3.7,2.2-5.6,3.2
		c-2.2,0.4-4.6,0.4-6.6,1.5c1.5,2.5,5.1,3.7,5.3,7.2c-1.6,1.1-2.8,2.9-4.4,4.1c0,4.8-4.3,6.3-7,9c-0.6,0.6-1.1,0.9-1.8,0.9
		c-1.3,0-2.7-1.1-3.9-1.4c-0.4-0.1-0.8-0.1-1.1-0.1c-2.2,0-3.4,1.3-4.9,2.8c-2.7,2.8-2,7.5-5.7,9.6c-0.8,0.9-1.3,2.4-2.3,2.4
		c-0.5,0-1-0.4-1.8-1.1c-3.3-1.6-4.4-5.8-8.1-7.1c-1.1-1.3,0.1-3.9-2.3-4.7c-1.9,1.5-4.2,1.8-6.5,2.4c-1.5,0.6-3.2,0.9-4.7,0.9
		c-1,0-2-0.1-3-0.4c-0.6,0-1.3,0.1-2,0.1c-2,0.4-0.9,1.9-0.9,2.9c1,3.2,0.5,6.3,1,9.5c-0.3,0.8-0.6,1.5-0.9,2.2
		c-0.8,1.5,0.5,3.2-0.5,4.7c-0.3,2.5-3.3,3.7-3.6,6.2c-1,0.5-1.8,1.4-2.2,2.4c-1.9,1.3-0.9,2.7-0.1,4.1c0.8,1.1,0.4,2.7,1.3,3.8
		c0,0,0,0,0-0.1v0.1l0,0c1,1.6,0.4,4.1,2.3,5.5c0.1,1,0.1,2,0.3,3c0.5,0.3,1.1,0.4,1.6,0.4c1,0,2.2-0.4,3.2-0.8
		c0.4,0.3,0.6,0.5,1,0.8c1.1,1,3.2-0.3,3.8,1.6c4.3,1.9,8.5,4.3,12.9,5.6c4.8,1.3,9.5,2.4,13.8,4.9c1.4,0.9,2.7,1.9,4.1,2.7
		c1,1.3,3-0.3,3.8,1.6c1.9,2.5,0.1,6,1.8,8.6c0.4,0,0.6-0.1,1-0.1c1.3,0,2.3,0.4,2.8,1.9c1,2.8,2.7,5.2,2.5,8.4
		c-0.9,1.4,0.1,2.2,1,2.9c0.5,0.3,1.1,0.5,1.6,0.5c0.1,0,0.3,0,0.3,0c1.1-0.3,2.2-0.8,3-1.4c1.4-0.9,2.2-2.8,3.9-2.8
		c0.3,0,0.4,0,0.6,0.1c4.7-0.1,5.6-3.8,6.7-7.2c1-0.9-1.3-2.7,0.8-3.4c2.4-0.3,3.7-2.3,5.5-3.6c0.8-0.5,1.8-1.4,2.7-1.4
		c0.4,0,0.8,0.1,1,0.6c2,2.7,4.9,2,7.5,2.5c-0.4,1.8-1.5,2.8-1.6,4.2c-0.4,1.8-0.1,3.6-0.5,5.2c-0.3,1.6-0.4,3.3-0.9,4.8
		c-0.5,1.4-2.2,1.8-2.9,2.9c-0.3,0.4-0.4,0.8-0.4,1.1c-0.1,1.8,0.8,3.3,1.1,4.9c0.1,0.4,0.3,0.9,0.4,1.3c0.5,1.3,0.8,2.5,1.5,3.6
		c1.1,0.6,2.5,0.9,3.9,0.9c2.9,0,6.1-1.1,7.7-3c0.3-1,0.9-1.3,1.5-1.3c0.4,0,0.8,0.1,1.3,0.1c1.9,0,3.6-0.9,5.5-1
		c1.4-0.5,2.9-0.6,4.1-1.6c1.1-0.8,2.4-1,3.6-1c1.9,0,3.7,0.9,5.1,2.2c3.2,2.9,7.1,3,10.8,4.3c0.4,0.1,0.8,0.3,1,0.3
		c1.3,0,1.4-1.3,1.9-2.2c0.9-1.5,0.1-3.2,0.1-4.8c-0.1-1.8-0.3-3.7-0.4-5.5c-1-2-1.3-4.3-1.4-6.6c1-2.5-0.5-5.7,1.8-8
		c0.3-0.8,0.6-1.5,0.9-2.3c2-1.3,4.6,0,6.6-1.4c1.5-3.3-1.6-5.7-1.6-8.6c-1.6-5.6-0.4-11.4-2.2-17c0-0.4,0-0.6,0-1
		c0.1-2.2,1.1-4.9-1.4-4.9c-0.5,0-1.3,0.1-2.2,0.4c-2.2,2.5-2.2,6.1-3.8,8.9c-0.8,0.9-1.3,1.3-1.6,1.3c-0.6,0-0.9-1-0.9-2.2
		c0-2.8-0.8-4.8-3.8-5.3c-0.1,0-0.3,0-0.4,0c-1.1,0-1.6-1.3-2.5-1.8c-0.5-0.3-1.1-0.4-1.6-0.4c-0.9,0-1.8,0.3-2.7,0.3
		c-0.5,0-1-0.1-1.5-0.4c-0.3-0.4-0.6-0.4-0.9-0.4c-0.6,0-1.3,0.6-1.9,0.6c-0.1,0-0.1,0-0.3,0c-0.8-1-1.8-1.3-2.7-1.3
		c-1.1,0-2.3,0.4-3.4,0.4c-0.6,0-1.1-0.1-1.6-0.4c-0.1-1.9-0.6-3.2-2.7-3.8c-1.9-0.6-3.8-2.3-3.3-4.6c0.6-3.3,0.4-7,2.9-9.8
		c1.4-1.1,1.8-2.4,0.8-3.9c-2.8-3-4.9-6.5-6.6-10.3c-1-1.6-3.8-2.5-2.3-5.2c1.3-3.6-1.6-6.3-1.5-9.6c-1-0.8-1.1-1.8-1.1-2.9
		c2.2-7.9,1.4-9.4-6.3-13.2c-0.4-0.3-0.9-0.4-1.3-0.6C552.3,196.5,551.5,196.4,550.8,196.4L550.8,196.4z"/>
</g>
<path class="st1" d="M583.2,332.6L583.2,332.6L583.2,332.6 M600.1,337.6L600.1,337.6L600.1,337.6 M597.8,337.7c0,0.3,0,0.5,0,0.8
	c-0.3,1-0.3,1.9-0.3,2.7c0,0.3,0,0.5,0,0.6l-0.8,1.1l0.1,1.6c0,0.3,0,0.6,0,1c0,1.4,0,3.7,1.3,6c0,1,0.1,2.8,1.4,4.4
	c1.4,2.4,3.6,3.3,4.9,3.8c0.1,0,0.3,0.1,0.4,0.1c0.1,0.3,0.4,0.8,0.5,1.3c0.1,0.5,0.4,0.9,0.6,1.4c0.1,0.3,0.1,0.4,0.3,0.6
	c0.6,1.5,2.2,5.7,7,5.7c1,0,2-0.3,3-0.6l0.3-0.1l0.3-0.1c3.2-1.6,4.4-4.4,3.7-8.4l1.1-1.9c0.1-0.1,0.4-0.3,0.6-0.4
	c4.2-2.5,4.8-5.6,4.2-8.2l0,0c0.4,0.9,0.8,1.5,1.1,2v0.4c0,0.3,0,0.5,0,0.8c0.1,1.3,0.1,2.9,1,4.7c0.8,2,2.2,3.2,3.2,4.1
	c0.3,0.3,0.5,0.5,0.8,0.6c1.6,3.4,1.5,4.1,0.4,5.5c-4.8,6,0.4,11.4,2.4,13.4l0.3,0.3l0.1,0.1l0.1,0.1c1,0.9,2,1.3,2.8,1.6
	c0.1,0,0.3,0.1,0.4,0.1l1.3,2.2l2.5-0.3c0.6,2.3,1.4,4.4,2.2,6.3c0.1,0.5,0.4,1,0.5,1.5c-0.4,2.2-0.1,4.2,0.1,5.8
	c0.1,1.3,0.4,2.4,0.1,3.3c-1.3,2-1.1,4.2-1,5.3c0,0.1,0,0.4,0,0.5v0.8l0.1,0.6c0.8,2.7,1,4.7,0.6,6.5c-1.3,2-1,4.1-0.9,5.2
	c0,0.1,0,0.4,0,0.5v1l0.4,0.9c0.4,0.9,0.4,2.3,0.5,3.7c0,0.8,0,1.5,0.1,2.3c-0.3,0.1-0.5,0.3-0.6,0.3c-1.1,0.5-2.7,1.3-3.9,2.5
	L641,432l-0.1,0.1l-1,1.1l-0.6,0.8c-1.8,0.6-3.2,1.9-4.2,3.7c-1.8,2.3-2.2,4.6-2,6.6c-1.4,0.3-2.7,0.8-3.7,1.3
	c-0.6,0.3-1.1,0.5-1.5,0.6l-0.4,0.1l-0.4,0.1c-0.6,0.3-1.1,0.6-1.5,0.9c-0.1,0.1-0.3,0.1-0.3,0.1l-3.8-1.6l-1,3.2
	c-1,0.1-2.2,0.4-3.3,1.3l-0.3,0.1l-0.1,0.1c-0.6,0.6-1.3,1.3-1.8,1.6c-0.4-0.4-0.9-1-1.3-1.4c-2.9-3.2-6.5-3.4-8.9-3.6
	c-0.6,0-1.3-0.1-1.8-0.1c0,0-0.1,0-0.1-0.1c-1-0.6-2.4-1.4-4.3-1.4c-1.1,0-3,0.4-4.7,2.2c-0.6,0.3-1.1,0.5-1.6,0.8
	c-0.3,0.1-0.6,0.4-0.9,0.4l-3.7-0.9l-1.4,3.8c-0.6,1.8-0.4,3.4,0,4.7h-1.1l-1.3,1.1l-1.4,1.1c-1-0.9-1.9-1.5-2.9-2.2
	c-1.9-1.3-2.4-1.6-2.5-2.5c-0.1-0.6-0.1-1.3-0.3-2c-0.1-1.8-0.3-3.7-1.1-5.7c-0.1-0.5-0.1-1.3,0.3-2.5c1.1-2.3,1.8-4.7,2.3-7
	c0.6-2.7,1.3-4.8,2.5-6.5l0.4-0.5l0.1-0.4c0.3-0.4,0.6-1,0.8-2c0.4-2-0.5-3.4-1-4.1l-1.4-1.6h-2.2c-0.6,0-1.9,0.1-3,1.1
	c-0.4,0.1-0.6,0.4-0.9,0.5c0.9-2,0.8-4.7-1.8-8l-0.1-0.1c0.1-0.1,0.1-0.4,0.3-0.6l0.1-0.3v-0.1v-0.1c0.8-2.2,0.6-4.1,0.5-5.6v-0.3
	V408v-0.3c-0.4-1.9-1.3-3.7-2.8-5.2l0.3-0.3c1-0.9,1.6-1.9,2.2-2.7c0.1-0.3,0.4-0.5,0.5-0.8l0.1-0.1c0.1-0.1,0.4-0.1,0.6-0.1
	c0.5-0.1,1.3-0.4,1.9-0.8c2.5-1.3,4.2-2.9,4.9-5.2c2.2-4.7,4.4-10.8,2.7-17.6c0-0.3,0-0.6,0-0.9h0.1c2.3-1,3.8-2.7,4.6-4.8l0.1-0.3
	l0.1-0.3c0.8-2.8,0.5-5.7-0.9-8.8l-0.4-0.9c-0.3-0.8-0.5-1.3-0.8-1.9c-0.3-1-0.4-2.2-0.5-3.4c0-0.5-0.1-1-0.1-1.5
	c-0.1-1.8-0.4-3.6-1.1-5.5c-0.3-1.5-0.4-3-0.5-4.7c0.8,0.5,1.8,0.9,3,1l0.9,0.1l0.9-0.3C592.4,342.4,595.4,340,597.8,337.7
	 M621.8,357.8L621.8,357.8L621.8,357.8 M583.4,373.6L583.4,373.6L583.4,373.6 M573.3,399L573.3,399L573.3,399 M582,429.6L582,429.6
	L582,429.6 M580.6,330.1c-0.1,0-0.4,0-0.5,0.1c-1.4,0.5-1.3,2-1.3,3.3s0.1,2.7,0.1,3.9c0.4,3.8,0.3,7.6,1.1,11.3
	c0.5,1.4,1,2.9,1,4.4c0.3,2,0.3,4.1,0.8,6c0.4,1.1,0.8,2.2,1.3,3.2c0.8,1.9,1.3,3.8,0.6,5.8c-0.4,1.1-1.3,1.8-2.3,2.4
	c-0.9,0.4-2,0.5-2.4,1.8s-0.3,2.7-0.1,3.9c1.5,5.5-0.1,10.3-2.4,15.1c-0.4,1.4-1.5,2.3-2.8,2.8c-1.5,0.8-3.3,0.8-4.3,2.4
	c-0.8,1-1.3,2.2-2.2,2.9c-4.8,3.2-4.8,3.2-0.6,6.6c0.9,0.8,1.5,1.8,1.8,2.9c0.1,1.4,0.3,2.8-0.3,4.2c-0.3,0.8-0.6,1.5-0.6,2.4
	c0,0.6,0.1,1.3,0.4,1.9c1.1,1.8,3.6,3.3,0.8,5.8c-0.6,0.6-0.5,1.8,0,2.7c1.3,1.1,2.9,1.8,4.3,2.8c1.8-0.1,3.3-1,4.8-1.9
	c0.1-0.1,0.3-0.3,0.3-0.3s0.1,0.1,0.1,0.4c0,0.3-0.3,0.5-0.4,0.8c-3.6,4.1-3.2,9.9-5.6,14.5c-0.8,1.9-1,3.8-0.4,5.8
	c0.9,2.3,0.8,4.7,1.1,7.1c0.8,4.4,5.2,5.2,7.5,8c0.8,0.5,1.3,1.5,2.3,1.5c0.3,0,0.4,0,0.6-0.1c1.3-1,2.5-2,3.7-3.2c0,0,0,0,0.1,0
	c1.9,0,3.2-1.4,4.6-2.3c0.9-1.9-1.5-3.3-0.8-5.3c0.3,0.1,0.5,0.1,0.8,0.1c1.9,0,3.4-1.6,5.3-1.9c0.5-1.1,1.1-1.5,1.8-1.5
	c0.9,0,1.8,0.8,2.7,1.3c3,1,6.6-0.3,9.1,2.5c2.2,2.4,3.3,3.6,4.4,3.6c1.3,0,2.5-1.3,5.1-3.7c1.3-1,3.7,0.3,4.4-2
	c0.4,0.1,0.8,0.3,1.1,0.3c1.4,0,2.5-1,3.8-1.6c1.9-0.5,3.6-1.6,5.6-1.8c0.1,0,0.3,0,0.5,0c1.3,0,2.2-1,3.2-1.5
	c-0.5-2.4-1.4-4.8,0.6-7c0.5-1.3,1.4-2,2.8-2c0.9-1,1.6-2,2.5-3c1.8-1.9,5.5-1.6,5.8-5.2c-0.4-2.8,0.1-5.8-1-8.6
	c0-1.3-0.6-2.7,0.5-3.8c0.9-3.3,0.4-6.5-0.5-9.6c0-1.3-0.5-2.7,0.5-3.8c1.5-3.8-0.9-7.7,0.4-11.4c-1.1-3-2.5-6.1-3.3-9.3
	c-0.5-2.3-1.6-2.8-3.3-2.8c-0.4,0-0.8,0-1.1,0.1c-0.9-1.4-2.7-1.5-3.8-2.5c-2.2-2.2-4.7-4.7-2.3-7.6c3.2-3.9,1.6-7.1-0.1-10.7
	c-1-1.5-2.9-2.4-3.7-4.2c-0.6-1.3-0.5-2.7-0.6-4.1c0.6-2.2-2.7-3.3-1.4-5.6c-1.3-0.5-0.3-2.2-1.5-2.8c-0.1,0-0.1,0-0.3,0
	c-0.5,0-1-0.4-1.5-0.4c-0.3,0-0.5,0.1-0.8,0.5c-1.1,0.9-2.7,1.1-3.7,2.2c0,0.3,0.1,0.5,0.1,0.8c-0.4,1.1-3.7,0.9-1.5,3.2
	c1.8,3.9-2.5,3.9-3.8,6c-0.4-0.1-0.8-0.1-1-0.1c-1.9,0-0.9,2-1.1,3.2c-0.4,1.9,1.6,4.3-1.1,5.8c-0.6,0.3-1,0.4-1.5,0.4
	c-2,0-2.4-2.3-3-3.8c-0.8-1.6-1-3.4-2.7-4.4c-1.5-0.8-3.3-1-4.1-2.8c-1.1-1.1-0.3-2.7-1-3.9c-1.4-1.6-0.8-3.7-1-5.5
	c1.1-1.5,0.4-3.4,0.9-4.9c0-1.3,0-2.5-0.3-3.7c-0.4-1-0.6-2.3-2-2.3c-0.1,0-0.1,0-0.3,0c-0.9-0.1-1.8-0.3-2.7-0.3
	c-0.3,0-0.5,0-0.9,0c-2.5,2.8-5.3,5.2-8.9,6.3c-1.8-0.1-2.3-1.8-3.3-2.7c-0.4-1.6-0.8-3.2-1.3-4.8
	C582,331.1,581.5,330.1,580.6,330.1L580.6,330.1z M603.4,353.4C603.4,353.4,603.4,353.6,603.4,353.4L603.4,353.4L603.4,353.4
	L603.4,353.4z"/>
<g>
	<path class="st1" d="M608,266.8c1,5.6-0.4,11.5,2.2,17C609.1,278.2,610.5,272.3,608,266.8L608,266.8z"/>
</g>
<g>
	<path class="st1" d="M595.3,263.8c-0.3,0-0.6,0-1,0.1c2.7,1.1,3.6,3.3,3.3,6.1c-0.1,1,0.1,2,1.4,2h0.1c1.1,0,1.4-0.9,1.4-1.9
		c-0.6,0.3-1,0.4-1.4,0.4c-1.5,0-0.6-2.2-0.6-2.9C598.2,265.3,597.4,263.8,595.3,263.8L595.3,263.8z"/>
</g>
<g>
	<path class="st1" d="M619.8,356.5L619.8,356.5L619.8,356.5 M616.2,354.7c-1,0-1,1.3-1,2.7c0,2.3,0.9,4.7-0.5,6.9c0.1,0,0.1,0,0.3,0
		c2.5,0,1.8-1.6,1.6-3.3c-0.1-1.9-1.9-4.4,1.3-5.6C617.1,354.8,616.6,354.7,616.2,354.7L616.2,354.7z"/>
</g>
<g>
	<path class="st1" d="M650.3,392.5c-1.8,3.8,0.3,7.6-0.4,11.4c0.1,0.1,0.3,0.1,0.4,0.1l0,0c0.1,0,0.4-0.1,0.4-0.1
		C650.6,400.3,650.5,396.4,650.3,392.5L650.3,392.5z"/>
</g>
<g>
	<path class="st1" d="M551,195.9c-1,0-1.9,0.3-2.9,0.3c-0.3,0-0.5,0-0.9-0.1c-1,1-2.9,0.9-3.7,2.4c3-0.1,5.7-1.8,8.8-1.8
		c0.3,0,0.6,0,0.9,0C552.4,196,551.8,195.9,551,195.9L551,195.9z"/>
</g>
<g>
	<path class="st1" d="M580.4,328.3c-3,0.8-1.3,3.2-1.6,4.8c0.1,0.1,0.3,0.1,0.4,0.1c0.1,0,0.4-0.1,0.5-0.4c-0.3-1.6,0.1-2.2,0.6-2.2
		c0.6,0,1.4,0.6,2.2,1C582.7,330.2,581.2,329.5,580.4,328.3L580.4,328.3z"/>
</g>
<g>
	<path class="st1" d="M606.7,299.4L606.7,299.4L606.7,299.4 M604.2,296.1c-3.3,1.9-1.3,5.1-2,7.6c0.3,0,0.4,0,0.6,0
		C604.3,301.3,602.6,298.4,604.2,296.1L604.2,296.1z"/>
</g>
<g>
	<path class="st1" d="M649.5,407.9c0.1,3.2,0.4,6.3,0.5,9.6c0.1,0.1,0.3,0.1,0.4,0.1l0,0c0.1,0,0.4-0.1,0.4-0.1
		C650.8,414.2,651.5,410.9,649.5,407.9L649.5,407.9z"/>
</g>
<g>
	<path class="st1" d="M578.9,318.3c-0.4,0-0.8,0.1-1,0.5c2.2,2,0.4,5.3,2.4,7.4c0.6-2.5-0.6-5.1-0.5-7.6
		C579.6,318.4,579.2,318.3,578.9,318.3L578.9,318.3z"/>
</g>
<g>
	<path class="st1" d="M649.5,421.3c0.3,3.2,0.4,6.3,0.6,9.5c0.1,0.1,0.3,0.3,0.4,0.3c0.1,0,0.3-0.1,0.4-0.4
		C650.6,427.7,651.6,424.2,649.5,421.3L649.5,421.3z"/>
</g>
<g>
	<path class="st1" d="M651,430.8c-0.3,0-0.6,0-0.9,0.1c-1.4,1.9-4.4,1.8-5.5,4.2c2.4-0.6,4.7-1.5,6.5-3.3
		C651.1,431.5,651,431.2,651,430.8L651,430.8z"/>
</g>
<g>
	<path class="st1" d="M602.1,334.4c-0.4,0.3-0.6,0.5-0.8,0.9c0.1,1.4,0.3,2.8,0.3,4.1c0.3,0.4,0.5,0.6,0.9,0.8
		C603.8,338.1,603.7,336.2,602.1,334.4L602.1,334.4z"/>
</g>
<g>
	<path class="st1" d="M563.4,223c-2.5,3.2,0.3,4.1,2.3,5.2C565.6,226.2,563.1,225.3,563.4,223L563.4,223z"/>
</g>
<g>
	<path class="st1" d="M557.5,190.7c-2.7,0.3-5.6-0.1-7.5,2.4C552.4,192.2,555.2,192.3,557.5,190.7L557.5,190.7z"/>
</g>
<g>
	<path class="st1" d="M611.6,292.4c-0.5,0.1-1.1,0.1-1.8,0.1c-0.4,0-0.9,0-1.3,0c-1.3,0-2.5,0.1-3.6,1.3c2.2,0,4.2,0,6.3-0.1
		C612.8,293.7,612.3,293.1,611.6,292.4L611.6,292.4z"/>
</g>
<g>
	<path class="st1" d="M579.8,264.4L579.8,264.4L579.8,264.4 M579.8,260c-1.4,0-2.8,0.8-4.2,0.8c-0.3,0-0.5,0-0.8-0.1
		c0.8,0.6,1.5,0.8,2.4,0.8c1,0,1.9-0.3,2.9-0.3c0.9,0,1.6,0.1,2.4,0.8C581.8,260.3,580.8,260,579.8,260L579.8,260z"/>
</g>
<g>
	<path class="st1" d="M606.6,260.1c-0.8,0-1.6,0.5-2.3,1.3c0.4-0.1,0.9-0.1,1.1-0.1c2.7,0,2.2,2.7,2.4,4.6c1.4-1.6,1.1-3.7,0-5.1
		C607.6,260.2,607.1,260.1,606.6,260.1L606.6,260.1z"/>
</g>
<g>
	<path class="st1" d="M602.6,303.6c-0.3,0-0.4,0-0.6,0c0.1,2.3-0.6,4.7,1.3,6.6c0.1,0.3,0.3,0.4,0.4,0.4s0.3-0.1,0.4-0.4
		C603.7,308,603.1,305.9,602.6,303.6L602.6,303.6z"/>
</g>
<g>
	<path class="st1" d="M632.8,355.1c-0.1,0-0.4,0.1-0.5,0.3c0.4,2.4,2.3,3.4,4.2,4.3c-0.1-2.2-2.4-2.7-3.2-4.3
		C633.1,355.1,633,355.1,632.8,355.1L632.8,355.1z"/>
</g>
<g>
	<path class="st1" d="M632.1,351.4c-1.1,1.4-1.1,2.7,0.3,3.9c0.4,0,0.6,0,1,0C633.1,354,633.6,352.4,632.1,351.4L632.1,351.4z"/>
</g>
<g>
	<path class="st1" d="M583.9,336.6c1,2.4,1.3,3.2,1.9,3.2c0.4,0,0.8-0.1,1.4-0.5C586.3,338.2,585.3,337.1,583.9,336.6L583.9,336.6z"
		/>
</g>
<g>
	<path class="st1" d="M638.8,377.9c0.8,1.6,2.4,1.8,3.8,2.5C642.3,378.1,640.4,378.3,638.8,377.9L638.8,377.9z"/>
</g>
<g>
	<path class="st1" d="M581.7,317.4c-1.5,0.1-3.2,0.4-4.7,0.6c-0.1,0-0.3,0.1-0.4,0.3s0,0.4,0.4,0.5c0.3,0,0.6,0.1,0.9,0.1
		c0.6,0,1.3-0.1,1.9-0.1c0.1-0.1,0.3-0.1,0.4-0.1c0.3,0,0.6,0.1,1,0.1C581.7,318.7,582,318.4,581.7,317.4L581.7,317.4z"/>
</g>
<g>
	<path class="st1" d="M631.6,347L631.6,347L631.6,347 M630.2,342.7c-0.3,0-0.5,0.1-0.9,0.4c-0.1,1.3-0.1,2.4,1.5,2.8
		C630.7,343.4,630.7,342.7,630.2,342.7L630.2,342.7z"/>
</g>
<g>
	<path class="st1" d="M597.7,331.9c-0.5,0-1,0.4-1.5,1c0.5,0.6,1.1,0.8,1.8,0.8c0.4,0,0.9-0.1,1.3-0.1c0.1,0,0.3-0.1,0.3-0.4
		c0.1-0.3,0-0.4-0.4-0.6C598.6,332.1,598.1,331.9,597.7,331.9L597.7,331.9z"/>
</g>
<g>
	<path class="st1" d="M601.4,343.8c-0.1,0-0.3,0.1-0.4,0.4c0.3,1.9-0.5,3.9,1.3,5.5c0-0.1-0.1-0.4-0.1-0.5c-0.1-1.6-0.3-3.3-0.4-4.9
		C601.6,343.8,601.5,343.8,601.4,343.8L601.4,343.8z"/>
</g>
<g>
	<path class="st1" d="M601.6,339.4c-0.3,1.5-0.4,3.2-0.6,4.7c0.3,0,0.5,0,0.8-0.1c1.3-1,0.8-2.5,0.8-3.8
		C602.3,339.9,601.9,339.6,601.6,339.4L601.6,339.4z"/>
</g>
<g>
	<path class="st1" d="M604,310.3c-0.3,0-0.5,0-0.8,0c0.1,1.9,0.4,3.8,0.5,5.7c0.1,0.1,0.3,0.3,0.4,0.3c0.1,0,0.3-0.1,0.4-0.4
		C604.4,314.1,604.2,312.2,604,310.3L604,310.3z"/>
</g>
<g>
	<path class="st1" d="M603.4,353.4c0.3,2.4,1.8,2.8,3.7,2.8c0.1,0,0.4,0,0.5,0C606.2,355.3,604.8,354.5,603.4,353.4L603.4,353.4z"/>
</g>
<g>
	<path class="st1" d="M625,348.1L625,348.1L625,348.1 M623.1,346.2c-1,0.4-2.7,0-2.7,1.8c0,0.5-0.4,1.5,0.4,1.5
		c0.1,0,0.4-0.1,0.8-0.1C620.8,347.6,623.1,347.5,623.1,346.2L623.1,346.2z"/>
</g>
<g>
	<path class="st1" d="M589.1,261.3c-1.1,0-2.3,0.4-3.4,0.4h-0.1c0.8,0.5,1.6,0.8,2.4,0.8c1,0,2.2-0.3,3.2-0.3c0.1,0,0.1,0,0.3,0
		C590.6,261.6,589.8,261.3,589.1,261.3L589.1,261.3z"/>
</g>
<g>
	<path class="st1" d="M560.8,210.5c-1.4,1.6-1,2.7,1.1,2.9C561.8,212.3,561.9,211.1,560.8,210.5L560.8,210.5z"/>
</g>
<g>
	<path class="st1" d="M602.1,349c0,0.1,0.1,0.4,0.1,0.5c0.3,1.4-0.4,3,1.3,4.1C603,352.1,603.9,350,602.1,349L602.1,349z"/>
</g>
<g>
	<path class="st1" d="M626.7,343.2c-1.6,0-3,0.5-3.7,2.2C624.5,345.1,625.9,344.6,626.7,343.2L626.7,343.2z"/>
</g>
<g>
	<path class="st1" d="M600.2,332.6c-0.4,0-0.8,0-1,0c0,0.4,0,0.6,0.1,1h0.1c1.1,0,1.8,0.5,2,1.6c0.3-0.3,0.5-0.6,0.8-0.9
		C602,332.9,601.1,332.6,600.2,332.6L600.2,332.6z"/>
</g>
<g>
	<path class="st1" d="M572.3,238.5c0.1,1.4,0,2.7-0.8,3.9C574.2,241.6,573.8,240.2,572.3,238.5L572.3,238.5z"/>
</g>
<g>
	<path class="st1" d="M604.5,316c-0.3,0-0.5,0-0.8,0c0.1,1.6,0.1,3.3,0.1,4.9C605.6,319.4,604.5,317.7,604.5,316L604.5,316z"/>
</g>
<g>
	<path class="st1" d="M520.3,363c1,2,2.4,3.3,3.4,4.4c0.4,0.4,0.9,0.8,1.1,1.1l0.9,1h0.1c0.5,1,1.4,2.7,3.3,3.6l0.4,0.3l0.6,0.6
		c0.3,0.9,0.8,2.4,2,3.7c-0.4,0.3-0.8,0.5-1.1,0.9H531c-1.1,0-3.4,0.1-5.3,1.8l-2,1.8l0.6,2.7c0,0.1,0,0.4,0.1,0.5
		c0.1,1,0.4,2.4,1.3,3.8c1.3,1.9,1.3,2.9-0.3,4.7c-1.1,1.3-1.4,2.7-1.6,3.7c0,0.1-0.1,0.4-0.1,0.5l-0.6,1.9l0.9,1.6
		c0,0.3,0.1,0.8,0.1,1.1c0.1,1.8,0.6,7.2,6.5,8.4c0.1,0.1,0.3,0.4,0.4,0.5l-0.4,0.8v1.1c0,0.4,0,0.8,0,1.1c0,1.6,0,3.8,0.9,6
		l1.1,2.7l2.9,0.1h0.3c0.8,0.3,1.6,0.4,2.7,0.4c0.8,0,1.4-0.1,1.9-0.1c0.3,0,0.5-0.1,0.6-0.1l0,0c1.3,0.5,2.5,0.8,3.8,0.8
		c1,0,1.9-0.1,2.8-0.4c0.8,0.1,1.4,0.3,2.2,0.3c1.6,0,3-0.4,4.3-0.6c0.5-0.1,1-0.3,1.4-0.4c0.9,0.4,1.9,0.5,2.8,0.5
		c1.6,0,3-0.5,4.2-0.9c0.5-0.1,0.9-0.3,1.3-0.4l0.8-0.1l0.6-0.4l0.6-0.4l0,0c-1,1.4-1.1,3-1.1,3.8c0,0.1,0,0.3,0,0.3l-0.5,2.8
		l2.3,1.6c0.9,0.6,1.6,1,2.3,1.3c0.1,0.1,0.4,0.1,0.5,0.3l2,3.3c-0.5,1.9-1,3.6-1.9,4.8c-3,3.9-2,8.4-1.6,9.8l0.1,0.5l0.3,0.5
		c0.1,0.3,0.1,0.9,0.1,1.3c0,1.5,0.1,3.9,1.6,6.1c1,3.2,3.6,4.8,5.3,5.8l-0.9,0.3c-0.8,0.3-2,0.6-3,0.6c-0.6,0-1.1-0.1-1.6-0.5
		l-1-0.6l-1.1-0.1l-3.2-0.3l-3.2-0.3c-0.8-0.9-1.5-1.9-2.3-3l-0.3-0.4l-0.3-0.4l-0.4-0.3c-1.4-1.3-2.9-1.6-3.9-1.6
		c-1.3-2.4-3.7-3.9-6.7-3.9h-1.8l-0.6,0.6c-1.3,0-3.8,0.1-5.8,2.4l0,0c-0.4-0.3-0.9-0.4-1.3-0.5l-0.5-1.3l-2.9-0.1h-0.5h-0.5H533
		h-0.1c-0.8,0-1.5,0-2-0.1c-0.1-0.1-0.3-0.1-0.4-0.3c-0.3-0.1-0.5-0.3-0.6-0.4l-0.1-0.3l-0.3-0.4c-0.4-0.5-0.8-1.1-1.1-1.6
		c-1.9-2.9-3.9-6-6.6-8.6c0.8-2.8-0.4-4.7-1.5-5.8c-1-1.3-2.3-2-3.3-2.8c-1.1-0.8-1.8-1.3-1.9-1.8l-0.3-0.8l-0.4-0.6
		c-1.1-1.6-2.5-2.9-4.2-4.1l-0.6-1.4l-0.3-0.6c0-0.8,0-2.3-0.8-3.7c-0.1-1.8-0.4-3.4-0.8-4.9c-0.6-3-1-4.9,0-6.6l0.3-0.5l0.1-0.5
		c0.1-0.5,0.4-1,0.5-1.5c0.4-1.1,1-2.5,1.1-4.2l0.3-1.8l-1.1-1.5c-0.8-1-1.9-2.2-3.9-2.4l0,0c-0.1-0.8-0.1-1.8-0.5-2.9l-0.1-2.4
		v-0.4c0.5-0.6,0.9-1,1.4-1.4l4.6-3l-3.8-3.9c-1.1-1.1-2.4-1.8-3.6-2c1.1-1.8,1.5-3.7,1.9-5.2c0.1-0.5,0.3-1,0.4-1.4
		c2.7-2.4,5.1-4.6,7.9-5.6c2.2-0.1,3.8-0.8,5.1-2C519.7,365.1,520.2,364,520.3,363 M545,415.4L545,415.4L545,415.4 M541.6,421.8
		l-0.6,1.5h-0.1L541.6,421.8 M520.1,356.2c-1.1,0-2.3,0.6-3.6,1.4c-1.4,1.8,1.4,6.1-3.2,6.1c-0.1,0-0.1,0-0.3,0
		c-4.6,1.3-7.7,4.4-11,7.5c-1.1,2.7-0.9,5.8-3.3,8c-1.8,1.3-1.3,3-0.8,4.7c1.8,1.4,4.3,0,6,1.6c-1.5,1-2.5,2.4-3.6,3.9
		c0.1,1.6,0.1,3.3,0.3,4.9c1,2.2-0.4,5.6,3.3,6.3c0.1,0,0.1,0,0.3,0c0.8,0,1.4,0.1,1.8,0.8c-0.3,1.8-1.1,3.4-1.5,5.1
		c-2.9,5.1,0.3,10.1,0.1,15.2c1.3,1.4,0.1,3.4,1.3,4.8c0.4,0.9,0.8,1.9,1.1,2.8c1.6,0.9,3,2,4.1,3.6c0.9,3.3,4.3,4.1,6.2,6.3
		c1.6,1.4-1.4,3.3,0.4,4.8c3.3,3.2,5.8,7,8.4,10.8c0.6,1.4,1.9,2,3,2.8c1.3,0.6,2.7,0.6,3.9,0.6c0.4,0,0.8,0,1.1,0.1
		c0.6,1.6,3,0.6,3.7,2.4c1.8-0.1,3.8,0.1,4.7-2c1.3-1.5,3.4-0.1,4.8-1.4c1.8,0,2.8,0.9,2.9,2.5c0.4,1.1,1.3,1.3,2,1.3
		c0.3,0,0.6,0,0.9,0c0.6,0,1.1,0.1,1.5,0.5c1.3,1.9,2.7,3.8,4.4,5.2c2.7,0.1,5.3,0.4,8,0.5c1.4,0.9,2.7,1.1,4.1,1.1
		c1.4,0,2.9-0.4,4.4-0.8c1,0.9,2,1.8,3,2.7c0.5,0.1,1,0.3,1.6,0.3c0.4,0,0.9,0,1.4,0c0.6,0,1.4,0.1,2,0.4c4.1-1.8-0.6-3.2-0.4-4.7
		c-0.9-1.1-1.8-2.3-2.2-3.7c-1.4-3.4-6.5-3.2-7.2-7.2c-2-2-0.6-4.9-1.8-7.4c-0.5-2.2-0.5-4.2,0.9-6c3.3-4.4,2.5-10.3,5.7-14.7
		c0.5-1,0.6-1.9-0.5-1.9c-0.1,0-0.4,0-0.5,0c-0.8,2.2-3.6,1.4-4.7,3c-0.9-1.4-2.7-1.5-3.8-2.4c0.1-0.8,0-1.9,0.4-2.2
		c4.2-2.9,1.5-4.7-1-6.5c-1-0.1-1.8-1.3-2.7-1.3c-0.4,0-0.8,0.1-1.1,0.5c-0.6,0.4-1.1,0.8-1.8,1.1c-1.5,0.3-2.9,1.1-4.6,1.1
		c-0.6,0-1.4-0.1-2-0.5h-0.1c-2.2,0-4.3,1.1-6.3,1.1c-0.8,0-1.5-0.1-2.4-0.5c-0.9,0.5-1.8,0.8-2.7,0.8c-0.6,0-1.4-0.1-2-0.4l0,0
		h-0.1c0,0,0,0,0.1,0c-0.5-0.3-1-0.4-1.5-0.4c-0.9,0-1.8,0.3-2.7,0.3c-0.5,0-1.1-0.1-1.6-0.4c-0.4,0-0.8,0-1.1,0
		c-0.8-1.8-0.5-3.7-0.6-5.6c0.6-1.3,1.3-2.7,0-3.9c-1.1-0.8-1.4-2.4-2.9-2.7c-4.8-0.5-2.9-4.8-4.3-7.4c0.3-0.9,0.4-1.9,0.9-2.5
		c2.9-3.3,3.2-6.6,0.6-10.1c-0.5-0.8-0.5-1.8-0.6-2.7c1.4-1.1,3.2-0.3,4.6-1.1c2.8-2,5.8-4.1,2.4-8c-1.4-0.9-0.9-2.9-2.3-3.8
		c-0.6-0.5-1.3-1.1-1.9-1.6c-1.9-0.4-1.4-3-3.2-3.6c-1.5-1.8-3.6-3-4.3-5.3c0-0.6-0.6-0.8-1-1.1C522.3,357,521.3,356.2,520.1,356.2
		L520.1,356.2z M529.1,457.6L529.1,457.6L529.1,457.6L529.1,457.6L529.1,457.6z"/>
</g>
<g>
	<path class="st1" d="M520.1,360.2L520.1,360.2L520.1,360.2 M516.4,357.6c-1.6,1.8-0.1,5.2-3.4,6.1c0.6,0.4,1.3,0.6,1.6,0.6
		c1,0,1.6-1,1.9-2.4C516.8,360.5,516.5,359,516.4,357.6L516.4,357.6z"/>
</g>
<g>
	<path class="st1" d="M518,289.4c1,2.8-0.5,6.1,1.8,8.6C519,295.2,520.6,291.8,518,289.4L518,289.4z"/>
</g>
<g>
	<path class="st1" d="M464.9,238.5c0.8,1.4,1.8,1.6,2.9,1.6c0.5,0,1.1-0.1,1.8-0.1c0.4,0,0.8,0,1.1,0.1
		C469.1,238.3,466.8,239.4,464.9,238.5L464.9,238.5z"/>
</g>
<g>
	<path class="st1" d="M471.2,263.9c0.3,2-0.4,4.4,2.3,5.5C472.6,267.6,473,265.3,471.2,263.9L471.2,263.9z"/>
</g>
<g>
	<path class="st1" d="M534.1,324.6c-1.6,1.9-0.5,2.9,1.3,3.8C535.2,327.2,535.5,325.7,534.1,324.6L534.1,324.6z"/>
</g>
<g>
	<path class="st1" d="M527.8,356.9c-0.9,1.5-2.3,2.3-3.9,2.3c-0.3,0-0.5,0-0.8,0c0.4,0.4,0.8,0.8,1,1.1
		C526.1,359.9,528.4,359.9,527.8,356.9L527.8,356.9z"/>
</g>
<g>
	<path class="st1" d="M536.9,351.5L536.9,351.5L536.9,351.5z M536.9,351.5c-0.3,0-0.5,0-0.8,0c-0.1,0-0.3,0-0.4,0
		c-1,0-1.9,0.1-2.5,1.1c-0.1,0-0.1,0.1-0.3,0.4c-0.1,0.3,0,0.4,0.4,0.6C534.3,352.6,536.5,353.6,536.9,351.5L536.9,351.5z"/>
</g>
<g>
	<path class="st1" d="M532.2,355.6L532.2,355.6L532.2,355.6 M528.7,354c-1,0-1,1.5-0.9,2.9c0.8-0.4,1-1.6,2-1.6
		c0.3,0,0.5,0.1,0.9,0.3c0.1,0,0.1-0.1,0.3-0.3c0.1-0.1,0-0.4-0.4-0.5C529.7,354.2,529.1,354,528.7,354L528.7,354z"/>
</g>
<g>
	<path class="st1" d="M537.3,342.8c0,1.5,0.5,3.2-0.5,4.7C539.6,346.2,538.8,344.6,537.3,342.8L537.3,342.8z"/>
</g>
<g>
	<path class="st1" d="M529.3,310.7c-0.6,0-1.3,0.1-1.9,0.1c-0.1,0-0.1,0.1-0.3,0.4c-0.1,0.3,0,0.5,0.3,0.6c0.4,1.3-0.3,2.9,1.3,3.7
		C528.4,313.9,528.6,312.2,529.3,310.7L529.3,310.7z"/>
</g>
<g>
	<path class="st1" d="M510.2,285.1c0.9,1.5,1.9,2.7,3.8,2.7c0.1,0,0.3,0,0.3,0C513.3,286.3,512.2,285.1,510.2,285.1L510.2,285.1z"/>
</g>
<g>
	<path class="st1" d="M478.6,272c-1.5,0.1-3.2,0.3-4.8,0.3c0.8,0.6,1.5,0.9,2.3,0.9C476.9,273.3,477.8,272.8,478.6,272L478.6,272z"
		/>
</g>
<g>
	<path class="st1" d="M526.3,308c-1.9,2-0.1,2.8,1.1,3.8c0-0.4,0-0.6,0-1C527,309.9,526.7,309,526.3,308L526.3,308z"/>
</g>
<g>
	<path class="st1" d="M536.2,356L536.2,356L536.2,356 M533.3,352.7c-1,0.5-1.1,2-2.4,2c-0.1,0-0.3,0-0.3,0c0,0.3,0.1,0.5,0.1,0.8
		c0.4,0,0.8,0.1,1,0.1c1,0,1.8-0.4,1.8-1.9C533.4,353.3,533.3,353.1,533.3,352.7L533.3,352.7z"/>
</g>
<g>
	<path class="st1" d="M481.9,277.2L481.9,277.2L481.9,277.2 M481.9,272.6c-0.6,0-1.3,0.1-1.8,0.1c-0.1,0-0.3,0-0.4,0
		c0.9,1.5,2.7,0.6,3.8,1.6C483.3,273,482.6,272.6,481.9,272.6L481.9,272.6z"/>
</g>
<g>
	<path class="st1" d="M536.5,331.2c0.1,1.6,0.3,3.2,0.4,4.8C538.1,334.4,538.2,332.8,536.5,331.2L536.5,331.2z"/>
</g>
<g>
	<path class="st1" d="M470.1,260.1c-0.5,1.5,0,2.8,1.3,3.8C471.1,262.6,471.6,261,470.1,260.1L470.1,260.1z"/>
</g>
<g>
	<path class="st1" d="M472.4,253.5c-1.5,0.1-2.7,0.6-2.2,2.4C471,255.1,471.6,254.4,472.4,253.5L472.4,253.5z"/>
</g>
<g>
	<path class="st1" d="M475.5,242.3c0.1,1.6,0.3,3.3,0.4,4.9c1.5-1.4,0.5-3,0.5-4.7C476.2,242.6,475.8,242.4,475.5,242.3L475.5,242.3
		z"/>
</g>
<g>
	<path class="st1" d="M497,368.7h-0.1c0.8,1.3,1.8,2.2,3.2,2.7C499.8,369.6,498.7,368.7,497,368.7L497,368.7z"/>
</g>
<g>
	<path class="st1" d="M476.7,230.8c-0.4,0.3-0.6,0.5-0.9,1c0.5,2.9-0.6,6.1,1.5,8.6C478.4,237.1,478.6,233.9,476.7,230.8
		L476.7,230.8z"/>
</g>
<g>
	<path class="st1" d="M535.8,201.2c-1.6,0-3,0.8-4.4,1.9c2.2-0.6,4.7,0.3,6.6-1.5C537.2,201.3,536.5,201.2,535.8,201.2L535.8,201.2z
		"/>
</g>
<g>
	<path class="st1" d="M487.1,227.2c-2.5,0.1-5.2,0.4-7.7,0.5c1.1,0.6,2.4,0.9,3.6,0.9C484.2,228.6,485.7,228.1,487.1,227.2
		L487.1,227.2z"/>
</g>
<g>
	<path class="st1" d="M476.2,226.5c-0.5,0-0.8,0.6-0.6,1.1c0.1,1.4,0.3,2.7,0.4,4.1c0.3-0.4,0.5-0.6,0.9-1c0-1-0.4-2.2,0.6-2.9
		c-0.3-0.5-0.5-1.3-0.9-1.4C476.3,226.5,476.3,226.5,476.2,226.5L476.2,226.5z"/>
</g>
<g>
	<path class="st1" d="M537.4,214.8L537.4,214.8L537.4,214.8 M536.7,210.4c-2.4,0.3-3.4,2.3-4.4,4.1
		C534.8,214.3,535.5,212.1,536.7,210.4L536.7,210.4z"/>
</g>
<g>
	<path class="st1" d="M493.7,224.8h-0.1c1.5,1.1,0.6,3.6,2.3,4.7C494.6,228.2,497.6,224.8,493.7,224.8L493.7,224.8z"/>
</g>
<g>
	<path class="st1" d="M510,239.3L510,239.3L510,239.3 M507.8,235.3L507.8,235.3L507.8,235.3z M507.8,235.3c-1,0.5-1.8,1.5-2.8,1.5
		c-0.4,0-0.8-0.1-1.1-0.4c0.3,1,0.6,1.8,1.5,1.8c0.1,0,0.4,0,0.6-0.1C507.5,237.9,507.6,236.6,507.8,235.3L507.8,235.3z"/>
</g>
<g>
	<path class="st1" d="M554.7,461.3c-0.3,0-0.4,0.1-0.5,0.4c1.5,1.9,2,4.8,5.1,5.2c-1.4-1.8-2.7-3.6-4.1-5.3
		C555.1,461.4,554.9,461.3,554.7,461.3L554.7,461.3z"/>
</g>
<g>
	<path class="st1" d="M567.2,467.5c1.3,1.4,2.7,1.9,3.9,1.9c1.5,0,3-0.6,4.6-1.5c-1.4,0.1-2.9,0.3-4.3,0.3
		C570,468,568.6,467.9,567.2,467.5L567.2,467.5z"/>
</g>
<g>
	<path class="st1" d="M550.4,459.9c-0.1,1.6,0.4,2,1,2s1.5-0.4,2.2-0.4c0.3,0,0.4,0,0.6,0.1c0.4,0,0.8-0.1,1-0.1
		C553.9,459.9,551.6,461.3,550.4,459.9L550.4,459.9z"/>
</g>
<g>
	<path class="st1" d="M489.2,456.8c-0.4,0-0.9,0.3-1.5,0.8c1.1,0.9,2.3,1.6,3.8,1.6c0.1,0,0.3,0,0.4,0
		C490.9,458.7,490.4,456.8,489.2,456.8L489.2,456.8z"/>
</g>
<g>
	<path class="st1" d="M635,448.5c-2,0.1-3.9,0.8-5.5,2.2c0.3,0,0.4,0,0.6,0c1.8,0,3.3-1.1,4.9-1.4c0.1,0,0.3-0.1,0.4-0.3
		C635.5,448.7,635.4,448.6,635,448.5L635,448.5z"/>
</g>
<g>
	<path class="st1" d="M517.9,463c0.1,1.3-0.4,2.2-1.6,2.3c0.4,0.6,1,1.4,1.6,1.4c0.3,0,0.5-0.1,0.9-0.5
		C519.6,465.3,519.2,463.8,517.9,463L517.9,463z"/>
</g>
<g>
	<path class="st1" d="M591.6,459c-1.5,0.8-3,1.5-4.7,2.3c0.6,0.3,1,0.4,1.5,0.4C590.1,461.7,590.7,460.1,591.6,459L591.6,459z"/>
</g>
<g>
	<path class="st1" d="M601.4,453L601.4,453L601.4,453 M598.8,449.7c-0.6,0-1.3,0.5-1.9,2.2c0.5-0.5,1.1-0.8,1.6-0.8
		c0.9,0,1.9,0.4,2.8,0.4C600.6,450.6,599.7,449.7,598.8,449.7L598.8,449.7z"/>
</g>
<g>
	<path class="st1" d="M534.1,458.4c0,2.5,2.7,1.3,3.7,2.4C537.8,458.1,535.2,459.4,534.1,458.4L534.1,458.4z"/>
</g>
<g>
	<path class="st1" d="M644,439.6L644,439.6L644,439.6 M640.6,437.6c-1,0-1,1.5-1.1,2.7c0.9-0.8,1.8-1.4,2.8-2
		C641.5,437.7,641,437.6,640.6,437.6L640.6,437.6z"/>
</g>
<g>
	<path class="st1" d="M526,454.8c-0.3,0.5-0.6,0.9-0.9,1.4h0.1c1.3,0,2.2,1.5,3.4,1.5c0.1,0,0.3,0,0.4,0
		C528,456.7,527,455.8,526,454.8L526,454.8z"/>
</g>
<g>
	<path class="st1" d="M531,457.5c-0.6,0-1.3,0.1-1.9,0.1c0.8,0.8,1.5,1.5,2.4,1.5c0.5,0,1-0.3,1.5-0.9
		C532.4,457.6,531.7,457.5,531,457.5L531,457.5z"/>
</g>
<g>
	<path class="st1" d="M638.7,447.2c-1.3,0.4-2.4,0.8-3.7,1.1c0,0.3,0.1,0.5,0.1,0.8c0.5,0.4,1,0.5,1.4,0.5
		C637.7,449.6,638,448.3,638.7,447.2L638.7,447.2z"/>
</g>
<g>
	<path class="st1" d="M624.6,452c-1.5,0.6-2.9,1.3-4.4,2c0.1,0,0.4,0,0.6,0c0.6,0,1.1,0.1,1.8,0.1C623.4,454,624.3,453.7,624.6,452
		L624.6,452z"/>
</g>
<g>
	<path class="st1" d="M581.3,462.7c-0.6,2,0.6,2.9,2.2,3.7c0-0.6-0.1-1.3-0.1-2C582.6,463.8,582,463.2,581.3,462.7L581.3,462.7z"/>
</g>
<g>
	<path class="st1" d="M581.2,470.2c-0.8,0-1.6,0.1-2.4,0.4c0.8,0.6,1.5,0.9,2.3,0.9c0.9,0,1.8-0.3,2.5-0.3h0.1
		C583,470.3,582.1,470.2,581.2,470.2L581.2,470.2z"/>
</g>
<g>
	<path class="st1" d="M495.6,460c-0.6,0-1.3,0.1-1.9,0.1c0.8,0.6,1.5,1.1,2.4,1.1c0.5,0,1-0.1,1.5-0.4
		C497,460.1,496.3,460,495.6,460L495.6,460z"/>
</g>
<g>
	<path class="st1" d="M510.7,461.7c-0.9,0-1.6,0.4-2.4,1.5c1.6-0.1,3.3-0.4,4.9-0.5C512.3,462,511.4,461.7,510.7,461.7L510.7,461.7z
		"/>
</g>
<g>
	<path class="st1" d="M506.1,463.2c-1.5,0.1-3,0.1-4.6,0.3c0.8,0.6,1.5,0.9,2.2,0.9C504.6,464.3,505.3,463.9,506.1,463.2
		L506.1,463.2z"/>
</g>
<g>
	<path class="st1" d="M547.3,457.2c-0.4,0.1-0.9,0.1-1.3,0.1c-0.3,0-0.6,0-0.9,0c-1,0-2,0.1-2.7,1.3
		C544.2,458.2,546.1,459,547.3,457.2L547.3,457.2z"/>
</g>
<g>
	<path class="st1" d="M500.5,394.4c0.4,2.5-1.3,6,3.3,6.3C501.3,399.5,502.2,396.3,500.5,394.4L500.5,394.4z"/>
</g>
<g>
	<path class="st1" d="M503.8,385.5c-2.3,0.3-3.3,1.8-3.6,3.9C501.8,388.5,503.1,387.2,503.8,385.5L503.8,385.5z"/>
</g>
<g>
	<path class="st1" d="M505.8,401.5c-1.3,1.4-1.8,3.2-1.5,5.1C505.5,405.1,506.6,403.7,505.8,401.5L505.8,401.5z"/>
</g>
<g>
	<path class="st1" d="M506.5,433.5L506.5,433.5 M506.9,429.4c1,1.6,2.4,2.8,4.1,3.6C510.5,430.7,509.1,429.6,506.9,429.4
		L506.9,429.4z"/>
</g>
<g>
	<path class="st1" d="M517.1,439.3c0.4,1.5-2,3.4,0.4,4.8C517,442.5,519.6,440.7,517.1,439.3L517.1,439.3z"/>
</g>
<g>
	<path class="st1" d="M498.5,379.2c-2.9,1.1-1.9,2.9-0.8,4.7C497.9,382.2,497.6,380.6,498.5,379.2L498.5,379.2z"/>
</g>
<g>
	<path class="st1" d="M504.5,421.8c0.4,1.6-0.4,3.6,1.3,4.8C505.3,425,506.2,423,504.5,421.8L504.5,421.8z"/>
</g>
<g>
	<path class="st1" d="M556.8,319.2c-1.1,1.9-1.9,3.7,1.5,3.8C557.7,321.9,558.2,320.2,556.8,319.2L556.8,319.2z"/>
</g>
<g>
	<path class="st1" d="M576.9,318.1c-1.9,0.4-3.8,0.8-5.7,1.3c-0.1,0-0.1,0.1-0.3,0.4c0,0.3,0,0.4,0.4,0.6c0.1,0,0.3,0,0.5,0
		c1.8,0,3.7-0.3,5.2-1.4C577,318.6,576.9,318.3,576.9,318.1L576.9,318.1z"/>
</g>
<g>
	<path class="st1" d="M537.6,309.4L537.6,309.4L537.6,309.4 M535.3,306c-1.9,0-2,2.8-3.3,3.7l0,0c2.3,0,2.9-2.5,4.7-3.2
		C536.3,306,535.8,306,535.3,306L535.3,306z"/>
</g>
<g>
	<path class="st1" d="M555.5,312.7c-1.9,2.4-0.3,4.1,1.3,5.6C556.3,316.4,555.8,314.5,555.5,312.7L555.5,312.7z"/>
</g>
<g>
	<path class="st1" d="M573,320.7L573,320.7L573,320.7 M569.7,318.4c-0.6,0-1,0.6-1.1,2c1-0.1,1.9-0.1,2.9-0.3c0-0.3-0.1-0.6-0.1-0.9
		C570.5,318.7,570,318.4,569.7,318.4L569.7,318.4z"/>
</g>
<g>
	<path class="st1" d="M563.9,301.2L563.9,301.2L563.9,301.2 M560,299c-1.4,1.8-0.3,3.8-0.4,5.7C561.3,303,560.1,300.9,560,299
		L560,299z"/>
</g>
<g>
	<path class="st1" d="M557.2,310.7c-1,0-1.8,0.3-1.9,2.2c1.1-0.6,2.4-1.3,3.6-2h-0.1C558.4,310.7,557.7,310.7,557.2,310.7
		L557.2,310.7z"/>
</g>
<g>
	<path class="st1" d="M543.8,296.2c-2.2,0.9-0.3,2.8-1,3.9C544.5,299.3,543.5,297.6,543.8,296.2L543.8,296.2z"/>
</g>
<g>
	<path class="st1" d="M572.1,447.6c-0.1,0-0.4,0.1-0.5,0.4c1,2.4-1.5,6,2.4,7.5c-0.5-2.5,0.5-5.3-1.4-7.5
		C572.4,447.6,572.3,447.6,572.1,447.6L572.1,447.6z"/>
</g>
<g>
	<path class="st1" d="M579.7,336.7c-0.1,0-0.3,0.1-0.5,0.3c0.4,4.1,0.6,8.2,1,12.3c0.1,0.1,0.3,0.3,0.5,0.3c0.1,0,0.3-0.1,0.4-0.3
		c-0.4-4.1-0.6-8.2-1-12.3C579.9,336.8,579.8,336.7,579.7,336.7L579.7,336.7z"/>
</g>
<g>
	<path class="st1" d="M566.1,415.2c-0.6,0-1.3,0.3-1.5,1.5c0.1-0.1,0.4-0.1,0.5-0.1c0.9,0,1.5,1.5,2.4,1.5c0.3,0,0.6-0.1,1-0.6
		c0-0.6-0.1-1.3-0.1-2c-0.1,0-0.3,0-0.4,0C567.4,415.5,566.7,415.2,566.1,415.2L566.1,415.2z"/>
</g>
<g>
	<path class="st1" d="M580.2,349.3c0.1,1.4-0.4,2.9,1.1,3.8c0.1,0.3,0.3,0.4,0.4,0.4s0.3-0.1,0.5-0.3c-0.1-1.4,0.4-2.9-1.1-3.8
		c-0.1,0-0.3,0-0.3,0C580.6,349.4,580.3,349.4,580.2,349.3L580.2,349.3z"/>
</g>
<g>
	<path class="st1" d="M579.7,371.5c-2.4,1.8-2.4,3.3,0.4,4.7C579.9,374.6,579.8,373.1,579.7,371.5L579.7,371.5z"/>
</g>
<g>
	<path class="st1" d="M579.8,333c-0.3,0-0.6,0.1-0.9,0.1c-1.1,1.4-1.1,2.7,0.3,3.8c0.1,0,0.4,0,0.5,0c0.1,0,0.3,0,0.4,0
		C580.1,335.7,579.9,334.3,579.8,333L579.8,333z"/>
</g>
<g>
	<path class="st1" d="M581.7,353.2c-0.1,0-0.3,0-0.4,0c0.6,2.2-0.6,4.8,1.5,6.6c-0.3-2.2-0.4-4.4-0.6-6.6
		C582,353.2,581.8,353.2,581.7,353.2L581.7,353.2z"/>
</g>
<g>
	<path class="st1" d="M569,408.8c-0.8,1.5-1.5,3.2,0.3,4.6c1-1.5-0.1-3,0.3-4.6C569.4,408.8,569.2,408.8,569,408.8L569,408.8z"/>
</g>
<g>
	<path class="st1" d="M583.9,362.6c0.1,1.9,0.3,3.8,0.4,5.6c-0.4,0.4-0.4,0.8,0.1,1.1C585.6,367,585.5,364.7,583.9,362.6
		L583.9,362.6z"/>
</g>
<g>
	<path class="st1" d="M575.9,445.2L575.9,445.2L575.9,445.2 M573.1,442.1c-2.4,1.5-1.6,3.7-1.5,5.8c0.4,0,0.6,0,1,0
		C572.1,445.9,572.7,444,573.1,442.1L573.1,442.1z"/>
</g>
<g>
	<path class="st1" d="M579,424.2c-0.5,0-1.1,0.4-1.4,1.3c0.9,0.3,1,1.1,1.1,1.8c1-0.6,2-1.5,1.3-2.5
		C579.8,424.5,579.4,424.2,579,424.2L579,424.2z"/>
</g>
<g>
	<path class="st1" d="M569.2,426.1c0.8,1.5,2.4,1.8,3.8,2.4C572.6,426.3,570.9,426.3,569.2,426.1L569.2,426.1z"/>
</g>
<g>
	<path class="st1" d="M577.3,392.9c-1.5,0.3-2.9,0.6-3.7,2.3C575.1,394.9,576.6,394.7,577.3,392.9L577.3,392.9z"/>
</g>
<g>
	<path class="st1" d="M584.2,368.3c-1.1,0.9-2.3,1.8-2.7,3.3c1.3-0.3,2.3-0.9,2.8-2.2C584.4,369,584.2,368.7,584.2,368.3
		L584.2,368.3z"/>
</g>
<g>
	<path class="st1" d="M572.7,398.7L572.7,398.7L572.7,398.7 M569.9,397.1c-2.3,0-1.6,1.8-1.6,3c0.6-1,1.3-2,1.8-3H569.9L569.9,397.1
		z"/>
</g>
<g>
	<path class="st1" d="M567.8,405.8c-0.6,1.4,0,2.3,1.3,2.9c0.1,0,0.4,0,0.5,0l0,0C569.2,407.6,568.8,406.5,567.8,405.8L567.8,405.8z
		"/>
</g>
<g>
	<path class="st1" d="M527.8,399.1c0.9,2.8-1.5,7.4,4.1,7.4h0.1C528.3,405.5,529.8,401.3,527.8,399.1L527.8,399.1z"/>
</g>
<g>
	<path class="st1" d="M562.8,417.8c-2.2,0.1-4.4,0.4-6.6,0.5c0.9,1,1.6,1.4,2.4,1.4C560.1,419.7,561.5,418.5,562.8,417.8
		L562.8,417.8z"/>
</g>
<g>
	<path class="st1" d="M533.5,370.8c0.4,1.5-0.4,3.7,2.3,3.8C535.4,373.1,536.2,371,533.5,370.8L533.5,370.8z"/>
</g>
<g>
	<path class="st1" d="M528.7,365.6c-0.1,0-0.1,0-0.3,0c1.1,1,0.6,3.6,2.9,3.6c0.1,0,0.1,0,0.3,0C530.3,368.2,531,365.6,528.7,365.6
		L528.7,365.6z"/>
</g>
<g>
	<path class="st1" d="M535.2,412.7c-0.1,0-0.3,0.1-0.4,0.4c0.1,1.9-0.6,3.9,1,5.6c-0.1-1.9-0.1-3.8-0.3-5.6
		C535.4,412.8,535.2,412.7,535.2,412.7L535.2,412.7z"/>
</g>
<g>
	<path class="st1" d="M540.4,418.4c-1,0-2.2,0.3-3.2,0.3c-0.1,0-0.3,0-0.4,0c0.8,0.6,1.5,0.9,2.3,0.9c1,0,2-0.4,3-0.4
		c0.1,0,0.4,0,0.5,0C542,418.5,541.1,418.4,540.4,418.4L540.4,418.4z"/>
</g>
<g>
	<path class="st1" d="M547.5,418.9c-1.5,0.1-3.2,0.1-4.8,0.3c0.8,0.6,1.5,0.9,2.3,0.9C545.8,420.2,546.6,419.7,547.5,418.9
		L547.5,418.9z"/>
</g>
<g>
	<path class="st1" d="M535.2,409.1c0.5,1.4,0.1,2.7-0.4,3.9c0.3,0,0.5,0,0.8-0.1C536.8,411.5,536.8,410.3,535.2,409.1L535.2,409.1z"
		/>
</g>
<g>
	<path class="st1" d="M531.1,382.5c-0.9,0-1.8,0.1-2.4,1.1c1.5-0.3,3.3,0.4,4.6-1.1c-0.1,0-0.1,0-0.3,0
		C532.4,382.6,531.7,382.5,531.1,382.5L531.1,382.5z"/>
</g>
<polygon class="st1" points="566.4,562.8 547.7,569.2 537.3,525.6 556,519.1 "/>
<polygon class="st1" points="725.4,495.7 709.7,507.6 686.4,469.4 702.1,457.5 "/>
<path class="st1" d="M340.4,115.8l11.4-10.3c8.2,11.8,16.5,23.6,24.7,35.5c-1.5,1.4-3,2.7-4.4,4.1
	C361.5,135.4,351,125.6,340.4,115.8z"/>
</svg>
