<?xml version="1.0" encoding="utf-8"?>
<!-- Generator: Adobe Illustrator 28.1.0, SVG Export Plug-In . SVG Version: 6.00 Build 0)  -->
<svg version="1.1" id="Layer_1" xmlns="http://www.w3.org/2000/svg" xmlns:xlink="http://www.w3.org/1999/xlink" x="0px" y="0px"
	 viewBox="0 0 750 500" style="enable-background:new 0 0 750 500;" xml:space="preserve">
<style type="text/css">
	.st0{fill:#F5F5F5;}
	.st1{fill:#E0E0E0;}
	.st2{fill:#EBEBEB;}
	.st3{fill:#FFFFFF;}
	.st4{fill:#263238;}
	.st5{fill:#451952;}
	.st6{fill:#455A64;}
	.st7{fill:#FAFAFA;}
	.st8{fill:#FFBE9D;}
	.st9{fill:#EB996E;}
	.st10{opacity:0.6;}
	.st11{opacity:0.3;}
</style>
<rect x="71.8" y="75.2" transform="matrix(0.1302 -0.9915 0.9915 0.1302 -22.3682 235.5568)" class="st0" width="102.6" height="110.6"/>
<path class="st1" d="M105.5,110.6c-0.5,4.1,2.3,7.8,6.3,8.5c4.2,0.7,8.1-2.1,8.8-6.3c0.7-4.2-2.1-8.1-6.3-8.8
	C110.1,103.4,106.1,106.3,105.5,110.6z"/>
<path class="st1" d="M80.9,84.5l-0.1,0.4c-3.1,25.6-5.8,46.8-7.6,61.8c-0.9,7.4-1.6,13.2-2.1,17.2c-0.2,1.9-0.4,3.4-0.5,4.5
	l-0.1,1.1c0,0.1,0,0.3,0,0.4c0-0.1,0-0.2,0.1-0.3l46.4,5.9l-20.8-2.6l-19-2.3l-5-0.6l-1.3-0.1c-0.2,0-0.3,0-0.5,0l0.4,0.1l1.2,0.2
	l4.9,0.7l18.9,2.5l67.4,8.8l0.5,0.1v-0.4l5.2-40.2c0.9-7.2,1.8-14.5,2.8-22c0.5-3.7,1-7.5,1.5-11.3c0.2-1.9,0.5-3.8,0.7-5.8l0.4-2.9
	l0.2-1.4l0.1-0.7l0-0.4V97v-0.1c0.4,0.5-0.5-0.7-0.5-0.6L81.3,84.6L80.9,84.5z M70.5,169.8c0,0,0-0.1,0-0.1c0-0.3,0.1-0.7,0.2-1.2
	l0.6-4.6l2.3-17.3c2-14.8,4.7-35.8,8-61.1l91.9,11.7v0.2l-0.1,0.7l-0.2,1.4l-0.4,2.9c-0.2,1.9-0.5,3.8-0.7,5.8
	c-0.5,3.8-1,7.6-1.4,11.3c-1,7.5-1.9,14.9-2.8,22c-1.7,13.9-3.4,27-4.9,39.1l-23.4-55.5l-29.2,30.4l-12.8-19.7L70.5,169.8z"/>
<rect x="632.1" y="359.8" transform="matrix(0.9869 -0.1613 0.1613 0.9869 -55.1298 113.4787)" class="st0" width="78.8" height="73.1"/>
<path class="st1" d="M655.4,384.2c0.5,2.9,3.1,4.9,6,4.5c3-0.4,5.1-3.1,4.8-6c-0.4-3-3.1-5.1-6-4.8
	C657.1,378.3,655,381.1,655.4,384.2z"/>
<path class="st1" d="M633.4,371.4l0,0.3c3,18.1,5.5,33.1,7.3,43.7c0.9,5.2,1.6,9.3,2.1,12.2c0.2,1.4,0.4,2.4,0.6,3.2
	c0.1,0.3,0.1,0.6,0.1,0.8c0,0.1,0,0.2,0.1,0.3c0-0.1,0-0.1,0-0.2l32.8-5.4l-14.7,2.5l-13.4,2.3l-3.5,0.6l-0.9,0.2l-0.3,0.1h0.3
	l0.9-0.1l3.5-0.5l13.3-2.1l47.7-7.7h0.3V421c-1.4-8.8-3-18.3-4.6-28.4c-0.8-5.1-1.7-10.2-2.5-15.5c-0.4-2.6-0.9-5.3-1.3-8
	c-0.2-1.4-0.4-2.7-0.7-4.1l-0.4-2.1l-0.2-1l-0.1-0.5v-0.3V361v-0.1l0,0l-0.4-0.3l-65.7,10.8L633.4,371.4z M643.6,431.6
	C643.6,431.5,643.6,431.5,643.6,431.6l-0.1-0.9c-0.1-0.8-0.3-1.9-0.5-3.2c-0.4-2.9-1.1-7-1.9-12.3c-1.7-10.5-4-25.4-6.9-43.3
	l65-10.6v0.2l0.1,0.5l0.2,1l0.3,2.1c0.2,1.4,0.5,2.7,0.7,4.1c0.4,2.7,0.9,5.3,1.3,8l2.6,15.5c1.6,9.8,3.1,19.1,4.5,27.7l-27.2-33.1
	L668,413.9L655.2,403L643.6,431.6z"/>
<path class="st2" d="M709.7,111.6c0,0-5.9-4.3-13.8,9.6s-11,22-11,22s-2,2.9-4,0.9c-2-2-4.4-7.8-8.1-6.9s-5.1,4.8-4.6,10.8
	c0.4,6,0.8,19.1,0.9,20.3s-0.7,2.8-2.3,1.7s-10.4-11.9-15.2-7.4c-4.8,4.5-0.9,20.9-0.5,22.7s0,2.5-0.9,2.9s-3.5-3.5-6.1-6.4
	c-2.6-2.9-6.2-5.9-8.8-3.1s-3.9,14.9,6.8,35.2l5.6,9.1l10.7-0.1c22.9-1.6,32.5-9.2,33.5-12.9c1-3.7-3.4-5.1-7.3-5.8
	c-3.9-0.7-8.6-0.8-8.7-1.8s0.3-1.7,2.1-2.3s17.8-6,19-12.5s-12.6-8.3-14.4-9c-1.8-0.7-0.8-2.2,0.2-2.8s12.4-7.1,17.7-9.9
	c5.3-2.8,7.9-6.2,6.8-9.6c-1.1-3.4-7.3-2.6-10.1-3.2c-2.8-0.6-1.4-3.9-1.4-3.9s5.2-6.9,12.9-21S709.6,111.5,709.7,111.6"/>
<path class="st1" d="M646.9,225.4c5.7-10.3,15.6-28.7,24.2-44.4s16.5-30,22.2-40.2c2.9-5.1,5.2-9.3,6.9-12.1
	c0.8-1.4,1.5-2.5,1.9-3.3c0.2-0.4,0.4-0.6,0.5-0.8l0.2-0.3c0,0.1-0.1,0.2-0.2,0.3l-0.5,0.9c-0.4,0.8-1,1.9-1.8,3.3l-6.8,12.2
	c-5.7,10.3-13.5,24.5-22.1,40.3s-18.5,34.2-24.3,44.4"/>
<path class="st1" d="M697.9,158.1l-2,0.7l-6.4,2.5c-2.5,1-4.8,1.8-6.5,2.4c-0.8,0.3-1.5,0.5-2,0.7c-0.2,0.1-0.5,0.1-0.8,0.2
	c0.2-0.1,0.5-0.2,0.7-0.3l2-0.8l6.4-2.5c2.5-1,4.8-1.8,6.5-2.4c0.8-0.3,1.5-0.5,2-0.6c0.2-0.1,0.5-0.2,0.7-0.2
	C698.4,158,698.2,158.1,697.9,158.1z"/>
<path class="st1" d="M675.9,153.3c-2-5.9-3.5-10.7-3.4-10.7c0.1,0,1.8,4.7,3.7,10.6c2,5.9,3.5,10.7,3.4,10.7
	C679.5,164,677.8,159.2,675.9,153.3z"/>
<path class="st1" d="M667,188.1c-0.3-0.4-0.8-1-1.3-1.7c-1.1-1.5-2.5-3.5-4-5.8s-2.7-4.5-3.6-6.1c-0.5-0.8-0.8-1.4-1-1.9
	c-0.1-0.2-0.2-0.5-0.3-0.7c0.2,0.2,0.3,0.4,0.4,0.7c0.3,0.5,0.6,1.1,1.1,1.9c0.9,1.5,2.2,3.7,3.6,6c1.5,2.3,2.9,4.4,3.9,5.9l1.2,1.8
	c0.2,0.2,0.3,0.4,0.4,0.7C667.4,188.7,667.3,188.5,667,188.1z"/>
<path class="st1" d="M685.1,187.1l-2,0.2c-1.7,0.2-4,0.3-6.5,0.6s-4.8,0.4-6.5,0.5l-2,0.1c-0.2,0-0.5,0-0.7,0
	c0.2-0.1,0.5-0.1,0.7-0.1l2-0.2c1.7-0.2,4-0.4,6.5-0.6s4.8-0.4,6.5-0.5l2-0.1c0.2,0,0.5,0,0.7,0
	C685.6,187.1,685.4,187.1,685.1,187.1z"/>
<path class="st1" d="M677,210.4l-2.5,0.2c-2.1,0.2-5.1,0.4-8.3,0.6s-6.2,0.4-8.3,0.5l-2.5,0.1c-0.3,0-0.6,0-0.9,0
	c0.3-0.1,0.6-0.1,0.9-0.1l2.5-0.2c2.1-0.2,5.1-0.4,8.3-0.6s6.2-0.4,8.3-0.5l2.5-0.1c0.3,0,0.6,0,0.9,0
	C677.6,210.3,677.3,210.3,677,210.4z"/>
<path class="st1" d="M654.3,210.9c-0.4-0.5-0.9-1.3-1.6-2.2c-1.3-1.9-3-4.6-4.8-7.6c-1.8-3-3.3-5.8-4.4-7.8c-0.5-1-0.9-1.8-1.2-2.4
	c-0.2-0.3-0.3-0.6-0.4-0.9c0.2,0.3,0.4,0.6,0.5,0.9l1.3,2.4c1.1,2,2.7,4.8,4.4,7.8c1.8,3,3.5,5.7,4.7,7.6L654.3,210.9
	c0.3,0.2,0.5,0.5,0.6,0.8C654.7,211.5,654.5,211.2,654.3,210.9z"/>
<path class="st1" d="M218.9,213.9v90.6c0,4.3-3.5,7.9-7.9,7.9H55.2c-4.3,0-7.9-3.5-7.9-7.9v-90.6c0-4.3,3.5-7.9,7.9-7.9H211
	C215.4,206.1,218.9,209.6,218.9,213.9z"/>
<circle class="st2" cx="133.1" cy="260.7" r="13.1"/>
<path class="st3" d="M131.4,264.5v-7.7c0-0.3,0.2-0.5,0.5-0.5c0.1,0,0.1,0,0.2,0.1l6.9,3.9c0.2,0.1,0.3,0.4,0.2,0.7
	c0,0.1-0.1,0.2-0.2,0.2l-6.9,3.8c-0.2,0.1-0.5,0.1-0.7-0.2C131.4,264.7,131.4,264.6,131.4,264.5z"/>
<path class="st3" d="M209.9,300.2l-0.5-0.4c-0.2-0.1-0.3-0.3-0.3-0.6c0-0.3,0.2-0.5,0.6-0.5c0.3,0,0.5,0.1,0.7,0.3l-0.2,0.2
	c-0.1-0.1-0.3-0.2-0.4-0.2c-0.2,0-0.3,0.1-0.3,0.2s0,0.2,0.2,0.4l0.7,0.7v0.2h-1.3v-0.3L209.9,300.2z"/>
<path class="st3" d="M208.9,299.3c0,0.1-0.1,0.2-0.2,0.2c-0.1,0-0.2-0.1-0.2-0.2c0-0.1,0.1-0.2,0.2-0.2c0,0,0,0,0,0
	C208.8,299.1,208.9,299.2,208.9,299.3C208.9,299.3,208.9,299.3,208.9,299.3z M208.9,300.2C208.9,300.3,208.9,300.3,208.9,300.2
	c0,0.2-0.1,0.2-0.2,0.2c0,0,0,0,0,0c-0.1,0-0.2-0.1-0.2-0.2c0,0,0,0,0,0c0-0.1,0.1-0.2,0.2-0.2c0,0,0,0,0,0
	C208.8,300.1,208.9,300.2,208.9,300.2L208.9,300.2z"/>
<path class="st3" d="M208.3,298.7v0.3H208v1.4h-0.3v-1.8L208.3,298.7z"/>
<path class="st3" d="M205.8,299.7h0.3v-0.4h0.3v0.4h0.6l-0.8-1.1h0.3l0.9,1.1v0.2h-1v0.4h-0.3V300h-0.3L205.8,299.7z"/>
<rect x="70.1" y="299.3" class="st3" width="132.9" height="0.7"/>
<rect x="161.5" y="298.6" class="st2" width="41.5" height="1.9"/>
<path class="st2" d="M162.2,297.6c1.1,0,2,0.9,2,2s-0.9,2-2,2s-2-0.9-2-2S161.1,297.6,162.2,297.6z"/>
<path class="st3" d="M66.7,299.6c0-0.3,0.3-0.5,0.6-0.5c0.2,0,0.4,0.1,0.5,0.2l0,0c0-0.4-0.2-0.6-0.5-0.6c-0.1,0-0.2,0-0.3,0.1
	l-0.1-0.2c0.1-0.1,0.3-0.1,0.5-0.1c0,0,0.1,0,0.1,0c0.5,0.1,0.8,0.5,0.7,0.9c0,0.6-0.3,0.9-0.8,0.9c0,0,0,0-0.1,0
	C67,300.2,66.7,299.9,66.7,299.6C66.7,299.6,66.7,299.6,66.7,299.6z M67,299.6c0,0.2,0.1,0.3,0.3,0.3s0.4-0.1,0.4-0.3c0,0,0,0,0,0
	c0-0.2-0.2-0.3-0.4-0.3C67.2,299.3,67,299.4,67,299.6L67,299.6z"/>
<path class="st3" d="M66.5,299c0,0.1-0.1,0.2-0.2,0.2c-0.1,0-0.2-0.1-0.2-0.2c0-0.1,0.1-0.2,0.2-0.2c0,0,0,0,0,0
	C66.5,298.8,66.6,298.9,66.5,299C66.5,299,66.5,299,66.5,299z M66.5,300c0,0.1-0.1,0.2-0.2,0.2c0,0,0,0,0,0c-0.1,0-0.2-0.1-0.2-0.2
	c0,0,0,0,0,0c0-0.1,0.1-0.2,0.2-0.2c0,0,0,0,0,0C66.5,299.8,66.6,299.9,66.5,300C66.5,300,66.5,300,66.5,300z"/>
<path class="st3" d="M65.2,300.2c-0.4,0-0.7-0.3-0.7-0.9s0.3-0.9,0.7-0.9s0.7,0.3,0.7,0.9S65.6,300.2,65.2,300.2z M64.8,299.3
	c0,0.4,0.2,0.6,0.4,0.6s0.4-0.2,0.4-0.6s-0.2-0.6-0.4-0.6S64.8,298.9,64.8,299.3L64.8,299.3z"/>
<path class="st3" d="M63.5,300.2c-0.4,0-0.7-0.3-0.7-0.9s0.3-0.9,0.7-0.9s0.7,0.3,0.7,0.9S63.9,300.2,63.5,300.2z M63.5,299.9
	c0.2,0,0.4-0.2,0.4-0.6s-0.2-0.6-0.4-0.6s-0.4,0.2-0.4,0.6C63.1,299.7,63.3,299.9,63.5,299.9z"/>
<polygon class="st3" points="59.9,298.1 58.8,298.1 58.8,297.4 60.6,297.4 60.6,299.2 59.9,299.2 "/>
<polygon class="st3" points="58.8,300.8 59.9,300.8 59.9,299.7 60.6,299.7 60.6,301.5 58.8,301.5 "/>
<polygon class="st3" points="56,299.7 56.7,299.7 56.7,300.8 57.8,300.8 57.8,301.5 56,301.5 "/>
<polygon class="st3" points="56,297.4 57.8,297.4 57.8,298.1 56.7,298.1 56.7,299.2 56,299.2 "/>
<path class="st3" d="M75.1,216.6l0.2-0.2c0,1.4,0,2.9,0,4.6l-0.4-0.2l0.5-0.5l1.2-1.2l0.2-0.2l0.2,0.1l1.9,1.7l-0.4,0.2
	c0-1.3,0.1-2.4,0.1-3.3c0-0.4,0-0.9,0.1-1.3c0.1,0.4,0.1,0.8,0.1,1.2c0,0.8,0.1,2,0.1,3.4v0.5l-0.4-0.3l-1.9-1.7H77l-1.2,1.2
	l-0.5,0.5l-0.4,0.4V221c0-1.7,0-3.2,0-4.6v-0.2H75c1.2,0,2.4,0.1,3.6,0.2C78.6,216.4,77.1,216.5,75.1,216.6z"/>
<path class="st3" d="M71.1,217c-0.3,0.4-0.6,0.8-0.9,1.1c-0.6,0.7-1.5,1.8-2.6,3l-0.4,0.5V221c0-0.7,0-1.5,0-2.3v-0.2l0.1,0.2
	l-1.6-1.6l-0.4-0.4h0.6c1.6,0,3,0.1,3.9,0.2C70.2,216.9,70.7,216.9,71.1,217c0,0-0.6,0-1.6,0.1s-2.2,0.1-3.7,0.1l0.2-0.4
	c0.5,0.5,1,1,1.6,1.5l0.1,0.1v0.3c0,0.8,0,1.6,0,2.3l-0.4-0.2c1-1.1,1.9-2,2.6-2.7S71.1,217,71.1,217z"/>
<path class="st3" d="M71.1,217c0.1,0.1-0.7,0.6-1.7,1c-0.6,0.3-1.2,0.5-1.9,0.5c0-0.1,0.7-0.6,1.7-1C69.8,217.2,70.5,217,71.1,217z"
	/>
<path class="st3" d="M58.9,216.4c0,0,0.2-0.1,0.7,0c0.6,0.1,1.1,0.4,1.5,0.9c0.6,0.7,0.8,1.7,0.5,2.6c-0.5,1.4-2.1,2.2-3.5,1.7
	c-0.8-0.3-1.4-0.9-1.7-1.7c-0.3-0.9-0.1-1.9,0.4-2.6c0.4-0.5,0.9-0.8,1.5-0.9C58.6,216.3,58.9,216.4,58.9,216.4c0,0-0.2,0.1-0.6,0.2
	c-0.5,0.2-1,0.5-1.3,0.9c-0.5,0.7-0.6,1.5-0.3,2.2c0.5,1.2,1.8,1.8,3,1.4c0.6-0.2,1.1-0.7,1.4-1.4c0.3-0.7,0.2-1.6-0.3-2.2
	c-0.3-0.4-0.8-0.8-1.3-0.9C59.1,216.4,58.9,216.4,58.9,216.4z"/>
<path class="st3" d="M59.7,220c-0.1,0.1-0.7-0.3-1.3-0.9l-0.1-0.1v-0.1c0-0.9,0.1-1.6,0.2-1.6s0.2,0.7,0.2,1.6l0,0l-0.1-0.2
	C59.4,219.4,59.8,219.9,59.7,220z"/>
<path class="st3" d="M160.4,219.6c21.8,0,39.4,0.1,39.4,0.2s-17.6,0.2-39.4,0.2S121,220,121,219.9
	C121,219.7,138.6,219.6,160.4,219.6z"/>
<circle class="st3" cx="206.6" cy="219.9" r="3.1"/>
<g id="freepik--Window--inject-4">
	<rect x="145.6" y="44.4" class="st3" width="505.8" height="364.1"/>
	<rect x="146.2" y="44.4" class="st1" width="505.8" height="26.9"/>
	<path class="st4" d="M634.1,58.3c-0.1-1.9,1.4-3.4,3.3-3.5c1.8,0,3.2,1.4,3.3,3.1c0.1,1.8-1.3,3.4-3.1,3.5
		C635.7,61.5,634.2,60.2,634.1,58.3C634.1,58.3,634.1,58.3,634.1,58.3z"/>
	<path class="st4" d="M621.8,58.3c0-1.9,1.4-3.4,3.3-3.5c1.8,0,3.2,1.4,3.3,3.1c0.1,1.8-1.3,3.4-3.1,3.5
		C623.5,61.5,621.9,60.2,621.8,58.3C621.8,58.3,621.8,58.3,621.8,58.3z"/>
	<path class="st4" d="M609.5,58.3c0-1.9,1.4-3.4,3.3-3.5c1.8,0,3.2,1.4,3.3,3.1c0.1,1.8-1.3,3.4-3.1,3.5
		C611.2,61.5,609.6,60.2,609.5,58.3C609.5,58.3,609.5,58.3,609.5,58.3z"/>
	<path class="st4" d="M458.6,99.9c13.7,0,24.7,0.2,24.7,0.3s-11,0.3-24.7,0.3s-24.7-0.1-24.7-0.3C433.9,100.1,444.9,99.9,458.6,99.9
		z"/>
	<path class="st4" d="M392.9,99.9c13.7,0,24.7,0.2,24.7,0.3s-11,0.3-24.7,0.3s-24.7-0.1-24.7-0.3C368.3,100.1,379.3,99.9,392.9,99.9
		z"/>
	<path class="st4" d="M327.3,99.9c13.7,0,24.7,0.2,24.7,0.3s-11,0.3-24.7,0.3s-24.7-0.1-24.7-0.3C302.6,100.1,313.6,99.9,327.3,99.9
		z"/>
	<path class="st4" d="M261.1,99.9c13.6,0,24.7,0.2,24.7,0.3s-11,0.3-24.7,0.3c-13.7,0-24.7-0.1-24.7-0.3
		C236.4,100.1,247.5,99.9,261.1,99.9z"/>
	<path class="st4" d="M177.8,108.4c-1.2-0.3-2.2-0.9-3-1.8c-0.6-0.7-1-1.5-1.2-2.3c-0.2-1-0.3-2.1-0.2-3.2c0-1.1,0-2.3,0-3.6
		c0-1.4,0.5-2.8,1.4-3.8c1-1.1,2.3-1.9,3.8-2c1.5,0,3,0,4.6,0h10h23c2.2,0,4.2,1.3,5.2,3.4c0.5,1,0.7,2.1,0.6,3.2v2.9
		c0,0.5,0,1,0,1.5c0,0.5-0.1,1.1-0.2,1.6c-0.3,1-0.8,1.9-1.5,2.7c-0.7,0.7-1.5,1.3-2.5,1.6c-0.9,0.2-1.8,0.3-2.8,0.3l-18.8-0.1
		l-12.7-0.1l-3.5-0.1h-0.9c-0.1,0-0.2,0-0.3,0c0,0,0.1,0,0.3,0h0.9l3.5-0.1l12.7-0.1l18.8-0.1c0.9,0.1,1.7,0,2.6-0.2
		c0.8-0.3,1.5-0.8,2.1-1.4c0.6-0.7,1.1-1.5,1.3-2.4c0.2-1,0.2-1.9,0.2-2.9v-3.1c0-1-0.2-2-0.6-2.9c-0.8-1.8-2.6-3-4.6-3h-23h-10
		c-1.5,0-3.1,0-4.5,0c-1.4,0.1-2.6,0.8-3.5,1.8c-1.9,2.1-1.2,4.9-1.4,7.1c-0.1,1,0,2.1,0.2,3.1c0.2,0.8,0.6,1.6,1.1,2.2
		C175.6,107.4,176.6,108.1,177.8,108.4c0.7,0.2,1.2,0.2,1.2,0.2C178.5,108.6,178.1,108.5,177.8,108.4z"/>
	<path class="st1" d="M613,204.1v14.2c0,4.8-3.9,8.6-8.6,8.6h-136c-4.8,0-8.6-3.9-8.6-8.6v-14.2c0-4.8,3.9-8.6,8.6-8.6h136
		C609.1,195.5,613,199.4,613,204.1z"/>
	<path class="st4" d="M146.2,44.7l0.3-0.3c0,109.8,0,233.6,0,364v0l-0.3-0.3l505.8,0.1l-0.2,0.2c0.1-221,0.2-362.2,0.2-364.1
		c0,1.9,0.1,143.1,0.2,364.1v0.2H652l-505.8,0h-0.3v-0.3c0-130.4,0-254.1,0-364v-0.2h0.3L652,44.4L146.2,44.7z"/>
	<path class="st5" d="M189.3,258.9c0-1.2,0-3,0-5.4c0-4.7,0-11.7,0-20.6c0-17.9-0.1-43.7-0.1-75.3v-0.2h0.2l181.3-0.1h0.2v0.3
		c0,36.5,0,71.3,0,103.1v0.2h-0.2L240,260.8l-37.4-0.1h-9.9h-3.4h0.9h2.6h10l37.4-0.1l130.4-0.1l-0.2,0.2c0-31.8,0-66.6,0-103.1
		l0.3,0.3l0,0l-181.4-0.1l0.2-0.2c0,31.6-0.1,57.4-0.1,75.2c0,8.9,0,15.9,0,20.6C189.3,255.9,189.3,257.7,189.3,258.9
		c0.1,1.2,0.1,1.8,0.1,1.8S189.3,260.1,189.3,258.9z"/>
	<path class="st5" d="M193.8,157.8l1.3,0.8l5.1,3.1l18.7,11.2c15.7,9.5,37.6,22.4,62,36.3s46.6,26.3,62.8,35.1l19.1,10.5l5.2,2.8
		l1.3,0.8c0.2,0.1,0.3,0.2,0.5,0.3c-0.2-0.1-0.3-0.1-0.5-0.2l-1.4-0.7l-5.2-2.7c-4.5-2.4-11.1-5.9-19.2-10.3
		c-16.2-8.8-38.5-21.1-62.9-35s-46.3-26.9-62-36.5c-7.9-4.8-14.2-8.7-18.6-11.4l-5-3.1L193.8,157.8l-0.5-0.3
		C193.2,157.5,193.4,157.6,193.8,157.8z"/>
	<path class="st5" d="M280,209.4c49-28.2,88.8-51,88.8-50.9s-39.6,23.1-88.6,51.3s-88.8,51-88.8,50.9
		C191.3,260.6,231,237.6,280,209.4z"/>
	<path class="st4" d="M281.5,311.6c48.9,0,88.5,0.2,88.5,0.4s-39.6,0.4-88.5,0.4S193,312.2,193,312
		C193,311.8,232.6,311.6,281.5,311.6z"/>
	<path class="st4" d="M281.5,322.4c48.9,0,88.5,0.2,88.5,0.4s-39.6,0.4-88.5,0.4s-88.5-0.2-88.5-0.4S232.6,322.4,281.5,322.4z"/>
	<path class="st4" d="M329.8,349.1c21.4,0,38.8,0.1,38.8,0.3s-17.4,0.3-38.8,0.3s-38.8-0.1-38.8-0.3
		C291,349.2,308.4,349.1,329.8,349.1z"/>
	<path class="st4" d="M292,336.1c42.3,0,76.6,0.2,76.6,0.3s-34.3,0.3-76.6,0.3s-76.6-0.1-76.6-0.3
		C215.4,336.3,249.7,336.1,292,336.1z"/>
	<path class="st4" d="M169.5,367.8c0-1,0-2.4,0-4.2c0-3.7,0-9.2,0-16.2c0-14.1-0.1-34.6-0.1-60.2v-0.2h0.2l220.2-0.1h0.3v0.1
		c0,28.6,0,56.3,0,82v0.2h-0.2l-158-0.1l-45.8-0.1h-12.2h-3.2h-1.1h1.1h3.2h12.3l45.9-0.1l157.8-0.1l-0.2,0.2c0-25.7,0-53.4,0-82
		l0.3,0.3l0,0l-220.3-0.1l0.2-0.2c0,25.5-0.1,46-0.1,60.1c0,7.1,0,12.5,0,16.2c0,1.9,0,3.3,0,4.2s0,1.5,0,1.5
		S169.5,368.8,169.5,367.8z"/>
	<ellipse class="st5" cx="605" cy="101.2" rx="11.2" ry="10.7"/>
	<rect x="608.8" y="230.9" class="st6" width="79.2" height="55.1"/>
	<path class="st4" d="M648.5,258.5c21.8,15.3,39.5,27.9,39.4,28c-0.1,0.1-17.9-12.2-39.7-27.6s-39.5-27.9-39.4-28
		C608.9,230.8,626.7,243.1,648.5,258.5z"/>
	<path class="st4" d="M609,285.8l0.6-0.4l2.2-1.6l8.3-6l27.5-19.6l27.6-19.5l8.4-5.9l2.3-1.6l0.6-0.4c0.1-0.1,0.2-0.1,0.2-0.1
		l-0.2,0.2c-0.1,0.1-0.3,0.3-0.6,0.4l-2.2,1.7l-8.3,6L648,258.5L620.4,278l-8.4,5.9l-2.3,1.6L609,285.8l-0.2,0.2
		C608.8,286,608.9,285.9,609,285.8z"/>
</g>
<rect x="411.5" y="352.8" class="st7" width="210.9" height="119.8"/>
<path class="st4" d="M411.5,470.4c0-1.4,0-3.5,0-6.2c0-5.5,0-13.6,0-23.9c0-20.8-0.1-50.8-0.1-87.6v-0.2h0.2l210.9-0.1h0.3v0.3
	c0,42.4,0,82.9,0,119.8v0.2h-0.3l-151.9-0.1l-43.5-0.1h-11.5h-3h-1h1h3h11.6l43.5-0.1l151.7-0.1l-0.2,0.2c0-36.9,0-77.4,0-119.8
	l0.3,0.3l0,0L411.5,353l0.2-0.2c0,36.8-0.1,66.7-0.1,87.5c0,10.4,0,18.5,0,24c0,2.7,0,4.9,0,6.3s0,2.1,0,2.1
	S411.5,471.8,411.5,470.4z"/>
<path class="st2" d="M568.8,372.1c17.7,0,32,0.1,32,0.3s-14.3,0.3-32,0.3s-32-0.1-32-0.3S551.2,372.1,568.8,372.1z"/>
<path class="st2" d="M535.3,383.6c17.7,0,32,0.1,32,0.3s-14.3,0.3-32,0.3s-32-0.1-32-0.3C503.3,383.7,517.7,383.6,535.3,383.6z"/>
<path class="st2" d="M465.6,372.1c17.7,0,32,0.1,32,0.3s-14.3,0.3-32,0.3s-32-0.1-32-0.3S448,372.1,465.6,372.1z"/>
<path class="st2" d="M518.3,372.1c2.9-0.1,5.8,0,8.6,0.3c-2.9,0.3-5.8,0.3-8.6,0.3c-2.9,0.1-5.8,0-8.6-0.3
	C512.5,372.1,515.4,372,518.3,372.1z"/>
<path class="st2" d="M590.3,383.6c2.9-0.1,5.8,0,8.6,0.3c-2.9,0.3-5.8,0.4-8.6,0.3c-2.9,0.1-5.8,0-8.6-0.3
	C584.6,383.6,587.5,383.5,590.3,383.6z"/>
<path class="st2" d="M486.8,383.1c2.8-0.1,5.5,0,8.3,0.3c-2.8,0.3-5.5,0.3-8.3,0.3c-2.8,0.1-5.6,0-8.3-0.3
	C481.2,383.1,484,383,486.8,383.1z"/>
<path class="st2" d="M568.8,398.4c17.7,0,32,0.1,32,0.3s-14.3,0.3-32,0.3s-32-0.1-32-0.3C536.8,398.5,551.2,398.4,568.8,398.4z"/>
<path class="st2" d="M535.3,409.9c17.7,0,32,0.1,32,0.3s-14.3,0.3-32,0.3s-32-0.1-32-0.3C503.3,410,517.7,409.9,535.3,409.9z"/>
<path class="st2" d="M465.6,398.4c17.7,0,32,0.1,32,0.3s-14.3,0.3-32,0.3s-32-0.1-32-0.3C433.6,398.5,448,398.4,465.6,398.4z"/>
<path class="st2" d="M518.3,398.4c2.9-0.1,5.8,0,8.6,0.3c-2.9,0.3-5.8,0.3-8.6,0.3c-2.9,0.1-5.8,0-8.6-0.3
	C512.5,398.4,515.4,398.3,518.3,398.4z"/>
<path class="st2" d="M590.3,409.9c2.9-0.1,5.8,0,8.6,0.3c-2.9,0.3-5.8,0.4-8.6,0.3c-2.9,0.1-5.8,0-8.6-0.3
	C584.6,409.9,587.5,409.8,590.3,409.9z"/>
<path class="st2" d="M486.8,409.4c2.8-0.1,5.5,0,8.3,0.3c-2.8,0.3-5.5,0.3-8.3,0.3c-2.8,0.1-5.6,0-8.3-0.3
	C481.2,409.4,484,409.3,486.8,409.4z"/>
<path class="st2" d="M568.3,444c17.7,0,32,0.1,32,0.3s-14.3,0.3-32,0.3s-32-0.1-32-0.3C536.3,444.1,550.6,444,568.3,444z"/>
<path class="st2" d="M534.8,455.5c17.7,0,32,0.1,32,0.3s-14.3,0.3-32,0.3c-17.7,0-32-0.1-32-0.3S517.1,455.5,534.8,455.5z"/>
<path class="st2" d="M465,444c17.7,0,32,0.1,32,0.3s-14.3,0.3-32,0.3s-32-0.1-32-0.3C433,444.1,447.4,444,465,444z"/>
<path class="st2" d="M517.7,444c2.9-0.1,5.8,0,8.6,0.3c-2.9,0.3-5.8,0.3-8.6,0.3c-2.9,0.1-5.8,0-8.6-0.3
	C511.9,444,514.8,443.9,517.7,444z"/>
<path class="st2" d="M589.7,455.5c2.9-0.1,5.8,0,8.6,0.3c-2.9,0.3-5.8,0.3-8.6,0.3c-2.9,0.1-5.8,0-8.6-0.3
	C584,455.5,586.9,455.4,589.7,455.5z"/>
<path class="st2" d="M486.2,455c2.8-0.1,5.6,0,8.3,0.3c-2.8,0.3-5.5,0.4-8.3,0.3c-2.8,0.1-5.5,0-8.3-0.3
	C480.6,455,483.4,454.9,486.2,455z"/>
<path class="st2" d="M568.8,423.1c17.7,0,32,0.1,32,0.3s-14.3,0.3-32,0.3s-32-0.1-32-0.3C536.8,423.2,551.2,423.1,568.8,423.1z"/>
<path class="st2" d="M535.3,434.6c17.7,0,32,0.1,32,0.3s-14.3,0.3-32,0.3s-32-0.1-32-0.3C503.3,434.7,517.7,434.6,535.3,434.6z"/>
<path class="st2" d="M465.6,423.1c17.7,0,32,0.1,32,0.3s-14.3,0.3-32,0.3s-32-0.1-32-0.3C433.6,423.2,448,423.1,465.6,423.1z"/>
<path class="st2" d="M518.3,423.1c2.9-0.1,5.8,0,8.6,0.3c-2.9,0.3-5.8,0.3-8.6,0.3c-2.9,0.1-5.8,0-8.6-0.3
	C512.5,423.1,515.4,423,518.3,423.1z"/>
<path class="st2" d="M590.3,434.6c2.9-0.1,5.8,0,8.6,0.3c-2.9,0.3-5.8,0.3-8.6,0.3c-2.9,0.1-5.8,0-8.6-0.3
	C584.6,434.6,587.5,434.5,590.3,434.6z"/>
<path class="st2" d="M486.8,434.1c2.8-0.1,5.5,0,8.3,0.3c-2.8,0.3-5.5,0.3-8.3,0.3c-2.8,0.1-5.6,0-8.3-0.3
	C481.2,434.1,484,434,486.8,434.1z"/>
<path class="st4" d="M497.9,399.6v21.9h-4.1V412h-11.3v9.4h-4.1v-21.8h4.1v9h11.3v-9H497.9z"/>
<path class="st4" d="M508.2,403H501v-3.4h18.5v3.4h-7.2v18.4h-4.1V403z"/>
<path class="st4" d="M542.6,421.4v-14.5l-7.2,12h-1.8l-7.2-11.8v14.3h-3.9v-21.9h3.3l8.7,14.4l8.5-14.5h3.3v21.9L542.6,421.4z"/>
<path class="st4" d="M552.4,399.6h4.1V418h11.4v3.4h-15.5V399.6z"/>
<path class="st3" d="M567.2,160.2L567.2,160.2c3.9,11.5,14.6,19.4,26.8,19.8c16.2,0.5,29.7-12.2,30.2-28.3S612,122,595.9,121.5
	c-16.2-0.5-29.7,12.2-30.2,28.3l-11.2,5.7L567.2,160.2z"/>
<path class="st4" d="M567.3,160.1l-0.2,0.1l0,0C567.1,160.2,567.2,160.1,567.3,160.1C567.3,160.1,567.4,160.1,567.3,160.1
	c1.7,4.9,4.7,9.2,8.5,12.6c1.2,1,2.4,1.9,3.7,2.7c0.7,0.4,1.4,0.8,2.1,1.2l2.2,1c6.9,2.8,14.5,2.9,21.4,0.2
	c3.8-1.5,7.3-3.7,10.2-6.6c3-3.1,5.4-6.8,6.8-10.9c1.5-4.3,2-8.8,1.4-13.3c-0.6-4.6-2.3-8.9-4.9-12.7c-2.5-3.6-5.8-6.6-9.7-8.8
	c-3.6-2.1-7.7-3.3-11.8-3.6c-7.5-0.6-14.9,1.7-20.7,6.5c-2.4,2-4.6,4.4-6.3,7.1c-2.7,4.3-4.2,9.3-4.4,14.4c0,0,0,0.1-0.1,0.1
	l-11.3,5.6l11.1-5.8l-0.1,0.1c0.1-5.1,1.6-10.2,4.3-14.5c1.7-2.7,3.8-5.2,6.3-7.2c5.9-4.8,13.4-7.2,21-6.6c4.2,0.3,8.3,1.6,12,3.7
	c3.9,2.2,7.3,5.3,9.9,8.9c2.7,3.9,4.4,8.3,5,13c0.6,4.6,0.1,9.2-1.4,13.5c-1.5,4.2-3.8,7.9-6.9,11.1c-2.9,3-6.5,5.2-10.4,6.7
	c-7,2.7-14.8,2.6-21.8-0.3l-2.2-1.1c-0.7-0.4-1.4-0.8-2.1-1.2c-1.3-0.8-2.6-1.7-3.7-2.8c-3.9-3.4-6.8-7.8-8.5-12.7h0.2l0,0
	c0,0,0,0,0,0.1c0,0,0,0,0,0c0,0.1-0.1,0.1-0.1,0l-12.7-4.8L567.3,160.1z"/>
<path class="st4" d="M587.7,156.7l-1.4-1.2c-1.2-1.1-2.7-2.5-4.5-4.2l0,0l-0.1-0.1l0.1-0.1c1.7-1.6,3.3-3.1,4.5-4.1l1.4-1.2
	c0.3-0.3,0.5-0.4,0.5-0.4c-0.1,0.2-0.3,0.3-0.5,0.5l-1.3,1.3c-1.1,1.1-2.7,2.6-4.4,4.2v-0.2l0,0c1.7,1.6,3.3,3.2,4.4,4.2
	L587.7,156.7c0.3,0.1,0.4,0.2,0.5,0.4C588.1,157,587.9,156.9,587.7,156.7z"/>
<path class="st4" d="M587.6,156.8l-1.3-1.3c-1.2-1-2.7-2.4-4.3-4l0,0l0,0l-0.1-0.1l-0.3-0.2l0.2-0.2l0.2-0.2l0,0l0,0
	c1.6-1.5,3.1-2.9,4.3-3.9l1.4-1.2c0.5-0.4,0.6-0.5,0.7-0.4s0,0.2-0.5,0.7l-1.3,1.3c-1.2,1.1-2.6,2.5-4.2,4c1.6,1.5,3.1,3,4.2,4.1
	l1.3,1.3c0.5,0.5,0.5,0.6,0.5,0.7l0,0c0,0-0.1,0-0.1,0C588.2,157.3,588,157.2,587.6,156.8z M582.2,151.3L582.2,151.3
	c1.2,1.2,2.4,2.3,3.4,3.2L582.2,151.3L582.2,151.3z M582,151.1L582,151.1L582,151.1z M585.5,147.9c-1,0.9-2.2,2-3.3,3.1l0,0
	C583.4,149.8,584.5,148.8,585.5,147.9L585.5,147.9z"/>
<path class="st4" d="M602.3,145.8l1.4,1.2c1.1,1.1,2.7,2.5,4.5,4.2l0,0l0.1,0.1l-0.1,0.1c-1.7,1.6-3.3,3.1-4.5,4.1l-1.4,1.2
	c-0.2,0.2-0.3,0.3-0.5,0.4c0,0,0.1-0.2,0.5-0.5l1.3-1.3c1.1-1.1,2.7-2.6,4.4-4.2v0.2l0,0c-1.7-1.6-3.3-3.1-4.4-4.2l-1.3-1.3
	c-0.2-0.1-0.3-0.3-0.5-0.5C601.9,145.4,602.1,145.6,602.3,145.8z"/>
<path class="st4" d="M601.5,157.3c-0.1-0.1,0-0.2,0.5-0.7l1.3-1.3c1.1-1.1,2.6-2.5,4.2-4c-1.6-1.5-3.1-3-4.2-4.1L602,146
	c-0.5-0.5-0.5-0.6-0.5-0.7c0.1-0.1,0.2-0.1,0.7,0.4l1.4,1.2c1.2,1.1,2.7,2.5,4.3,4.1l0,0l0,0l0.1,0.1l0.2,0.2l-0.2,0.2l-0.2,0.2l0,0
	l0,0c-1.6,1.5-3.1,2.9-4.3,3.9l-1.4,1.2C601.9,157.2,601.7,157.3,601.5,157.3C601.6,157.3,601.6,157.3,601.5,157.3z M607.7,151.5
	l-3.3,3.1C605.4,153.7,606.5,152.7,607.7,151.5L607.7,151.5z M608,151.3L608,151.3L608,151.3z M607.8,151.1
	c-1.2-1.2-2.4-2.3-3.4-3.3C605.4,148.8,606.5,149.9,607.8,151.1L607.8,151.1L607.8,151.1L607.8,151.1z"/>
<path class="st4" d="M594.8,151.3c-1.8-4.8-3.2-8.8-3.1-8.8s1.6,3.9,3.4,8.7s3.2,8.9,3.1,8.9C598.2,160,596.6,156.1,594.8,151.3z"/>
<path class="st4" d="M591.7,160.1L591.7,160.1L591.7,160.1c-0.2-0.1-0.2-0.1,0.7-2.8c0.6-1.7,1.4-3.9,2.3-6.2
	c0.9-2.3,1.7-4.6,2.4-6.2c1-2.7,1.1-2.7,1.2-2.6c0.1,0.1,0.2,0.1-0.8,2.8c-0.6,1.7-1.4,3.9-2.3,6.2c-0.9,2.3-1.7,4.6-2.4,6.2
	C591.9,159.8,591.8,160.1,591.7,160.1z M596.8,146.1c-0.5,1.4-1.2,3.1-1.9,5s-1.4,3.6-1.9,5c0.5-1.4,1.2-3,1.9-5
	S596.3,147.5,596.8,146.1L596.8,146.1z"/>
<g id="freepik--Floor--inject-4">
	<path class="st4" d="M393.6,472.4c169,0,306,0.1,306,0.3s-137,0.3-306,0.3s-306-0.1-306-0.3S224.6,472.4,393.6,472.4z"/>
</g>
<g id="freepik--Character--inject-4">
	<path class="st4" d="M494.7,190.5c-0.4,5.8-6.5,11.6-10.9,15.4c-0.9,0.8-1.9,1.5-3.1,1.9c-1.5,0.4-3,0.4-4.5-0.1
		c-3.2-0.9-5.9-3.1-7.5-6c-2.4,1.5-5.5,1.7-8,0.4c-4.1-2-5.7-7-3.6-11c0.4-0.9,1-1.9,0.7-2.7s-1.2-1.2-2-1.6
		c-1.6-0.8-2.8-2.2-3.6-3.7c-2.1-4.2-0.3-9.4,3.9-11.4c0.7-0.3,1.4-0.7,2-1.2c1.3-1.4,0.5-3.7,0.8-5.6c0.7-4,6-5.5,7.5-9.3
		c0.9-2.3,0.1-4.9-0.3-7.3s-0.4-5.4,1.6-6.9c1.1-0.8,2.5-1.1,3.5-1.9c2.1-1.7,1.5-5,2-7.7c0.9-4.4,4.8-7.5,9.3-7.4c0,0-2.2-3.5,2-6
		c5.1-3,5.9,0.8,8.1-1.9c2.4-3,6.6-3.8,10-2.1c1,0.6,2,1.2,3,1.7c1.4,0.3,2.8,0.5,4.2,0.5c5.5,0.6,9.9,4.8,10.8,10.2"/>
	<path class="st8" d="M408.4,198.4c0,0,19.1,28.6,28.1,40.1c1.9,2.4,4.9,2.6,6.7,3c11.2,2.3,52.1-16.5,52.1-16.5l-6.3-30.7
		c0,0-39.9,23.9-43.1,24.6l-26.2-24L408.4,198.4z"/>
	<path class="st8" d="M404.5,170.7c0.8,2.5,4.6,9.5,4.6,9.5c0,0,0,0,0,0c-1.7,0-3,1.3-3.1,2.9c0,0-2.9-0.7-2.9,2.7
		c0,0-2.4,0.7-0.9,4.1s3.8,8.3,6.2,8.4l2.6,0.5l8.6-3.9c0,0,0.9-5.4,1.4-9.7c0-0.1,0-0.2,0-0.3c0.1-2.7-1.9-5-4.6-5.2l-1.5-0.1
		c0,0-6.2-10.4-7.9-11.1C405.2,167.8,403.8,168.2,404.5,170.7z"/>
	<path class="st9" d="M407.3,185.2c0.2,0.3,0.3,0.7,0.6,1c0.2,0.4,0.6,0.7,0.9,1c0.4,0.3,0.8,0.5,1.3,0.6c0.5,0.1,1,0,1.4-0.3
		c0.4-0.3,0.5-0.8,0.4-1.3c-0.1-0.5-0.2-1-0.4-1.4c-0.3-0.8-0.6-1.6-1-2.4c-0.6-1.3-1.1-2.1-1.1-2.1c0.2,0.1,0.3,0.3,0.4,0.5
		c0.3,0.5,0.6,1,0.9,1.5c0.4,0.8,0.8,1.5,1.1,2.4c0.2,0.5,0.3,1,0.4,1.5c0.1,0.3,0.1,0.6,0,0.9c-0.1,0.3-0.2,0.6-0.5,0.8
		c-0.5,0.4-1.1,0.5-1.7,0.4c-0.5-0.1-1-0.4-1.4-0.7c-0.4-0.3-0.7-0.7-0.9-1.1c-0.2-0.3-0.4-0.7-0.5-1.1c-0.4-0.7-0.7-1.4-0.9-2.2
		C406.6,183.8,407,184.5,407.3,185.2z"/>
	<path class="st9" d="M404.2,187.5c0.3,0.7,0.8,1.4,1.3,2c0.3,0.4,0.7,0.6,1.1,0.8c0.3,0.2,0.6,0.2,0.9,0.1c0.6-0.2,1-0.9,0.8-1.5
		c-0.1-0.5-0.2-0.9-0.4-1.4c-0.3-0.9-0.6-1.7-0.9-2.3c-0.5-1.3-0.9-2.1-0.9-2.1c0.1,0.2,0.3,0.3,0.3,0.5c0.2,0.3,0.5,0.9,0.8,1.5
		c0.4,0.7,0.7,1.5,0.9,2.3c0.2,0.5,0.3,0.9,0.4,1.4c0.1,0.4,0.1,0.8-0.1,1.1c-0.4,0.7-1.3,1-2,0.6c-0.5-0.2-0.9-0.5-1.2-0.9
		c-0.5-0.6-1-1.4-1.3-2.1c-0.2-0.5-0.4-1-0.6-1.6c-0.1-0.2-0.1-0.4-0.1-0.6C403.3,185.3,403.6,186.2,404.2,187.5z"/>
	<path class="st9" d="M402.3,189.4c0.2,0.5,0.5,1.1,0.8,1.5c0.2,0.3,0.4,0.5,0.6,0.8c0.2,0.2,0.6,0.4,0.9,0.3
		c0.3-0.1,0.5-0.4,0.6-0.7c0.1-0.3,0.1-0.7,0-1c-0.1-0.6-0.3-1.1-0.5-1.6c-0.3-0.5-0.4-1-0.5-1.6c0.3,0.5,0.5,1,0.8,1.4
		c0.3,0.5,0.5,1.1,0.6,1.7c0.1,0.4,0.1,0.7,0.1,1.1c-0.1,0.4-0.4,0.8-0.8,0.9c-0.4,0.1-0.9-0.1-1.2-0.4c-0.3-0.3-0.5-0.5-0.7-0.9
		c-0.3-0.5-0.6-1.1-0.8-1.6c-0.2-0.5-0.3-1.1-0.3-1.6C401.8,187.9,401.9,188.5,402.3,189.4z"/>
	<path class="st8" d="M414.3,191c-0.1-0.1-0.2-0.2-0.3-0.3c-1.9-2-1.8-5.2,0.2-7.1c-1.3,0.1-2.7,0-3.9-0.6c-1.3-0.6-1.9-2-1.5-3.3
		c2.5-0.2,5.1-0.2,7.6-0.1"/>
	<path class="st9" d="M413.9,190.6c-0.4-0.4-0.8-0.9-1-1.5c-0.4-0.8-0.5-1.8-0.3-2.6c0.2-1.1,0.7-2.2,1.6-3l0.1,0.3
		c-1.2,0.1-2.5,0-3.6-0.4c-0.7-0.3-1.3-0.8-1.7-1.5c-0.4-0.6-0.5-1.4-0.2-2.1v-0.1h0.1c2.2-0.1,4.2-0.1,5.5-0.1
		c0.7,0,1.2,0.1,1.6,0.1c0.2,0,0.4,0,0.6,0.1c-0.2,0-0.4,0-0.6,0h-1.6c-1.3,0-3.3,0-5.5,0.2l0.1-0.1c-0.5,1.2,0.4,2.7,1.8,3.2
		c1.1,0.4,2.3,0.5,3.5,0.4h0.4l-0.3,0.3c-1.5,1.4-2,3.5-1.2,5.3c0.3,0.7,0.7,1.4,1.2,1.9C414.1,190.9,414,190.8,413.9,190.6z"/>
	<path class="st4" d="M466.3,450.3c0.1-0.5,0.2-1.2,0.7-1.2c0.2,0,0.4,0.1,0.4,0.4c0,0.3,0,0.7,0,1c-0.1,0.7-0.1,1.5-0.2,2.2
		c0,0.3-0.2,0.6-0.5,0.7c-0.3,0.1-0.7,0.1-1.1,0c-0.8-0.1-1.5-0.4-2.2-0.6c-0.3-0.2-0.7-0.3-1-0.5c-0.3-0.1-0.6-0.3-0.8-0.6
		c-0.2-0.2-0.2-0.4-0.1-0.6c0.1-0.1,0.4-0.1,0.7-0.1c0.5,0.1,1.1,0.3,1.6,0.6c1,0.5,2,1.2,2.9,1.9c0,0-0.2-0.3-0.6-0.7
		c-0.6-0.6-1.3-1.1-2.1-1.5c-0.5-0.3-1.1-0.5-1.7-0.7c-0.4-0.1-0.8,0-1.1,0.3c-0.3,0.4-0.3,0.9,0,1.3c0.3,0.3,0.6,0.5,1,0.7
		c0.3,0.2,0.7,0.4,1,0.5c0.8,0.3,1.5,0.6,2.4,0.7c0.4,0.1,0.9,0.1,1.4-0.1c0.5-0.2,0.8-0.6,0.9-1.1c0.1-0.8,0.1-1.5,0.2-2.3
		c0-0.4,0-0.7,0-1.1c0-0.2-0.1-0.4-0.3-0.6c-0.2-0.2-0.4-0.2-0.6-0.2c-0.4,0.1-0.7,0.3-0.9,0.7c-0.1,0.3-0.2,0.6-0.2,0.9
		c-0.1,0.9,0,1.7,0.2,2.6c0.1,0.3,0.2,0.6,0.4,0.9C466.2,452.6,466.1,451.5,466.3,450.3z"/>
	<path class="st4" d="M425.3,410.4c0.3-0.4,0.7-0.9,1.1-0.7c0.1,0.1,0.2,0.2,0.1,0.5c-0.1,0.3-0.3,0.6-0.5,0.9
		c-0.4,0.6-0.7,1.3-1.1,1.9c-0.2,0.3-0.5,0.4-0.8,0.4c-0.4-0.1-0.7-0.2-1-0.5c-0.6-0.5-1.2-1-1.7-1.6c-0.2-0.3-0.5-0.6-0.7-0.9
		c-0.2-0.3-0.4-0.5-0.5-0.9c-0.1-0.2,0-0.5,0.2-0.6c0.2-0.1,0.5,0,0.7,0.2c0.4,0.4,0.8,0.8,1.2,1.2c0.7,0.9,1.2,2,1.7,3
		c0-0.3-0.1-0.6-0.2-0.9c-0.3-0.8-0.7-1.6-1.2-2.3c-0.3-0.5-0.7-1-1.2-1.4c-0.3-0.3-0.7-0.4-1.1-0.2c-0.4,0.2-0.7,0.7-0.5,1.2
		c0.1,0.4,0.3,0.7,0.5,1.1c0.7,1,1.5,1.9,2.5,2.6c0.4,0.3,0.8,0.5,1.2,0.5c0.5,0.1,1-0.2,1.3-0.6c0.5-0.8,0.8-1.4,1.1-2
		c0.2-0.3,0.4-0.7,0.5-1c0.1-0.2,0.1-0.4,0-0.6c-0.1-0.2-0.3-0.4-0.5-0.5c-0.4-0.1-0.8,0-1.1,0.2c-0.2,0.2-0.4,0.4-0.6,0.7
		c-0.5,0.7-0.8,1.5-1,2.4c-0.1,0.3-0.1,0.6,0,1C424.1,412.4,424.6,411.4,425.3,410.4z"/>
	<polygon class="st8" points="472.8,407.9 485.4,440.6 465.7,449.7 453.5,423.3 	"/>
	<path class="st6" d="M485.1,436.8l11.8,27.3L454,484.6c-1.7-4.2,16.5-23.1,16.5-23.1l-7.1-13.6L485.1,436.8z"/>
	<path class="st1" d="M483,453.3c-1,0.2-1.7,1.1-1.7,2.1c0.3,1,1.2,1.7,2.3,1.5c1-0.2,1.6-1.2,1.4-2.2c-0.3-1-1.2-1.6-2.2-1.4"/>
	<g class="st10">
		<path class="st3" d="M454,484.6c-0.9-1.2,0.6-3,0.6-3l40.5-21l1.8,3.4L454,484.6z"/>
	</g>
	<path class="st4" d="M472.4,460.8c1.7,0.2,2.6,1.2,2.4,1.4s-1.1-0.4-2.5-0.6s-2.5,0.2-2.6,0C469.6,461.5,470.7,460.7,472.4,460.8z"
		/>
	<path class="st4" d="M468.7,465.6c1.4,0.6,1.9,1.9,1.7,2s-0.9-0.7-2-1.3s-2.2-0.5-2.3-0.7C466,465.5,467.3,465,468.7,465.6z"/>
	<path class="st4" d="M464.5,470.8c-0.9-0.7-1.8-1.1-1.8-1.3s1.2-0.2,2.3,0.7s1.3,2.1,1.1,2.1C465.9,472.4,465.4,471.5,464.5,470.8z
		"/>
	<path class="st4" d="M469.6,454.5c1.4-0.6,2.7-0.2,2.6,0s-1.1,0.3-2.4,0.8s-2,1.2-2.2,1.1C467.5,456.3,468.1,455.1,469.6,454.5z"/>
	<path class="st4" d="M482.2,425.1l-20.7-59.2l30.7-11.2l56.3-1.7c0,0,7.7-6.7,9.4-15.7c1.8-9-8-25.3-21-30c-13-4.7-32.5,0-32.5,0
		s-76.6,25.3-79.1,29.6s-3.2,18.1-3.2,18.1l31.1,77.3C471.6,436.7,482.2,425.1,482.2,425.1z"/>
	<polygon class="st8" points="449.8,375.2 446.7,410.1 425,409.6 425.7,380.5 	"/>
	<path class="st6" d="M448.1,406.6l-1.5,29.7l-47.6-0.5c0.3-4.5,25-13.4,25-13.4l-0.4-15.4L448.1,406.6z"/>
	<path class="st1" d="M439,420.5c-1-0.3-2.1,0.2-2.4,1.1c-0.2,1,0.4,2,1.4,2.4c1,0.2,1.9-0.4,2.2-1.3c0.2-1-0.4-1.9-1.3-2.2"/>
	<g class="st10">
		<path class="st3" d="M399.1,435.8c-0.2-1.5,1.9-2.4,1.9-2.4l45.6-1l0.1,3.9L399.1,435.8z"/>
	</g>
	<path class="st4" d="M426.1,422.5c1.4,0.9,1.7,2.2,1.5,2.3s-0.8-0.9-2-1.6s-2.3-0.9-2.3-1.1C423.3,421.9,424.7,421.6,426.1,422.5z"
		/>
	<path class="st4" d="M420.7,425.2c1,1.2,0.8,2.5,0.6,2.5s-0.5-1-1.2-2s-1.8-1.4-1.7-1.6C418.3,423.9,419.7,424,420.7,425.2z"/>
	<path class="st4" d="M414.6,428c-0.4-1-1.1-1.7-1-1.9s1.2,0.3,1.8,1.6s0.2,2.4,0,2.4C415.2,430,415.1,429,414.6,428z"/>
	<path class="st4" d="M426.3,415.7c1.5,0.1,2.5,0.9,2.4,1.1s-1.1-0.2-2.5-0.3s-2.4,0.2-2.5,0C423.6,416.3,424.8,415.5,426.3,415.7z"
		/>
	<path class="st4" d="M504.5,307.3l-48.4,20.6l-4.7,67.2l-30.4-2.5c0,0,1.4-65.8,2.9-79.9s14.4-13.1,14.4-13.1
		C447,297.9,504.5,307.3,504.5,307.3z"/>
	<path class="st4" d="M545.6,280.6c0,0,17.6,23,17.6,35.7s-5.2,21-5.2,21l-50.7-19.5c0,0-20.3-10.1-21.8-12.6s6.4-24.6,6.4-24.6
		H545.6z"/>
	<path class="st6" d="M506.7,306.3l-0.7,0.3l-2.9,1.2l-10.6,4.5L456,327.6l-0.2,0.1v0.2c-0.5,6.6-1,13.8-1.5,21.2
		c-1.2,17.4-2.3,33.3-3.2,46l0.2-0.2l-22.1-1.8l-6.1-0.4l-1.6-0.1h-0.5c0.2,0,0.4,0.1,0.5,0.1l1.6,0.2l6.1,0.6l22.1,1.9h0.2v-0.2
		c0.9-12.7,2-28.6,3.3-46c0.5-7.4,1-14.6,1.5-21.2l-0.2,0.2l36.4-15.7l10.5-4.6l2.8-1.2L506.7,306.3c0.2-0.1,0.2-0.1,0.2-0.1
		C506.9,306.2,506.8,306.2,506.7,306.3z"/>
	<path class="st6" d="M545.9,307.8c-0.9-0.4-2.2-0.8-3.8-1.4c-4.2-1.5-8.5-2.7-12.8-3.4c-4.4-0.7-8.9-0.6-13.3,0.3
		c-1.3,0.3-2.6,0.7-3.8,1.2c-0.5,0.2-0.9,0.4-1.3,0.7c1.7-0.6,3.5-1.1,5.3-1.5c4.3-0.8,8.7-0.9,13.1-0.2c4.3,0.7,8.6,1.8,12.8,3.2
		l3.8,1.2c0.5,0.2,0.9,0.3,1.4,0.4C546.9,308.1,546.4,307.9,545.9,307.8z"/>
	<path class="st6" d="M539,296.5c-1.1-0.1-2.2-0.2-3.3-0.1c-1.4,0-3,0.2-4.8,0.4c-1.8,0.2-3.8,0.4-5.9,0.8c-3.6,0.6-7,1.9-10.1,3.9
		c-0.9,0.6-1.7,1.4-2.5,2.2c-0.3,0.3-0.5,0.6-0.7,1c1.1-1,2.2-1.9,3.4-2.8c3-1.9,6.4-3.1,9.9-3.7c2-0.4,4-0.6,5.8-0.9
		s3.4-0.4,4.8-0.5c1.5-0.1,3-0.1,4.4,0C539.8,296.6,539.4,296.5,539,296.5z"/>
	<path class="st8" d="M483.1,222c-0.1,0.4-1.5-6.1-2.4-9.5s-1.7-6.1,1.5-11.7c1.9-3.3,4.8-5.9,8.4-7.3
		C490.6,193.5,483.2,221.6,483.1,222z"/>
	<polygon class="st8" points="484.8,222.6 486.2,237.6 499.7,244.4 522.5,230 535.2,188.6 497.7,189.6 491,193.5 	"/>
	<path class="st5" d="M491.5,193.3c0,0-3.1,13.3-2.8,21.6s7.6,14.3,7.6,14.3s9-7.1,15.4-13.4c6.3-6.3,7.3-11.1,10.3-20.2
		c3-9.2,11.2-7.3,15.6-6.4s11.3,11.3,11.3,11.3s9.9,62.3,9.3,69.6c-0.5,7.3-12.7,10.6-12.7,10.6h-53.7c-5.4,0-7-12.2-6.6-16.7
		s-2.9-26.9-3.1-34.9s8.4-35.6,8.4-35.6L491.5,193.3z"/>
	<path class="st4" d="M496.8,279.8c-1.4-1.3-2.5-2.8-3.3-4.5c-0.8-1.7-1.4-3.5-1.9-5.3c-0.2-0.8-0.4-1.5-0.8-2.2
		c0,0.8,0.1,1.6,0.4,2.4c0.4,1.9,1,3.7,1.8,5.5c0.8,1.8,2.1,3.3,3.6,4.5c0.6,0.5,1.3,0.9,2.1,1.1
		C498.6,281.1,497.8,280.8,496.8,279.8z"/>
	<path class="st4" d="M523.2,248.9c-3.2,1.4-6.8,1.7-10.2,0.9c-3.4-0.9-6.5-2.6-9-5c-2-1.8-2.9-3.2-3-3.1c0.2,0.4,0.4,0.7,0.6,1
		c0.6,0.9,1.3,1.7,2.1,2.4c2.5,2.6,5.6,4.4,9.1,5.3c1.9,0.4,3.9,0.5,5.9,0.2c1.6-0.2,3.1-0.7,4.6-1.4c1-0.4,1.9-1,2.8-1.6
		c0.3-0.2,0.6-0.5,0.9-0.8C527,246.9,525.6,247.9,523.2,248.9z"/>
	<path class="st4" d="M497.4,278.1c-0.1-0.7-0.2-1.5-0.3-2.2c-0.1-0.1-0.5,1-0.2,2.3s1,2.2,1.1,2.1
		C498.1,280.1,497.6,279.2,497.4,278.1z"/>
	<g class="st11">
		<path d="M502.1,243.1l-0.4-0.5c3.5,5.6,10,8.7,16.5,7.8c3-0.6,5.9-1.6,8.6-3c-0.8,4.1-3.8,7.4-7.9,8.5c-4,1.1-8.3,0.1-11.5-2.4
			c-3.2-2.6-5.1-6.4-5.5-10.6"/>
	</g>
	<g class="st11">
		<path d="M490.7,268.3c1,4.5,3.2,8.7,6.2,12.3c-0.9,0.2-1.8-0.1-2.4-0.8c-3.2-2.8-4.6-7.1-3.8-11.2"/>
	</g>
	<path class="st5" d="M539.2,191.1c-5.1-1.8-12.8,2-15.8,9c-3,7-0.1,12.2,0.9,15.6s12,27.7,12,27.7l27.1-12.7
		C563.2,230.7,551.1,195.2,539.2,191.1z"/>
	<path class="st5" d="M486.6,213.9l6.3-21.8c-7.2,1.9-19.8,10.5-32.2,18.7l8.3,27.4c0,0,14.5-7.6,15.8-7.6L486.6,213.9z"/>
	<path class="st8" d="M560.8,231.8l9.5,26.2c2.1,6.8-3.8,12.8-3.8,12.8l-59.6,24.5l-5.4-12.4l46-28c0,0-3.6-4.8-8.7-13.3
		L560.8,231.8z"/>
	<path class="st9" d="M558.8,259.2c-3-3-7.2-4.6-11.5-4.3c2,0.3,4,0.8,6,1.4C555.1,257.2,557,258.1,558.8,259.2L558.8,259.2z"/>
	<path class="st4" d="M562.7,231l-1.5,0.7l-5.4,2.6l-17.9,8.3l-2.2,1l-0.2,0.1l-0.1-0.2c-3.1-6.4-5.8-12.2-7.6-16.4
		c-0.9-2.1-1.7-3.8-2.1-5c-0.2-0.6-0.4-1-0.5-1.4c-0.1-0.2-0.1-0.3-0.1-0.5c0.1,0.1,0.2,0.3,0.2,0.4c0.2,0.3,0.4,0.8,0.6,1.3
		c0.6,1.2,1.3,2.9,2.3,4.9c1.9,4.2,4.7,9.9,7.8,16.4l-0.3-0.1l2.2-1l18-8.2l5.5-2.4l1.5-0.6c0.2-0.1,0.3-0.1,0.5-0.2
		C563.1,230.8,562.9,230.9,562.7,231z"/>
	<path class="st4" d="M486,207.3c-0.4,1.2-0.8,2.5-1.1,3.7c-0.9,4.2-1.5,8.4-1.7,12.6c-0.3,4.3-0.3,8.5,0,12.8
		c0.1,1.6,0.2,3,0.3,3.9c0.1,0.5,0.1,1,0.1,1.4c-0.2-0.5-0.3-0.9-0.3-1.4c-0.2-0.9-0.3-2.2-0.5-3.9c-0.3-4.3-0.4-8.6-0.1-12.9
		c0.2-4.3,0.8-8.6,1.9-12.7c0.3-1.3,0.7-2.5,1.2-3.7c0.2-0.4,0.4-0.9,0.6-1.3C486.4,206.3,486.2,206.8,486,207.3z"/>
	<path class="st8" d="M469.4,298.8l9.8-1l18.8,0.6c3.1-0.2,8.9-3.1,8.9-3.1l-5.4-12.4l-1.9,1.3l-22.4,1.8l-11.5,5.4L469.4,298.8z"/>
	<path class="st6" d="M478.4,147.4c-3.1-0.7-5.9-2.5-7.8-5c-0.4-0.6-0.7-1.1-1.2-1.6c0.2,0.7,0.5,1.3,0.9,1.8
		c0.9,1.4,2.1,2.5,3.5,3.4c1.4,0.9,2.9,1.5,4.6,1.8c0.7,0.1,1.3,0.1,2,0C479.7,147.7,479,147.5,478.4,147.4z"/>
	<path class="st6" d="M477.7,137.3c-3.3,0.9-6.1,0.1-6.1,0.2c0.5,0.3,1.2,0.5,1.8,0.5c3,0.4,6.1-0.3,8.5-2.2
		c0.9-0.7,1.3-1.3,1.3-1.3C481.6,135.8,479.7,136.7,477.7,137.3z"/>
	<path class="st6" d="M459.4,199c-0.8-0.7-1.5-1.5-1.9-2.5c-0.6-1.3-0.7-2.7-0.4-4.1c0.2-0.8,0.5-1.6,0.9-2.2
		c0.5-0.7,1.1-1.4,1.8-1.9c0.8-0.6,1.4-1.4,2-2.2c0.6-1,0.6-2.2,0.1-3.2c-0.5-1-1.2-1.9-1.9-2.7c-0.3-0.4-0.7-0.9-0.9-1.3
		c-0.2-0.5-0.4-1-0.5-1.5c-0.3-2.3,0.9-4.6,3-5.6c1.1-0.4,2.3-0.6,3.5-0.8c0.6-0.1,1.2-0.4,1.7-0.7c0.5-0.4,0.9-0.9,1.1-1.6
		c0.3-1.2,0.1-2.4-0.4-3.5c-0.4-1-1-1.9-1.4-2.9c-0.4-0.9-0.5-1.9-0.2-2.9c0.3-0.9,0.9-1.6,1.6-2.2c1.4-1,3-1.6,4.7-2
		c1.4-0.4,2.7-1,3.9-1.9c0.9-0.7,1.4-1.7,1.6-2.9c0.1-0.7,0-1.4-0.3-2c-0.1-0.2-0.3-0.4-0.5-0.6c0,0,0.2,0.2,0.4,0.6
		c0.3,0.6,0.4,1.3,0.2,2c-0.2,1-0.8,2-1.6,2.6c-1.1,0.8-2.4,1.4-3.8,1.8c-1.7,0.4-3.4,1-4.8,2c-0.8,0.6-1.5,1.4-1.8,2.4
		c-0.3,1.1-0.2,2.2,0.2,3.2c0.4,1,0.9,1.9,1.4,2.9c0.4,1,0.6,2.1,0.4,3.1c-0.1,0.5-0.5,1-0.9,1.3c-0.5,0.3-1,0.5-1.5,0.6
		c-1.2,0.2-2.4,0.4-3.6,0.8c-2.3,1.1-3.6,3.6-3.3,6.2c0.1,0.6,0.3,1.2,0.6,1.7c0.3,0.5,0.6,1,1,1.4c0.7,0.8,1.4,1.6,1.9,2.6
		c0.4,0.9,0.4,1.9-0.1,2.7c-0.5,0.8-1.2,1.5-1.9,2.1c-0.7,0.6-1.3,1.3-1.9,2.1c-0.5,0.7-0.8,1.5-0.9,2.4c-0.3,1.5-0.1,3,0.5,4.3
		c0.5,1,1.2,1.9,2.1,2.6c0.5,0.4,1.2,0.8,1.8,1c0.2,0.1,0.4,0.1,0.5,0.1h0.2C460.9,200,460.1,199.6,459.4,199z"/>
	<path class="st8" d="M522.8,193.9l-28.2,0.8l-0.5-12.7c0,0-9.8-1.2-12.4-13.8c-1.3-6.3-1.4-16.7-1.2-25.2
		c0.2-7.7,8.1-15.6,15.7-15.1l24.9,3.7l0.1,4.1L522.8,193.9z"/>
	<path class="st4" d="M483.8,152.3c0-0.9,0.8-1.6,1.6-1.5c0.9,0,1.6,0.7,1.6,1.6c0,0,0,0,0,0c0,0.9-0.8,1.5-1.6,1.5
		C484.5,153.9,483.8,153.2,483.8,152.3C483.8,152.3,483.8,152.3,483.8,152.3z"/>
	<path class="st4" d="M484.1,147.3c0.7-0.6,1.6-0.9,2.5-0.9c0.9,0,1.8,0.2,2.6,0.7c0.6,0.4,0.9,0.6,0.7,0.9s-1.5-0.6-3.3-0.5
		s-3,1-3.2,0.8C483.4,148.2,483.5,147.8,484.1,147.3z"/>
	<path class="st4" d="M500,151.6c0-0.9,0.8-1.5,1.6-1.5c0.9,0,1.6,0.7,1.6,1.6c0,0,0,0,0,0c0,0.9-0.8,1.6-1.6,1.5
		C500.8,153.3,500.1,152.5,500,151.6C500,151.6,500,151.6,500,151.6z"/>
	<path class="st4" d="M501.3,147c0.7-0.6,1.6-0.9,2.5-0.9c0.9,0,1.8,0.2,2.6,0.7c0.6,0.4,0.9,0.6,0.7,0.9s-1.5-0.6-3.3-0.5
		s-3,1-3.2,0.8C500.6,147.8,500.8,147.4,501.3,147z"/>
	<path class="st4" d="M492,161.3c-0.3,0-0.5,0-0.8-0.1c-0.3-0.1-0.6-0.3-0.8-0.6c-0.2-0.6-0.1-1.2,0.2-1.8c0.4-1.1,0.7-2.3,1.1-3.5
		c1.6-4.9,3.1-8.9,3.3-8.8s-1,4.1-2.6,9.1c-0.4,1.2-0.8,2.4-1.2,3.5c-0.2,0.4-0.3,0.9-0.2,1.4c0.1,0.3,0.5,0.4,1,0.4
		c1,0,1.9,0.1,2.9,0.4C493.9,161.3,493,161.4,492,161.3z"/>
	<path class="st9" d="M494.2,185.2c13.2,0.6,17.2-8.5,17.2-8.5c-5.2,3.3-11.2,5.1-17.3,5.3L494.2,185.2z"/>
	<path class="st9" d="M495.7,165.4c-0.1,0.2-0.1,0.5,0,0.7c0.1,0.2,0.3,0.4,0.5,0.5c0.7,0.6,1.5,1,2.3,1.2c0.8,0.3,1.7,0,2.3-0.7
		c0.4-0.7,0.3-1.5-0.2-2.1c-0.5-0.6-1.2-0.9-2-1C497.5,164,496.5,164.5,495.7,165.4"/>
	<path class="st4" d="M500.4,163.4c-0.1,1.1-0.6,2.1-1.4,2.8c-0.8,0.7-1.9,1.2-3,1.2c-0.9,0-1.3-0.1-1.3-0.3s2-0.1,3.6-1.6
		s1.5-3.3,1.8-3.3C500.3,162.2,500.5,162.6,500.4,163.4z"/>
	<path class="st4" d="M501,140.1c1-0.4,2-0.6,3.1-0.5c1.1,0.1,2.1,0.4,3,0.9c0.7,0.4,1,0.9,0.9,1.1c-0.2,0.4-1.9-0.1-4-0.2
		s-3.8,0.1-4-0.3C499.9,140.8,500.3,140.4,501,140.1z"/>
	<path class="st4" d="M484.5,142.1c1.4-1.1,3.3-1.2,4.8-0.4c0.6,0.4,0.8,0.8,0.6,1c-0.3,0.4-1.5,0.2-3,0.3s-2.7,0.5-3,0.2
		C483.8,143,483.9,142.5,484.5,142.1z"/>
	<path class="st4" d="M516.6,123.5c2.6,0.4,6.4,6.7,6.1,9.3c-0.5,2.6-2.3,4.8-4.8,5.8c-2.5,0.9-5.1,1.2-7.7,0.7
		c-3.7-0.6-7.7-2.4-8.6-6c-3,4-7.8,6.2-12.8,5.8c-4.9-0.5-9.5-7.1-11.5-11.6"/>
	<path class="st4" d="M515.9,176.4c-1.5-3.3,0-10.9,1-14.5s-1.4-11.8-2.1-15s2.8-20.7,2.8-20.7c1.8-1.7,6.8-5.2,11.9-0.9
		c1.8,1.6,3.7,6.1,4,8.5c0.1,0.9,0.1,2.1,1,2.5c0.3,0.1,0.6,0.2,0.9,0.2c5.5,0.8,9.4,5.8,9,11.4c-0.3,0.9,0.2,1.9,1,2.3
		c2.8,2.5,3.8,6.4,2.5,9.9c-0.5,1-0.9,2.1-1.1,3.2c-0.1,2,1.5,3.6,2.8,5.1c3.8,4.6,5.3,11.8,1.8,16.7c-0.8,1.2-2,2.3-2.2,3.7
		c-0.1,0.7,0,1.4,0.1,2.1c0.4,3.6-1.1,7.8-4.6,8.9c-1.9,0.6-4.3,0.3-5.6,1.9c-0.5,0.7-0.8,1.6-1,2.4c-1.1,2.9-3.9,4.8-7,4.6
		c-3.9-0.2-7-3.5-6.8-7.4c-4.1-1.1-7-4.7-7.4-8.9C517,192.6,517.4,179.7,515.9,176.4z"/>
	<path class="st6" d="M533.4,137.9c-2.3,1.1-4.8,1.9-7.4,2.3c-2.5,0.4-5.1,0.5-7.7,0.2c-2-0.2-3.2-0.5-3.2-0.4s0.3,0.1,0.8,0.3
		c0.8,0.2,1.5,0.4,2.3,0.5c5.2,0.8,10.6-0.1,15.3-2.5c0.7-0.4,1.4-0.8,2-1.2c0.5-0.3,0.7-0.6,0.7-0.6
		C536.2,136.4,535.2,137.1,533.4,137.9z"/>
	<path class="st6" d="M535.8,141.1c-0.8,1.2-1.8,2.3-2.8,3.4c-1.3,1.3-2.7,2.4-4.1,3.4c-1.5,1-3.1,1.8-4.8,2.5
		c-1.4,0.5-2.8,0.9-4.2,1.2c-2.4,0.5-4,0.5-4,0.6c0.4,0.1,0.7,0.1,1.1,0.1c0.4,0,0.9,0,1.3,0c0.6,0,1.1-0.1,1.7-0.2
		c1.5-0.2,2.9-0.6,4.3-1.1c1.7-0.7,3.3-1.5,4.9-2.5c1.5-1,2.9-2.2,4.2-3.5c1-1.1,2-2.3,2.8-3.5c0.3-0.5,0.6-1,0.9-1.5
		c0.2-0.4,0.4-0.8,0.6-1.2c0.2-0.3,0.3-0.7,0.4-1C537.8,137.7,537.2,139.1,535.8,141.1z"/>
	<path class="st6" d="M529.4,202.6c0.6-0.1,1.2-0.4,1.6-0.8c0.7-0.7,1.1-1.7,1.1-2.6c0-1.3-0.2-2.5-0.6-3.7
		c-0.5-1.4-0.6-2.9-0.2-4.4c0.5-1.5,1.8-2.7,3-4.1c0.7-0.7,1.2-1.5,1.6-2.4c0.4-1,0.4-2.1-0.1-3.1c-0.5-0.9-1.2-1.7-2.1-2.3
		c-0.8-0.6-1.8-1.2-2.6-1.8c-0.8-0.5-1.5-1.3-1.9-2.2c-0.3-0.9-0.2-1.9,0.3-2.7c0.9-1.7,2.5-3,2.9-5c0.2-0.9,0.1-1.9-0.2-2.8
		c-0.3-0.8-0.7-1.6-1.2-2.3c-0.9-1.2-2-2.3-3.2-3.3c-1.7-1.3-3.1-3.1-4-5.1c-0.2-0.8-0.3-1.6-0.3-2.4c-0.1,0.2-0.1,0.4-0.1,0.6
		c0,0.6,0,1.2,0.2,1.8c0.3,0.9,0.7,1.8,1.3,2.5c0.8,1,1.6,1.9,2.6,2.8c1.1,1,2.2,2.1,3.1,3.3c1.1,1.3,1.6,3,1.3,4.7
		c-0.4,1.7-1.9,3.1-2.9,4.9c-0.6,1-0.7,2.1-0.3,3.1c0.4,1,1.2,1.9,2.1,2.5c0.9,0.7,1.8,1.2,2.6,1.8c0.8,0.5,1.5,1.2,2,2.1
		c0.4,0.8,0.4,1.8,0.1,2.6c-0.4,0.8-0.9,1.6-1.5,2.2c-1.1,1.4-2.5,2.6-3,4.3c-0.4,1.5-0.3,3.1,0.3,4.6c0.4,1.2,0.6,2.4,0.7,3.6
		c0,0.9-0.3,1.8-1,2.5c-0.4,0.4-0.9,0.7-1.5,0.9c-0.4,0.1-0.6,0.1-0.6,0.1C529,202.6,529.2,202.6,529.4,202.6z"/>
	<path class="st1" d="M400.8,247.3c-2.3,0.4-3.9,2.5-3.5,4.8l7.2,49.6h106.1c0.1,0,0.2,0,0.3,0c1.1-0.1,1.9-1,1.8-2.1
		c-0.1-1.1-1-1.9-2.1-1.8h-33.2l-7-47c-0.3-2.1-2.3-3.1-4.4-3.1l-64.5-0.5C401.2,247.3,401,247.3,400.8,247.3z"/>
	<path class="st4" d="M400.4,247.3c-1,0.3-1.8,0.8-2.4,1.6c-0.4,0.6-0.7,1.3-0.8,2c0,0.9,0.1,1.8,0.3,2.6c0.3,1.9,0.6,4.1,1,6.5
		c1.5,9.9,3.6,24,6.1,41.5l-0.2-0.2l102.9-0.1h2.8c0.4,0.1,0.8,0,1.2-0.2c0.4-0.2,0.6-0.5,0.8-0.9c0.3-0.8-0.1-1.6-0.8-2
		c-0.4-0.2-0.8-0.3-1.2-0.2h-33v-0.2l-7-46.6c0-0.8-0.4-1.6-1-2.2c-0.6-0.5-1.4-0.9-2.2-1c-0.8-0.1-1.7-0.1-2.5-0.1h-2.5l-9.7-0.1
		l-17.2-0.2l-24.6-0.3l-6.6-0.1h-1.7h-0.6h0.6h1.7h6.6l24.6,0.1l17.3,0.1l9.7,0.1h2.5c0.9,0,1.7,0,2.6,0.1c0.9,0.1,1.8,0.5,2.5,1.1
		c0.7,0.6,1.1,1.5,1.2,2.5c2.1,14.1,4.5,29.8,7,46.6l-0.2-0.2h32.8c0.5,0,1,0,1.5,0.3c0.9,0.5,1.4,1.7,1,2.7c-0.2,0.5-0.5,0.9-1,1.2
		c-0.4,0.2-1,0.3-1.5,0.3h-2.8l-102.9,0h-0.2v-0.2c-2.5-17.5-4.6-31.7-6-41.5l-0.9-6.5c-0.2-0.9-0.3-1.8-0.2-2.6
		C397.4,249.3,398.7,247.8,400.4,247.3c0.4,0,0.7,0,1.1,0C401.1,247.3,400.8,247.3,400.4,247.3z"/>
	<circle class="st3" cx="436.4" cy="273.9" r="4"/>
	<path class="st4" d="M470.5,274.5c-2.4-14.8-4.5-26.8-4.6-26.7s1.8,12,4.2,26.8s4.5,26.7,4.6,26.7
		C474.9,301.3,473,289.3,470.5,274.5z"/>
</g>
<g id="freepik--Picture--inject-4">
	<path class="st4" d="M299.8,213.2c0-1.1,0-2.8,0-5c-0.1-4.4-0.1-10.8-0.1-19c0-16.4-0.1-39.9-0.1-68.2v-0.2h0.2H405h0.3v0.3
		c0,34.2,0,66.3,0,93.9v0.2H405l-76.2-0.1l-21.4-0.1h-5.6h-1.4l0,0h1.5h5.7l21.4-0.1l76-0.1l-0.2,0.2c0-27.6,0-59.7,0-93.9l0.3,0.3
		l0,0H299.9l0.2-0.2c0,28.2-0.1,51.6-0.1,68c0,8.2,0,14.6,0,19c0,2.2,0,3.9,0,5s0,1.7,0,1.7S299.8,214.3,299.8,213.2z"/>
	<rect x="308.5" y="126.4" class="st5" width="89.7" height="83.2"/>
	<g class="st11">
		<path d="M343.9,145.1c-3.5-0.1-6.4,2.7-6.4,6.2c0,3.3,2.6,6,5.9,6.2c3.4,0.1,6.3-2.5,6.4-5.9C350,148.2,347.3,145.3,343.9,145.1
			C343.9,145.1,343.9,145.1,343.9,145.1z"/>
		<path d="M315.2,133.1v0.4c0.1,20.9,0.1,38.2,0.2,50.4c0,6.1,0.1,10.8,0.1,14.1c0,1.6,0,2.8,0,3.7c0,0.4,0,0.7,0,0.9
			c0,0.1,0,0.2,0,0.3c0,0,0-0.1,0-0.2h37.9l-16.9,0.1l-15.5,0.1H317h-1.1h-0.4c0.1,0,0.2,0,0.3,0h1h4l15.4,0.1l55,0.2h0.4v-0.3
			c0-10.1,0-21.2,0-32.8c0-5.8,0-11.8,0-17.9v-9.3c0-1.6,0-3.1,0-4.7v-4.7c0.4,0.4-0.5-0.5-0.4-0.4l-75.8,0.1L315.2,133.1z
			 M315.5,202.5L315.5,202.5c0-0.4,0-0.7,0-1.1c0-0.9,0-2.1,0-3.7c0-3.3,0.1-8.1,0.1-14.1c0-12.1,0.1-29.3,0.2-49.9l75,0.1v9
			c0,3.1,0,6.2,0,9.3c0,6.1,0,12.1,0,17.9c0,11.3,0,22,0,31.9l-24.4-42.2L346.1,187l-12.3-14.5L315.5,202.5z"/>
	</g>
	<rect x="402.2" y="117.6" class="st4" width="5.5" height="5.5"/>
	<rect x="298" y="117.6" class="st4" width="5.5" height="5.5"/>
	<rect x="298" y="211.2" class="st4" width="5.5" height="5.5"/>
	<rect x="401.5" y="211.2" class="st4" width="5.5" height="5.5"/>
	<rect x="401.5" y="165" class="st4" width="5.5" height="5.5"/>
	<rect x="350.4" y="212.2" class="st4" width="5.5" height="5.5"/>
	<rect x="297.1" y="162.2" class="st4" width="5.5" height="5.5"/>
	<rect x="350.4" y="118.1" class="st4" width="5.5" height="5.5"/>
</g>
<g id="freepik--Plant--inject-4">
	<path class="st4" d="M140.8,374.9c0.9-0.7,1.8-1.2,1.9-1.1s-0.6,0.8-1.5,1.6s-1.8,1.2-1.9,1.1C139.2,376.3,139.9,375.6,140.8,374.9
		z"/>
	<path class="st6" d="M124.6,422.8l16.2-2.3c1.2-27.8-0.4-55.6-5-83c-0.6-4-1.4-8.1-3.6-11.4s-6.2-5.9-10.2-5
		c-3.5,0.7-6,3.8-7.2,7.2s-1,7-0.9,10.5C115.3,368.5,117.6,393.8,124.6,422.8z"/>
	<path class="st4" d="M124.3,321.2l0.3,0.7l1.2,2.8c0.2,0.6,0.6,1.2,0.8,2l0.8,2.4c0.3,0.9,0.7,1.8,1,2.8s0.6,2.1,0.9,3.2
		c1.4,5.3,2.5,10.6,3.3,16c0.9,6.1,1.5,12.8,1.9,19.9c0.8,14.2,0.9,27,1.2,36.3c0.1,4.6,0.2,8.4,0.3,11c0.1,1.3,0.1,2.3,0.1,3
		c0,0.3,0,0.6,0,0.8c0,0.1,0,0.2,0,0.3c0-0.1,0-0.2,0-0.3c0-0.2-0.1-0.5-0.1-0.8c0-0.8-0.1-1.7-0.2-3c-0.2-2.6-0.3-6.4-0.5-11
		c-0.3-9.3-0.5-22.1-1.3-36.3c-0.5-7.1-1-13.8-1.9-19.9c-0.7-5.4-1.8-10.7-3.1-16c-0.3-1.1-0.6-2.2-0.8-3.2l-0.9-2.8l-0.8-2.5
		c-0.2-0.7-0.5-1.4-0.8-2c-0.5-1.2-0.8-2.1-1.1-2.8L124.3,321.2c0-0.1,0-0.2,0-0.3C124.3,321,124.3,321.1,124.3,321.2z"/>
	<path class="st4" d="M121,324.3c-1.1,3.3-1.6,6.9-1.3,10.4c0.5,8.9,1.5,21.2,2.5,34.8s2.2,25.9,3,34.7c0.4,4.4,0.8,8,1,10.5
		c0.1,1.2,0.2,2.2,0.3,2.9v0.8c0,0.1,0,0.2,0,0.2c0,0,0,0,0-0.2s-0.1-0.4-0.1-0.7c-0.1-0.7-0.2-1.7-0.4-2.9
		c-0.3-2.5-0.7-6.1-1.2-10.5c-1-8.9-2.2-21.2-3.2-34.7s-1.9-25.9-2.3-34.8c-0.3-3.5,0.2-7.1,1.5-10.5c0.5-1.2,1.2-2.3,2-3.3
		C122.1,322,121.5,323.2,121,324.3z"/>
	<path class="st4" d="M111.6,362.7c1.8-1.1,3.8-1.8,5.9-2.1c-0.9,0.6-1.8,1.1-2.9,1.3C113.7,362.4,112.6,362.6,111.6,362.7
		L111.6,362.7z"/>
	<path class="st4" d="M112.8,347.4c1.1,0.4,2,0.9,2.9,1.6c-1.1-0.2-2.2-0.6-3.2-1.1c-1.1-0.4-2-0.9-2.9-1.6
		C110.7,346.4,111.8,346.8,112.8,347.4z"/>
	<path class="st4" d="M113,332.4c0.8-0.1,1.6-0.1,2.4,0.1c-1.5,0.5-3.2,0.6-4.8,0.3C111.4,332.5,112.2,332.3,113,332.4z"/>
	<path class="st4" d="M128.4,321.9c0.7-1.2,1.4-2.1,1.6-2s-0.4,1.1-1.1,2.3s-1.5,2.1-1.6,2C127.5,323.4,127.9,322.6,128.4,321.9z"/>
	<path class="st4" d="M135.1,332c0.8-0.1,1.6,0,2.3,0.2c0,0.2-1,0.3-2.3,0.3c-0.8,0.1-1.6,0-2.3-0.2
		C132.8,332.2,133.8,332,135.1,332z"/>
	<path class="st4" d="M139,347.4c0.7-0.4,1.6-0.6,2.4-0.7c0.1,0.2-0.9,0.7-2.2,1.2c-0.7,0.4-1.6,0.6-2.4,0.7
		C136.7,348.5,137.7,347.9,139,347.4z"/>
	<path class="st4" d="M139.4,362.4c1.1,0.2,2,0.6,2,0.7s-1,0.1-2.2-0.2s-2-0.6-2-0.7C137.2,362.1,138.3,362.2,139.4,362.4z"/>
	<path class="st4" d="M141.3,384.8c1.2,0.2,2.2,0.5,2.2,0.7s-1.1,0.1-2.3-0.1s-2.2-0.5-2.2-0.7C139.8,384.5,140.6,384.5,141.3,384.8
		z"/>
	<path class="st4" d="M142.4,397.8c1.1,0.6,1.9,1.1,1.8,1.3s-1-0.2-2.1-0.8s-1.9-1.1-1.8-1.3C140.4,396.8,141.3,397.2,142.4,397.8z"
		/>
	<path class="st4" d="M131.3,408.5c0.7-1.3,1.4-2.3,1.6-2.2c-0.2,0.9-0.5,1.7-1.1,2.5c-0.7,1.3-1.5,2.3-1.6,2.2
		C130.4,410.1,130.8,409.3,131.3,408.5z"/>
	<path class="st4" d="M129.5,389.4c1.1,1.1,1.9,2,1.8,2.1s-1.1-0.7-2.2-1.7c-1.1-1.1-1.9-2-1.8-2.1
		C127.4,387.6,128.4,388.4,129.5,389.4z"/>
	<path class="st4" d="M129.2,373.7c0.8-0.9,1.5-1.5,1.6-1.3s-0.4,0.9-1.2,1.7s-1.5,1.5-1.6,1.4C127.8,375.4,128.4,374.6,129.2,373.7
		z"/>
	<path class="st4" d="M127.9,361.6c0.9,1.1,1.6,2,1.5,2.1s-1-0.6-1.9-1.7c-0.9-1.1-1.6-2-1.5-2.1
		C126.1,359.8,126.9,360.5,127.9,361.6z"/>
	<path class="st4" d="M126.5,346.5c1.1-1,2-1.7,2.1-1.6s-0.6,1-1.7,2s-2,1.7-2.1,1.6S125.4,347.5,126.5,346.5z"/>
	<path class="st4" d="M124.2,335.2c0.7,1.2,1.1,2.2,1,2.3s-0.9-0.8-1.5-2s-1.1-2.2-1-2.3C122.8,333.1,123.5,334,124.2,335.2z"/>
	<path class="st4" d="M119.9,321c0.6,1.2,1,2.2,0.9,2.3s-0.8-0.8-1.4-2c-0.5-0.7-0.8-1.5-0.9-2.3C118.6,319,119.2,319.8,119.9,321z"
		/>
	<path class="st4" d="M115.4,326c0.9,0.4,1.5,0.9,1.5,1s-0.8-0.1-1.7-0.5s-1.5-0.9-1.4-1C113.8,325.4,114.6,325.6,115.4,326z"/>
	<path class="st4" d="M116.5,375.2c1-0.5,2-0.9,3-1.2c-1.6,1.5-3.7,2.4-5.9,2.5C114.6,375.9,115.5,375.5,116.5,375.2z"/>
	<path class="st4" d="M117.8,387.4c1.2,0.2,2.2,0.5,2.2,0.7s-1.1,0.1-2.3-0.1s-2.2-0.5-2.2-0.7C116.3,387.1,117.1,387.2,117.8,387.4
		z"/>
	<path class="st4" d="M119.9,403.2c0.6-0.9,1.3-1.7,2-2.5c-0.2,1.1-0.8,2.1-1.5,2.9c-0.6,0.9-1.5,1.7-2.5,2.2
		C118.5,404.9,119.2,404,119.9,403.2z"/>
	<path class="st4" d="M142,413c-0.9-0.8-1.6-1.5-1.5-1.6s0.9,0.4,1.8,1.2s1.6,1.5,1.5,1.6C143.8,414.4,143,413.8,142,413z"/>
	<path class="st6" d="M144,418.8h12.6c4.5-13.9,7-28.4,7.4-43c0.1-2.1-0.4-4.1-1.3-5.9c-0.9-1.9-2.8-3.1-4.8-3.2
		c-3.5,0.1-5.5,3.9-6.5,7.2C146.6,388.4,144.1,403.6,144,418.8z"/>
	<path class="st6" d="M160.6,420.9l15.7,1.7c5.5-17.3,11.1-34.6,16.6-51.9c1.7-5.4,3.5-11,2.8-16.6s-2.8-11.1-8.4-12.1
		c-6.1,0.4-11.4,4.2-13.1,11.2C168.4,376.2,165.6,397.7,160.6,420.9z"/>
	<path class="st4" d="M159.1,368.4c0.7,1.8,1,3.8,0.8,5.7c-0.1,1.2-0.2,2.5-0.3,4s-0.3,2.9-0.5,4.5c-0.4,3.2-0.9,6.7-1.7,10.3
		c-1.4,7.3-3.1,13.8-4.2,18.5c-0.5,2.3-1,4.2-1.3,5.6c-0.2,0.6-0.3,1.1-0.4,1.5c0,0.2-0.1,0.4-0.2,0.5c0-0.2,0-0.4,0.1-0.5
		c0.1-0.4,0.2-0.9,0.3-1.5c0.2-1.3,0.6-3.3,1.2-5.6c1.1-4.7,2.6-11.2,4.1-18.5c0.7-3.6,1.3-7.1,1.7-10.3s0.7-6.1,0.9-8.5
		c0.3-1.9,0.1-3.8-0.6-5.6c-0.3-0.6-0.7-1.2-1.1-1.8C158.4,367.1,158.8,367.7,159.1,368.4z"/>
	<path class="st4" d="M189.2,343.9c1.5,2.5,2.4,5.4,2.6,8.3c0.3,3.7-0.5,8.1-1.8,12.8l-4.4,15.2l-8.2,27.5c-1.1,3.5-1.9,6.3-2.5,8.3
		l-0.7,2.2c-0.1,0.3-0.2,0.5-0.3,0.8c0-0.3,0.1-0.5,0.2-0.8c0.1-0.6,0.4-1.3,0.6-2.3c0.6-2,1.4-4.9,2.4-8.4c2-7.1,4.9-16.8,8-27.6
		c1.6-5.4,3.1-10.5,4.5-15.2s2.2-9,1.9-12.6c-0.1-2.9-0.9-5.7-2.4-8.2c-0.6-0.9-1.2-1.7-1.9-2.5C187.9,342.2,188.6,343,189.2,343.9z
		"/>
	<path class="st4" d="M164.3,418.4c0.2-0.5,0.5-1.2,0.8-2.2c0.7-1.9,1.6-4.8,2.5-8.4s1.9-7.8,2.8-12.6s1.9-10.1,2.9-15.6
		c1-5.2,2.2-10.4,3.8-15.5c1.2-4.2,2.8-8.2,4.7-12.1c1.3-2.6,2.7-5.2,4.4-7.6c0.6-0.9,1.1-1.5,1.4-1.9c0.2-0.2,0.3-0.4,0.5-0.6
		c-0.1,0.2-0.3,0.5-0.4,0.7c-0.3,0.5-0.8,1.1-1.3,2c-1.6,2.4-3,5-4.2,7.6c-1.8,3.9-3.4,8-4.6,12.1c-1.4,4.7-2.6,9.9-3.7,15.4
		s-2.1,10.8-3,15.6s-1.9,9.1-2.9,12.7s-2,6.4-2.7,8.3C164.9,417.2,164.6,417.9,164.3,418.4c0,0.3-0.1,0.6-0.3,0.8
		C164.1,418.9,164.2,418.6,164.3,418.4z"/>
	<path class="st4" d="M194.6,368.2c1.1,0.3,1.9,0.6,1.9,0.8s-0.9,0.1-2-0.2s-1.9-0.6-1.9-0.8C192.6,367.9,193.5,368,194.6,368.2z"/>
	<path class="st4" d="M199.6,357.5c-1.8,0.2-3.6,0.1-5.3-0.2C196,356.9,197.9,357,199.6,357.5z"/>
	<path class="st4" d="M194,345.9c0.9-0.8,1.8-1.4,1.9-1.2s-0.6,0.9-1.5,1.7s-1.8,1.4-1.9,1.2C192.4,347.4,193.1,346.7,194,345.9z"/>
	<path class="st4" d="M188.2,340.2c0,1-0.2,1.8-0.4,1.7s-0.2-0.8-0.2-1.7s-0.1-1.7,0.1-1.7C187.9,338.5,188.2,339.2,188.2,340.2z"/>
	<path class="st4" d="M179.3,344.2c0.6,0.9,1,1.6,0.9,1.7s-0.7-0.5-1.3-1.4s-1-1.6-0.8-1.7S178.6,343.3,179.3,344.2z"/>
	<path class="st4" d="M173.6,354.3c1.1,0.4,1.8,0.9,1.8,1s-0.9-0.1-2-0.5s-1.9-0.9-1.8-1C171.6,353.6,172.5,353.9,173.6,354.3z"/>
	<path class="st4" d="M170.3,365.7c0.9,0.1,1.8,0.3,2.6,0.7c-0.9,0.2-1.8,0.2-2.7-0.1c-0.9-0.1-1.8-0.5-2.5-1.1
		C168.6,365.2,169.5,365.4,170.3,365.7z"/>
	<path class="st4" d="M184.6,360.4c-0.2-0.9-0.4-1.7-0.2-1.8s0.5,0.7,0.8,1.6s0.4,1.8,0.2,1.8C185.3,362,184.9,361.3,184.6,360.4z"
		/>
	<path class="st4" d="M181.7,374c-0.4-0.7-0.7-1.5-0.7-2.4c0.1-0.1,0.7,0.9,1.2,2.1c0.4,0.7,0.7,1.5,0.7,2.4
		C182.8,376.2,182.2,375.3,181.7,374z"/>
	<path class="st4" d="M191.1,379c0.7-0.3,1.5-0.4,2.3-0.3c0,0.2-0.9,0.5-2.1,0.9s-2.2,0.6-2.3,0.5S189.9,379.4,191.1,379z"/>
	<path class="st4" d="M187.4,392.6c0.9,0.7,1.6,1.3,1.5,1.4s-0.9-0.3-1.8-1s-1.6-1.3-1.5-1.4C185.6,391.5,186.4,392,187.4,392.6z"/>
	<path class="st4" d="M184.7,403.5c1.1,0.3,1.8,0.6,1.8,0.8s-0.9,0.1-2-0.2s-1.9-0.6-1.9-0.8C182.7,403.1,183.7,403.2,184.7,403.5z"
		/>
	<path class="st4" d="M169.3,375.4c1,0.4,1.8,0.7,1.8,0.8s-1,0.1-2-0.3s-1.7-1-1.7-1.1C167.5,374.7,168.3,375,169.3,375.4z"/>
	<path class="st4" d="M166.9,391.7c1-0.5,1.8-0.7,1.9-0.6s-0.7,0.6-1.7,1.1s-1.8,0.7-1.9,0.6C165.2,392.7,165.9,392.2,166.9,391.7z"
		/>
	<path class="st4" d="M163.7,404.5c0.8-0.4,1.6-0.6,2.5-0.7c0.1,0.2-1,0.7-2.3,1.2c-0.8,0.4-1.6,0.6-2.5,0.7
		C161.3,405.6,162.3,405,163.7,404.5z"/>
	<path class="st4" d="M179.6,414.5c-1.2-1-2-2-1.9-2.1s1.1,0.7,2.2,1.7s2.2,1.6,2.1,1.8C181.2,415.6,180.3,415.2,179.6,414.5z"/>
	<path class="st4" d="M172.1,407.2c0.4-1.1,1.1-1.8,1.2-1.7s-0.3,0.9-0.7,1.9s-0.6,1.9-0.8,1.9C171.7,409.2,171.7,408.3,172.1,407.2
		z"/>
	<path class="st4" d="M175.8,392.6c0.7-0.5,1.4-0.9,1.5-0.7s-0.4,0.6-1.1,1.2s-1.4,0.8-1.5,0.7C174.5,393.6,175,393.1,175.8,392.6z"
		/>
	<path class="st4" d="M152.6,370.4c0.9,0.6,1.5,1.3,1.4,1.4s-0.9-0.3-1.8-1s-1.5-1.3-1.4-1.4C150.9,369.3,151.7,369.8,152.6,370.4z"
		/>
	<path class="st4" d="M149.4,378.9c1.2-0.1,2.1-0.3,2.2-0.1s-0.9,0.6-2.1,0.7s-2.2-0.1-2.2-0.2C147.3,379.1,148.2,379,149.4,378.9z"
		/>
	<path class="st4" d="M164.8,381.4c1.1,0.1,2.1,0.1,2.1,0.3s-1,0.4-2.2,0.3s-2.1-0.4-2.1-0.6C162.6,381.3,163.6,381.4,164.8,381.4z"
		/>
	<path class="st4" d="M163.1,371.4c0.9-0.4,1.7-0.9,1.8-0.8s-0.5,0.8-1.5,1.3s-2,0.4-2,0.3C161.3,372,162.2,371.8,163.1,371.4z"/>
	<path class="st4" d="M147.8,388.3c1.2-0.7,2.1-1.1,2.2-1s-0.7,0.8-1.8,1.5s-2.1,1.1-2.1,1C145.9,389.6,146.6,388.9,147.8,388.3z"/>
	<rect x="108.4" y="417.2" class="st5" width="82.1" height="14.5"/>
	<polygon class="st5" points="114.5,428.9 125.4,472.4 174.4,472.4 184.4,428.9 	"/>
	<path class="st4" d="M149.8,431.5c22.8,0,41.4,0.1,41.4,0.3s-18.5,0.3-41.4,0.3s-41.4-0.1-41.4-0.3S126.9,431.5,149.8,431.5z"/>
	<path class="st4" d="M154.9,380c0.5-0.9,1.1-1.5,1.2-1.5s-0.2,0.9-0.8,1.8s-1.1,1.5-1.3,1.5C154,381.7,154.3,380.9,154.9,380z"/>
	<path class="st4" d="M153.1,391.5c-0.4-1.2-0.6-2.1-0.4-2.2s0.6,0.8,1,2s0.6,2.2,0.4,2.2C153.9,393.5,153.5,392.7,153.1,391.5z"/>
	<path class="st4" d="M150.9,403.3c0.3-0.8,0.8-1.6,1.4-2.2c-0.1,0.9-0.4,1.7-0.8,2.5c-0.6,1.3-1.2,2.3-1.4,2.2
		C150.2,404.9,150.5,404.1,150.9,403.3z"/>
	<path class="st4" d="M157.2,414.3c-0.7-0.8-1.2-1.6-1.1-1.7s0.8,0.5,1.5,1.3s1.2,1.6,1.1,1.7C158.6,415.8,157.9,415.2,157.2,414.3z
		"/>
	<path class="st4" d="M162.2,397.1c1-0.1,1.8-0.2,1.8,0s-0.7,0.4-1.7,0.6s-1.8,0.1-1.8,0C160.5,397.5,161.3,397.3,162.2,397.1z"/>
</g>
</svg>
